SplineFontDB: 3.2
FontName: Ani
FullName: Ani
FamilyName: Ani
Weight: Book
Copyright: GPL2+FE (c) 2002-22 Dr Anirban Mitra 
Version: 1.0.2
ItalicAngle: 32
UnderlinePosition: -340
UnderlineWidth: 150
Ascent: 1638
Descent: 410
InvalidEm: 0
sfntRevision: 0x00010000
LayerCount: 2
Layer: 0 1 "Back" 1
Layer: 1 1 "Fore" 0
XUID: [1021 162 -509335450 12515986]
BaseHoriz: 0
StyleMap: 0x0040
FSType: 0
OS2Version: 1
OS2_WeightWidthSlopeOnly: 0
OS2_UseTypoMetrics: 0
CreationTime: 1031923877
ModificationTime: 1643987020
PfmFamily: 81
TTFWeight: 400
TTFWidth: 5
LineGap: 0
VLineGap: 0
Panose: 0 0 0 0 0 0 0 0 0 0
OS2TypoAscent: 2542
OS2TypoAOffset: 0
OS2TypoDescent: 898
OS2TypoDOffset: 0
OS2TypoLinegap: 0
OS2WinAscent: 2542
OS2WinAOffset: 0
OS2WinDescent: 898
OS2WinDOffset: 0
HheadAscent: 2542
HheadAOffset: 0
HheadDescent: -898
HheadDOffset: 0
OS2SubXSize: 1434
OS2SubYSize: 1331
OS2SubXOff: 0
OS2SubYOff: 283
OS2SupXSize: 1434
OS2SupYSize: 1331
OS2SupXOff: 0
OS2SupYOff: 977
OS2StrikeYSize: 102
OS2StrikeYPos: 530
OS2FamilyClass: 770
OS2Vendor: 'Ani '
OS2CodePages: 00000000.00000000
OS2UnicodeRanges: 00010001.00000000.00000000.00000000
Lookup: 4 0 0 "'nukt' Nukta Forms in Bengali lookup 0" { "'nukt' Nukta Forms in Bengali lookup 0 subtable"  } ['nukt' ('beng' <'dflt' > ) ]
Lookup: 4 0 0 "'akhn' Akhand in Bengali lookup 1" { "'akhn' Akhand in Bengali lookup 1 subtable"  } ['akhn' ('beng' <'dflt' > ) ]
Lookup: 4 0 0 "'blwf' Below Base Forms in Bengali lookup 2" { "'blwf' Below Base Forms in Bengali lookup 2 subtable"  } ['blwf' ('beng' <'dflt' > ) ]
Lookup: 4 0 0 "'rphf' Reph Form in Bengali lookup 3" { "'rphf' Reph Form in Bengali lookup 3 subtable"  } ['rphf' ('beng' <'dflt' > ) ]
Lookup: 4 0 0 "'pstf' Post Base Forms in Bengali lookup 24" { "'pstf' Post Base Forms in Bengali lookup 24-1"  } ['pstf' ('beng' <'dflt' > ) ]
Lookup: 4 0 0 "'half' Half Forms in Bengali lookup 4" { "'half' Half Forms in Bengali lookup 4 subtable"  } ['half' ('beng' <'dflt' > ) ]

StartChar: .notdef
Encoding: 65536 -1 0
Width: 1536
GlyphClass: 2
Flags: W
LayerCount: 2
Fore
SplineSet
325 67 m 1,0,-1
 1218 67 l 1,1,-1
 1218 1198 l 1,2,-1
 325 1198 l 1,3,-1
 325 67 l 1,0,-1
256 0 m 1,4,-1
 256 1280 l 1,5,-1
 1280 1280 l 1,6,-1
 1280 0 l 1,7,-1
 256 0 l 1,4,-1
EndSplineSet
EndChar

StartChar: exclam
Encoding: 33 33 4
Width: 290
GlyphClass: 2
Flags: W
LayerCount: 2
Fore
SplineSet
240 98 m 0,0,1
 240 47 240 47 211 11 c 128,-1,2
 182 -25 182 -25 133 -25 c 0,3,4
 76 -25 76 -25 47 11 c 128,-1,5
 18 47 18 47 18 98 c 0,6,7
 18 223 18 223 133 223 c 0,8,9
 178 223 178 223 209 185 c 128,-1,10
 240 147 240 147 240 98 c 0,0,1
227 1487 m 2,11,-1
 182 352 l 1,12,-1
 76 352 l 1,13,-1
 14 1473 l 2,14,15
 14 1530 14 1530 47 1566 c 128,-1,16
 80 1602 80 1602 125 1602 c 0,17,18
 168 1602 168 1602 197.5 1571 c 128,-1,19
 227 1540 227 1540 227 1487 c 2,11,-1
EndSplineSet
EndChar

StartChar: quotedbl
Encoding: 34 34 5
Width: 419
GlyphClass: 2
Flags: W
LayerCount: 2
Fore
SplineSet
373 1409 m 1,0,-1
 373 1417 l 1,1,-1
 455 1143 l 1,2,-1
 383 999 l 1,3,-1
 270 1143 l 1,4,-1
 373 1409 l 1,0,-1
127 1409 m 1,5,-1
 127 1417 l 1,6,-1
 209 1143 l 1,7,-1
 137 999 l 1,8,-1
 25 1143 l 1,9,-1
 127 1409 l 1,5,-1
EndSplineSet
EndChar

StartChar: numbersign
Encoding: 35 35 6
Width: 1139
GlyphClass: 2
Flags: W
LayerCount: 2
Fore
SplineSet
445 1310 m 1,0,-1
 525 1290 l 1,1,-1
 415 1020 l 1,2,-1
 705 1030 l 1,3,-1
 805 1310 l 1,4,-1
 915 1300 l 1,5,-1
 815 1010 l 1,6,-1
 985 1010 l 1,7,-1
 965 900 l 1,8,-1
 785 890 l 1,9,-1
 685 700 l 1,10,-1
 805 710 l 1,11,-1
 805 590 l 1,12,-1
 605 590 l 1,13,-1
 435 280 l 1,14,-1
 315 310 l 1,15,-1
 485 590 l 1,16,-1
 215 590 l 1,17,-1
 95 300 l 1,18,-1
 -5 300 l 1,19,-1
 125 620 l 1,20,-1
 15 620 l 1,21,-1
 5 720 l 1,22,-1
 175 720 l 1,23,-1
 275 920 l 1,24,-1
 -5 920 l 1,25,-1
 15 1000 l 1,26,-1
 315 1000 l 1,27,-1
 445 1310 l 1,0,-1
EndSplineSet
EndChar

StartChar: dollar
Encoding: 36 36 7
Width: 945
GlyphClass: 2
Flags: W
LayerCount: 2
Fore
SplineSet
255 54 m 1,0,-1
 28 54 l 1,1,-1
 -216 548 l 1,2,-1
 -171 637 l 1,3,-1
 98 125 l 1,4,-1
 263 122 l 1,5,-1
 255 54 l 1,0,-1
397 652 m 1,6,-1
 402 -249 l 1,7,-1
 327 -249 l 1,8,-1
 320 657 l 1,9,-1
 397 652 l 1,6,-1
400 1617 m 1,10,-1
 405 802 l 1,11,-1
 330 802 l 1,12,-1
 323 1634 l 1,13,-1
 400 1617 l 1,10,-1
707 948 m 1,14,-1
 486 1101 l 1,15,-1
 478 1176 l 1,16,-1
 696 1026 l 1,17,-1
 707 948 l 1,14,-1
468 727 m 1,18,-1
 764 570 l 1,19,-1
 764 54 l 1,20,-1
 477 54 l 1,21,-1
 475 137 l 1,22,-1
 689 129 l 1,23,-1
 689 518 l 1,24,-1
 477 642 l 1,25,-1
 468 727 l 1,18,-1
255 1246 m 1,26,-1
 178 1330 l 1,27,-1
 61 1228 l 1,28,-1
 76 996 l 1,29,-1
 248 802 l 1,30,-1
 252 720 l 1,31,-1
 9 921 l 1,32,-1
 -21 1258 l 1,33,-1
 176 1404 l 1,34,-1
 263 1322 l 1,35,-1
 255 1246 l 1,26,-1
EndSplineSet
EndChar

StartChar: percent
Encoding: 37 37 8
Width: 839
GlyphClass: 2
Flags: W
LayerCount: 2
Fore
SplineSet
854 337 m 0,0,1
 854 260 854 260 816.5 192 c 128,-1,2
 779 124 779 124 715 124 c 0,3,4
 644 124 644 124 606.5 186.5 c 128,-1,5
 569 249 569 249 569 337 c 0,6,7
 569 424 569 424 606.5 489.5 c 128,-1,8
 644 555 644 555 715 555 c 0,9,10
 779 555 779 555 816.5 492.5 c 128,-1,11
 854 430 854 430 854 337 c 0,0,1
751.5 397 m 128,-1,13
 736 423 736 423 710 423 c 0,14,15
 680 423 680 423 664.5 396 c 128,-1,16
 649 369 649 369 649 332 c 0,17,18
 649 296 649 296 664.5 270 c 128,-1,19
 680 244 680 244 710 244 c 0,20,21
 736 244 736 244 751.5 272.5 c 128,-1,22
 767 301 767 301 767 332 c 0,23,12
 767 371 767 371 751.5 397 c 128,-1,13
382 1257 m 0,24,25
 382 1180 382 1180 344 1112 c 128,-1,26
 306 1044 306 1044 243 1044 c 0,27,28
 172 1044 172 1044 134 1106.5 c 128,-1,29
 96 1169 96 1169 96 1257 c 0,30,31
 96 1344 96 1344 134 1409.5 c 128,-1,32
 172 1475 172 1475 243 1475 c 0,33,34
 306 1475 306 1475 344 1412.5 c 128,-1,35
 382 1350 382 1350 382 1257 c 0,24,25
279 1327 m 128,-1,37
 263 1353 263 1353 237 1353 c 0,38,39
 207 1353 207 1353 191.5 1326 c 128,-1,40
 176 1299 176 1299 176 1262 c 0,41,42
 176 1226 176 1226 191.5 1200 c 128,-1,43
 207 1174 207 1174 237 1174 c 0,44,45
 263 1174 263 1174 279 1202.5 c 128,-1,46
 295 1231 295 1231 295 1262 c 0,47,36
 295 1301 295 1301 279 1327 c 128,-1,37
165 34 m 1,48,-1
 81 120 l 1,49,-1
 811 1471 l 1,50,-1
 895 1385 l 1,51,-1
 165 34 l 1,48,-1
EndSplineSet
EndChar

StartChar: ampersand
Encoding: 38 38 9
Width: 1207
GlyphClass: 2
Flags: W
LayerCount: 2
Fore
SplineSet
673 -4 m 1,0,1
 626 -11 626 -11 582 -11 c 0,2,3
 580 -11 580 -11 579 -11 c 0,4,5
 577 -11 577 -11 576 -11 c 0,6,7
 254 -11 254 -11 43 376 c 1,8,-1
 38 631 l 1,9,-1
 258 901 l 1,10,-1
 313 1011 l 1,11,-1
 313 1211 l 1,12,13
 53 1286 53 1286 43 1436 c 1,14,-1
 43 1454 l 2,15,16
 43 1462 43 1462 43 1471 c 0,17,18
 43 1479 43 1479 43 1487 c 0,19,20
 43 1782 43 1782 337 1782 c 0,21,22
 411 1782 411 1782 503 1761 c 0,23,24
 773 1711 773 1711 773 1416 c 0,25,26
 773 1413 773 1413 773 1411 c 0,27,28
 773 1408 773 1408 773 1406 c 0,29,30
 773 1298 773 1298 733 1151 c 1,31,-1
 583 1186 l 1,32,33
 652 1356 652 1356 652 1467 c 0,34,35
 652 1630 652 1630 503 1666 c 1,36,37
 375 1712 375 1712 295 1712 c 0,38,39
 294 1712 294 1712 293 1712 c 0,40,41
 149 1712 149 1712 149 1563 c 0,42,43
 149 1517 149 1517 163 1456 c 1,44,45
 168 1336 168 1336 458 1231 c 1,46,-1
 423 891 l 1,47,-1
 392 889 l 1,48,49
 143 597 143 597 143 394 c 0,50,51
 143 390 143 390 143 386 c 0,52,53
 311 142 311 142 524 142 c 0,54,55
 526 142 526 142 527 142 c 0,56,57
 529 142 529 142 530 142 c 0,58,59
 634 142 634 142 753 206 c 1,60,-1
 1034 891 l 1,61,-1
 874 926 l 1,62,-1
 563 606 l 1,63,-1
 563 701 l 1,64,-1
 854 1116 l 1,65,-1
 1228 911 l 1,66,67
 873 151 873 151 673 -4 c 1,0,1
EndSplineSet
EndChar

StartChar: quotesingle
Encoding: 39 39 10
Width: 429
GlyphClass: 2
Flags: W
LayerCount: 2
Fore
SplineSet
187 1639 m 1,0,-1
 187 1647 l 1,1,-1
 269 1373 l 1,2,-1
 197 1229 l 1,3,-1
 85 1373 l 1,4,-1
 187 1639 l 1,0,-1
EndSplineSet
EndChar

StartChar: parenleft
Encoding: 40 40 11
Width: 1006
GlyphClass: 2
Flags: W
LayerCount: 2
Fore
SplineSet
492 62 m 1,0,-1
 422 -20 l 1,1,2
 231 121 231 121 140 315 c 128,-1,3
 49 509 49 509 49 747 c 0,4,5
 49 1164 49 1164 398 1540 c 1,6,-1
 483 1467 l 1,7,8
 328 1305 328 1305 243 1124.5 c 128,-1,9
 158 944 158 944 158 750 c 0,10,11
 158 491 158 491 260 321 c 0,12,13
 316 230 316 230 492 62 c 1,0,-1
EndSplineSet
EndChar

StartChar: parenright
Encoding: 41 41 12
Width: 750
GlyphClass: 2
Flags: W
LayerCount: 2
Fore
SplineSet
683 746 m 0,0,1
 683 496 683 496 592 298.5 c 128,-1,2
 501 101 501 101 303 -48 c 1,3,-1
 230 37 l 1,4,5
 412 217 412 217 464 302 c 0,6,7
 571 478 571 478 571 749 c 0,8,9
 571 947 571 947 485.5 1134 c 128,-1,10
 400 1321 400 1321 242 1491 c 1,11,-1
 324 1570 l 1,12,13
 510 1369 510 1369 596.5 1171.5 c 128,-1,14
 683 974 683 974 683 746 c 0,0,1
EndSplineSet
EndChar

StartChar: asterisk
Encoding: 42 42 13
Width: 979
GlyphClass: 2
Flags: W
LayerCount: 2
Fore
SplineSet
191 327 m 1,0,-1
 184 320 l 1,1,-1
 328 587 l 1,2,-1
 321 582 l 1,3,-1
 17 699 l 1,4,-1
 8 699 l 1,5,-1
 302 787 l 1,6,-1
 178 1066 l 1,7,-1
 171 1072 l 1,8,-1
 459 917 l 1,9,-1
 487 833 l 1,10,-1
 503 960 l 1,11,-1
 800 1092 l 1,12,-1
 807 1099 l 1,13,-1
 653 815 l 1,14,-1
 935 707 l 1,15,-1
 944 707 l 1,16,-1
 686 629 l 1,17,-1
 817 333 l 1,18,-1
 824 327 l 1,19,-1
 536 482 l 1,20,-1
 503 581 l 1,21,-1
 488 459 l 1,22,-1
 191 327 l 1,0,-1
479 654 m 1,23,-1
 366 617 l 1,24,-1
 466 695 l 1,25,-1
 564 646 l 1,26,-1
 512 653 l 1,27,-1
 514 666 l 1,28,-1
 484 656 l 1,29,-1
 478 657 l 1,30,-1
 479 654 l 1,23,-1
486 710 m 1,31,-1
 391 758 l 1,32,-1
 517 742 l 1,33,-1
 510 764 l 1,34,-1
 589 790 l 1,35,-1
 486 710 l 1,31,-1
EndSplineSet
EndChar

StartChar: plus
Encoding: 43 43 14
Width: 1009
GlyphClass: 2
Flags: W
LayerCount: 2
Fore
SplineSet
87 510 m 1,0,-1
 428 507 l 1,1,-1
 426 49 l 1,2,-1
 521 108 l 1,3,-1
 601 166 l 1,4,-1
 601 499 l 1,5,-1
 1032 500 l 1,6,-1
 933 665 l 1,7,-1
 601 665 l 1,8,-1
 601 1091 l 1,9,-1
 436 982 l 1,10,-1
 436 665 l 1,11,-1
 -40 665 l 1,12,-1
 87 510 l 1,0,-1
EndSplineSet
EndChar

StartChar: comma
Encoding: 44 44 15
Width: 489
GlyphClass: 2
Flags: W
LayerCount: 2
Fore
SplineSet
139 88 m 1,0,-1
 -2 -95 l 1,1,2
 376 53 376 53 236 157.5 c 128,-1,3
 96 262 96 262 139 88 c 1,0,-1
EndSplineSet
EndChar

StartChar: hyphen
Encoding: 45 45 16
AltUni2: 0000ad.ffffffff.0
Width: 877
GlyphClass: 2
Flags: W
LayerCount: 2
Fore
SplineSet
633 585 m 1,0,-1
 100 585 l 1,1,-1
 157 695 l 1,2,-1
 700 695 l 1,3,-1
 633 585 l 1,0,-1
EndSplineSet
EndChar

StartChar: period
Encoding: 46 46 17
Width: 409
GlyphClass: 2
Flags: W
LayerCount: 2
Fore
SplineSet
231 94 m 0,0,1
 231 59 231 59 208 29 c 128,-1,2
 185 -1 185 -1 147 -1 c 0,3,4
 103 -1 103 -1 80 26.5 c 128,-1,5
 57 54 57 54 57 94 c 0,6,7
 57 132 57 132 80 161 c 128,-1,8
 103 190 103 190 147 190 c 0,9,10
 185 190 185 190 208 162.5 c 128,-1,11
 231 135 231 135 231 94 c 0,0,1
EndSplineSet
EndChar

StartChar: slash
Encoding: 47 47 18
Width: 1299
GlyphClass: 2
Flags: W
LayerCount: 2
Fore
SplineSet
197 34 m 1,0,-1
 81 120 l 1,1,-1
 1085 1471 l 1,2,-1
 1201 1385 l 1,3,-1
 197 34 l 1,0,-1
EndSplineSet
EndChar

StartChar: zero
Encoding: 48 48 19
Width: 1221
GlyphClass: 2
Flags: W
LayerCount: 2
Fore
SplineSet
179 887 m 1,0,-1
 173 1450 l 1,1,-1
 36 1389 l 1,2,-1
 42 814 l 1,3,-1
 179 887 l 1,0,-1
1141 187 m 1,4,-1
 1136 750 l 1,5,-1
 999 689 l 1,6,-1
 1004 114 l 1,7,-1
 1141 187 l 1,4,-1
204 187 m 1,8,-1
 198 750 l 1,9,-1
 61 689 l 1,10,-1
 67 114 l 1,11,-1
 204 187 l 1,8,-1
225 0 m 1,12,-1
 985 0 l 1,13,-1
 903 138 l 1,14,-1
 129 138 l 1,15,-1
 225 0 l 1,12,-1
1166 862 m 1,16,-1
 1161 1425 l 1,17,-1
 1024 1364 l 1,18,-1
 1029 789 l 1,19,-1
 1166 862 l 1,16,-1
263 1388 m 1,20,-1
 1022 1388 l 1,21,-1
 941 1525 l 1,22,-1
 166 1525 l 1,23,-1
 263 1388 l 1,20,-1
EndSplineSet
EndChar

StartChar: one
Encoding: 49 49 20
Width: 1185
GlyphClass: 2
Flags: W
LayerCount: 2
Fore
SplineSet
1068 167 m 1,0,-1
 1063 730 l 1,1,-1
 926 669 l 1,2,-1
 931 94 l 1,3,-1
 1068 167 l 1,0,-1
1068 822 m 1,4,-1
 1063 1385 l 1,5,-1
 926 1324 l 1,6,-1
 931 749 l 1,7,-1
 1068 822 l 1,4,-1
EndSplineSet
EndChar

StartChar: two
Encoding: 50 50 21
Width: 1209
GlyphClass: 2
Flags: W
LayerCount: 2
Fore
SplineSet
204 187 m 1,0,-1
 198 750 l 1,1,-1
 61 689 l 1,2,-1
 67 114 l 1,3,-1
 204 187 l 1,0,-1
225 0 m 1,4,-1
 985 0 l 1,5,-1
 903 138 l 1,6,-1
 129 138 l 1,7,-1
 225 0 l 1,4,-1
1151 857 m 1,8,-1
 1146 1420 l 1,9,-1
 1009 1359 l 1,10,-1
 1014 784 l 1,11,-1
 1151 857 l 1,8,-1
238 750 m 1,12,-1
 998 750 l 1,13,-1
 916 888 l 1,14,-1
 141 888 l 1,15,-1
 238 750 l 1,12,-1
263 1388 m 1,16,-1
 1022 1388 l 1,17,-1
 941 1525 l 1,18,-1
 166 1525 l 1,19,-1
 263 1388 l 1,16,-1
EndSplineSet
EndChar

StartChar: three
Encoding: 51 51 22
Width: 1209
GlyphClass: 2
Flags: W
LayerCount: 2
Fore
SplineSet
1131 192 m 1,0,-1
 1126 755 l 1,1,-1
 989 694 l 1,2,-1
 994 119 l 1,3,-1
 1131 192 l 1,0,-1
160 0 m 1,4,-1
 920 0 l 1,5,-1
 838 138 l 1,6,-1
 64 138 l 1,7,-1
 160 0 l 1,4,-1
1121 887 m 1,8,-1
 1116 1450 l 1,9,-1
 979 1389 l 1,10,-1
 984 814 l 1,11,-1
 1121 887 l 1,8,-1
173 750 m 1,12,-1
 933 750 l 1,13,-1
 851 888 l 1,14,-1
 76 888 l 1,15,-1
 173 750 l 1,12,-1
198 1388 m 1,16,-1
 957 1388 l 1,17,-1
 876 1525 l 1,18,-1
 101 1525 l 1,19,-1
 198 1388 l 1,16,-1
EndSplineSet
EndChar

StartChar: four
Encoding: 52 52 23
Width: 1226
GlyphClass: 2
Flags: W
LayerCount: 2
Fore
SplineSet
132 882 m 1,0,-1
 134 1455 l 1,1,-1
 -3 1394 l 1,2,-1
 3 819 l 1,3,-1
 132 882 l 1,0,-1
1156 212 m 1,4,-1
 1156 775 l 1,5,-1
 1019 714 l 1,6,-1
 1019 139 l 1,7,-1
 1156 212 l 1,4,-1
1172 921 m 1,8,-1
 1171 1474 l 1,9,-1
 1033 1415 l 1,10,-1
 1034 845 l 1,11,-1
 1172 921 l 1,8,-1
238 750 m 1,12,-1
 998 750 l 1,13,-1
 916 888 l 1,14,-1
 141 888 l 1,15,-1
 238 750 l 1,12,-1
EndSplineSet
EndChar

StartChar: five
Encoding: 53 53 24
Width: 1189
GlyphClass: 2
Flags: W
LayerCount: 2
Fore
SplineSet
1141 187 m 1,0,-1
 1136 750 l 1,1,-1
 999 689 l 1,2,-1
 1004 114 l 1,3,-1
 1141 187 l 1,0,-1
225 0 m 1,4,-1
 985 0 l 1,5,-1
 903 138 l 1,6,-1
 129 138 l 1,7,-1
 225 0 l 1,4,-1
238 750 m 1,8,-1
 998 750 l 1,9,-1
 916 888 l 1,10,-1
 179 888 l 1,11,-1
 173 1450 l 1,12,-1
 36 1389 l 1,13,-1
 42 814 l 1,14,-1
 152 873 l 1,15,-1
 238 750 l 1,8,-1
263 1388 m 1,16,-1
 1022 1388 l 1,17,-1
 941 1525 l 1,18,-1
 166 1525 l 1,19,-1
 263 1388 l 1,16,-1
EndSplineSet
EndChar

StartChar: six
Encoding: 54 54 25
Width: 1219
GlyphClass: 2
Flags: W
LayerCount: 2
Fore
SplineSet
1141 187 m 1,0,-1
 1136 750 l 1,1,-1
 999 689 l 1,2,-1
 1004 114 l 1,3,-1
 1141 187 l 1,0,-1
204 187 m 1,4,-1
 198 750 l 1,5,-1
 61 689 l 1,6,-1
 67 114 l 1,7,-1
 204 187 l 1,4,-1
225 0 m 1,8,-1
 985 0 l 1,9,-1
 903 138 l 1,10,-1
 129 138 l 1,11,-1
 225 0 l 1,8,-1
238 750 m 1,12,-1
 998 750 l 1,13,-1
 916 888 l 1,14,-1
 179 888 l 1,15,-1
 173 1450 l 1,16,-1
 36 1389 l 1,17,-1
 42 814 l 1,18,-1
 152 873 l 1,19,-1
 238 750 l 1,12,-1
263 1388 m 1,20,-1
 1022 1388 l 1,21,-1
 941 1525 l 1,22,-1
 166 1525 l 1,23,-1
 263 1388 l 1,20,-1
EndSplineSet
EndChar

StartChar: seven
Encoding: 55 55 26
Width: 1196
GlyphClass: 2
Flags: W
LayerCount: 2
Fore
SplineSet
1031 187 m 1,0,-1
 1026 750 l 1,1,-1
 889 689 l 1,2,-1
 894 114 l 1,3,-1
 1031 187 l 1,0,-1
1056 862 m 1,4,-1
 1051 1425 l 1,5,-1
 914 1364 l 1,6,-1
 919 789 l 1,7,-1
 1056 862 l 1,4,-1
153 1388 m 1,8,-1
 912 1388 l 1,9,-1
 831 1525 l 1,10,-1
 56 1525 l 1,11,-1
 153 1388 l 1,8,-1
EndSplineSet
EndChar

StartChar: eight
Encoding: 56 56 27
Width: 1168
GlyphClass: 2
Flags: W
LayerCount: 2
Fore
SplineSet
1141 187 m 1,0,-1
 1136 750 l 1,1,-1
 999 689 l 1,2,-1
 1004 114 l 1,3,-1
 1141 187 l 1,0,-1
204 187 m 1,4,-1
 198 750 l 1,5,-1
 61 689 l 1,6,-1
 67 114 l 1,7,-1
 204 187 l 1,4,-1
225 0 m 1,8,-1
 985 0 l 1,9,-1
 903 138 l 1,10,-1
 129 138 l 1,11,-1
 225 0 l 1,8,-1
1166 862 m 1,12,-1
 1161 1425 l 1,13,-1
 1024 1364 l 1,14,-1
 1029 789 l 1,15,-1
 1166 862 l 1,12,-1
238 750 m 1,16,-1
 998 750 l 1,17,-1
 916 888 l 1,18,-1
 179 888 l 1,19,-1
 173 1450 l 1,20,-1
 36 1389 l 1,21,-1
 42 814 l 1,22,-1
 152 873 l 1,23,-1
 238 750 l 1,16,-1
263 1388 m 1,24,-1
 1022 1388 l 1,25,-1
 941 1525 l 1,26,-1
 166 1525 l 1,27,-1
 263 1388 l 1,24,-1
EndSplineSet
EndChar

StartChar: nine
Encoding: 57 57 28
Width: 1187
GlyphClass: 2
Flags: W
LayerCount: 2
Fore
SplineSet
179 887 m 1,0,-1
 173 1450 l 1,1,-1
 36 1389 l 1,2,-1
 42 814 l 1,3,-1
 179 887 l 1,0,-1
1141 187 m 1,4,-1
 1136 750 l 1,5,-1
 999 689 l 1,6,-1
 1004 114 l 1,7,-1
 1141 187 l 1,4,-1
225 0 m 1,8,-1
 985 0 l 1,9,-1
 903 138 l 1,10,-1
 129 138 l 1,11,-1
 225 0 l 1,8,-1
1166 862 m 1,12,-1
 1161 1425 l 1,13,-1
 1024 1364 l 1,14,-1
 1029 789 l 1,15,-1
 1166 862 l 1,12,-1
233 691 m 1,16,-1
 993 691 l 1,17,-1
 911 829 l 1,18,-1
 136 829 l 1,19,-1
 233 691 l 1,16,-1
263 1388 m 1,20,-1
 1022 1388 l 1,21,-1
 941 1525 l 1,22,-1
 166 1525 l 1,23,-1
 263 1388 l 1,20,-1
EndSplineSet
EndChar

StartChar: colon
Encoding: 58 58 29
Width: 784
GlyphClass: 2
Flags: W
LayerCount: 2
Fore
SplineSet
272 224 m 0,0,1
 272 182 272 182 244.5 145.5 c 128,-1,2
 217 109 217 109 171 109 c 0,3,4
 117 109 117 109 89.5 142.5 c 128,-1,5
 62 176 62 176 62 224 c 0,6,7
 62 269 62 269 89.5 304.5 c 128,-1,8
 117 340 117 340 171 340 c 0,9,10
 217 340 217 340 244.5 306.5 c 128,-1,11
 272 273 272 273 272 224 c 0,0,1
330 1103 m 0,12,13
 330 1052 330 1052 296.5 1008 c 128,-1,14
 263 964 263 964 207 964 c 0,15,16
 142 964 142 964 108.5 1004.5 c 128,-1,17
 75 1045 75 1045 75 1103 c 0,18,19
 75 1159 75 1159 108.5 1202 c 128,-1,20
 142 1245 142 1245 207 1245 c 0,21,22
 263 1245 263 1245 296.5 1204.5 c 128,-1,23
 330 1164 330 1164 330 1103 c 0,12,13
EndSplineSet
EndChar

StartChar: semicolon
Encoding: 59 59 30
Width: 899
GlyphClass: 2
Flags: W
LayerCount: 2
Fore
SplineSet
288 424 m 1,0,-1
 143 236 l 1,1,2
 532 389 532 389 387.5 496.5 c 128,-1,3
 243 604 243 604 288 424 c 1,0,-1
398 1214 m 0,4,5
 398 1177 398 1177 374 1145.5 c 128,-1,6
 350 1114 350 1114 310 1114 c 0,7,8
 263 1114 263 1114 239 1143 c 128,-1,9
 215 1172 215 1172 215 1214 c 0,10,11
 215 1254 215 1254 239 1284.5 c 128,-1,12
 263 1315 263 1315 310 1315 c 0,13,14
 350 1315 350 1315 374 1286 c 128,-1,15
 398 1257 398 1257 398 1214 c 0,4,5
EndSplineSet
EndChar

StartChar: less
Encoding: 60 60 31
Width: 860
GlyphClass: 2
Flags: W
LayerCount: 2
Fore
SplineSet
15 710 m 1,0,-1
 715 1310 l 1,1,-1
 775 1220 l 1,2,-1
 185 690 l 1,3,-1
 785 80 l 1,4,-1
 695 0 l 1,5,-1
 15 710 l 1,0,-1
EndSplineSet
EndChar

StartChar: equal
Encoding: 61 61 32
Width: 1229
GlyphClass: 2
Flags: W
LayerCount: 2
Fore
SplineSet
198 969 m 1,0,-1
 975 969 l 1,1,-1
 892 1140 l 1,2,-1
 100 1140 l 1,3,-1
 198 969 l 1,0,-1
243 334 m 1,4,-1
 1020 334 l 1,5,-1
 937 505 l 1,6,-1
 145 505 l 1,7,-1
 243 334 l 1,4,-1
EndSplineSet
EndChar

StartChar: greater
Encoding: 62 62 33
Width: 1300
GlyphClass: 2
Flags: W
LayerCount: 2
Fore
SplineSet
1175 700 m 1,0,-1
 475 1300 l 1,1,-1
 415 1210 l 1,2,-1
 1005 680 l 1,3,-1
 405 70 l 1,4,-1
 495 -10 l 1,5,-1
 1175 700 l 1,0,-1
EndSplineSet
EndChar

StartChar: question
Encoding: 63 63 34
Width: 1089
GlyphClass: 2
Flags: W
LayerCount: 2
Fore
SplineSet
642 201.5 m 128,-1,1
 623 225 623 225 592 225 c 0,2,3
 554 225 554 225 536 203 c 128,-1,4
 518 181 518 181 518 147 c 128,-1,5
 518 113 518 113 537 92 c 128,-1,6
 556 71 556 71 592 71 c 0,7,8
 661 71 661 71 661 145 c 0,9,0
 661 178 661 178 642 201.5 c 128,-1,1
715 134 m 0,10,11
 715 -4 715 -4 586 -4 c 0,12,13
 519 -4 519 -4 484 35.5 c 128,-1,14
 449 75 449 75 449 138 c 0,15,16
 449 200 449 200 482 242 c 128,-1,17
 515 284 515 284 586 284 c 0,18,19
 644 284 644 284 679.5 240 c 128,-1,20
 715 196 715 196 715 134 c 0,10,11
571.5 1348.5 m 128,-1,22
 558 1365 558 1365 536 1365 c 0,23,24
 509 1365 509 1365 496 1349 c 128,-1,25
 483 1333 483 1333 483 1309 c 128,-1,26
 483 1285 483 1285 496.5 1270 c 128,-1,27
 510 1255 510 1255 536 1255 c 0,28,29
 585 1255 585 1255 585 1308 c 0,30,21
 585 1332 585 1332 571.5 1348.5 c 128,-1,22
1057 1422 m 0,31,32
 1057 1234 1057 1234 815.5 996.5 c 128,-1,33
 574 759 574 759 574 680 c 0,34,35
 574 605 574 605 615 550 c 0,36,37
 628 534 628 534 657 513 c 1,38,-1
 519 421 l 1,39,40
 486 459 486 459 474 484 c 0,41,42
 424 571 424 571 424 671 c 0,43,44
 424 801 424 801 749 1138 c 0,45,46
 899 1292 899 1292 899 1422 c 0,47,48
 899 1526 899 1526 817.5 1611.5 c 128,-1,49
 736 1697 736 1697 632 1697 c 128,-1,50
 528 1697 528 1697 455 1640.5 c 128,-1,51
 382 1584 382 1584 365 1505 c 0,52,53
 353 1442 353 1442 382 1405 c 0,54,55
 399 1384 399 1384 432 1372 c 1,56,57
 461 1426 461 1426 524 1426 c 0,58,59
 640 1426 640 1426 640 1305 c 0,60,61
 640 1242 640 1242 594.5 1207 c 128,-1,62
 549 1172 549 1172 478 1172 c 0,63,64
 382 1172 382 1172 307 1247 c 0,65,66
 211 1342 211 1342 211 1501 c 0,67,68
 211 1647 211 1647 338 1749 c 128,-1,69
 465 1851 465 1851 628 1851 c 0,70,71
 811 1851 811 1851 934 1728 c 128,-1,72
 1057 1605 1057 1605 1057 1422 c 0,31,32
EndSplineSet
EndChar

StartChar: at
Encoding: 64 64 35
Width: 1499
GlyphClass: 2
Flags: W
LayerCount: 2
Fore
SplineSet
704 646 m 1,0,-1
 368 541 l 1,1,-1
 353 302 l 1,2,-1
 465 55 l 1,3,-1
 697 25 l 1,4,-1
 936 227 l 1,5,-1
 1018 70 l 1,6,-1
 1213 47 l 1,7,8
 1280 558 1280 558 1025 857 c 128,-1,9
 770 1156 770 1156 484.5 1070 c 128,-1,10
 199 984 199 984 81.5 612 c 128,-1,11
 -36 240 -36 240 418 -175 c 1,12,-1
 603 -120 l 1,13,14
 60 200 60 200 171 540.5 c 128,-1,15
 282 881 282 881 530 941 c 0,16,17
 777 1001 777 1001 956.5 743.5 c 128,-1,18
 1136 486 1136 486 1086 152 c 1,19,-1
 861 519 l 1,20,-1
 779 459 l 1,21,-1
 884 298 l 1,22,-1
 712 160 l 1,23,-1
 585 167 l 1,24,-1
 487 324 l 1,25,-1
 510 504 l 1,26,-1
 719 579 l 1,27,-1
 704 646 l 1,0,-1
EndSplineSet
EndChar

StartChar: A
Encoding: 65 65 36
Width: 1229
GlyphClass: 2
Flags: W
LayerCount: 2
Fore
SplineSet
623 877 m 1,0,-1
 504 1285 l 1,1,-1
 397 879 l 1,2,-1
 623 877 l 1,0,-1
711 729 m 1,3,-1
 367 728 l 1,4,-1
 205 -29 l 1,5,-1
 8 -29 l 1,6,-1
 317 1276 l 1,7,-1
 15 1276 l 1,8,-1
 -182 1408 l 1,9,-1
 968 1410 l 1,10,-1
 1081 1275 l 1,11,-1
 696 1279 l 1,12,-1
 1155 -27 l 1,13,-1
 950 -27 l 1,14,-1
 711 729 l 1,3,-1
EndSplineSet
EndChar

StartChar: B
Encoding: 66 66 37
Width: 1451
GlyphClass: 2
Flags: W
LayerCount: 2
Fore
SplineSet
621 1227 m 1,0,-1
 369 1229 l 1,1,-1
 375 104 l 1,2,-1
 566 102 l 1,3,-1
 607 102 l 1,4,5
 914 109 914 109 964 188 c 128,-1,6
 1014 267 1014 267 942.5 359.5 c 128,-1,7
 871 452 871 452 747 525.5 c 128,-1,8
 623 599 623 599 586 592 c 1,9,-1
 588 750 l 1,10,11
 937 791 937 791 1010.5 948.5 c 128,-1,12
 1084 1106 1084 1106 621 1227 c 1,0,-1
971 1266 m 1,13,14
 1125 1188 1125 1188 1150.5 1093.5 c 128,-1,15
 1176 999 1176 999 1128 914.5 c 128,-1,16
 1080 830 1080 830 987 769 c 128,-1,17
 894 708 894 708 814 696 c 1,18,19
 814 682 814 682 809.5 686.5 c 128,-1,20
 805 691 805 691 805 680 c 1,21,22
 1076 553 1076 553 1109.5 334.5 c 128,-1,23
 1143 116 1143 116 842 4 c 1,24,-1
 486 7 l 1,25,-1
 373 4 l 1,26,-1
 232 2 l 1,27,-1
 228 1262 l 1,28,-1
 25 1246 l 1,29,-1
 -114 1380 l 1,30,-1
 1383 1380 l 1,31,-1
 1571 1271 l 1,32,-1
 971 1266 l 1,13,14
EndSplineSet
EndChar

StartChar: C
Encoding: 67 67 38
Width: 1457
GlyphClass: 2
Flags: W
LayerCount: 2
Fore
SplineSet
843 609 m 0,0,1
 768 615 768 615 716.5 682 c 128,-1,2
 665 749 665 749 665 831 c 0,3,4
 665 911 665 911 716.5 969 c 128,-1,5
 768 1027 768 1027 846 1030 c 1,6,7
 1024 980 1024 980 1016 1097.5 c 128,-1,8
 1008 1215 1008 1215 760 1273 c 1,9,-1
 640 1268 l 1,10,11
 265 1019 265 1019 258 737 c 128,-1,12
 251 455 251 455 582 176 c 1,13,14
 658 154 658 154 735.5 163 c 128,-1,15
 813 172 813 172 893 172 c 1,16,17
 978 167 978 167 1040.5 266.5 c 128,-1,18
 1103 366 1103 366 1099 416 c 1,19,20
 1127 393 1127 393 1159 374 c 128,-1,21
 1191 355 1191 355 1220 339 c 1,22,23
 1166 236 1166 236 1091.5 150.5 c 128,-1,24
 1017 65 1017 65 893 33 c 1,25,-1
 481 46 l 1,26,27
 162 393 162 393 117 710 c 128,-1,28
 72 1027 72 1027 481 1275 c 1,29,-1
 59 1276 l 1,30,-1
 -124 1400 l 1,31,-1
 1329 1391 l 1,32,-1
 1465 1283 l 1,33,-1
 1024 1281 l 1,34,35
 1080 1232 1080 1232 1101 1179 c 128,-1,36
 1122 1126 1122 1126 1136 1083 c 0,37,38
 1163 980 1163 980 1067 786 c 128,-1,39
 971 592 971 592 843 609 c 0,0,1
850 902 m 0,40,41
 734 902 734 902 734 793 c 0,42,43
 734 680 734 680 850 680 c 0,44,45
 964 680 964 680 964 793 c 0,46,47
 964 902 964 902 850 902 c 0,40,41
EndSplineSet
EndChar

StartChar: D
Encoding: 68 68 39
Width: 1551
GlyphClass: 2
Flags: W
LayerCount: 2
Fore
SplineSet
558 244 m 1,0,1
 671 156 671 156 902.5 245.5 c 128,-1,2
 1134 335 1134 335 1122 568 c 1,3,4
 1150 798 1150 798 1071.5 918 c 128,-1,5
 993 1038 993 1038 889.5 1091.5 c 128,-1,6
 786 1145 786 1145 701 1150 c 2,7,-1
 640 1154 l 1,8,-1
 562 1154 l 1,9,-1
 558 1161 l 1,10,-1
 558 244 l 1,0,1
588 55 m 1,11,-1
 342 57 l 1,12,-1
 342 1247 l 1,13,-1
 8 1251 l 1,14,-1
 -153 1380 l 1,15,-1
 1444 1380 l 1,16,-1
 1606 1251 l 1,17,-1
 858 1251 l 1,18,19
 987 1240 987 1240 1046.5 1189.5 c 128,-1,20
 1106 1139 1106 1139 1159 1049 c 1,21,22
 1268 961 1268 961 1280.5 775.5 c 128,-1,23
 1293 590 1293 590 1216 411.5 c 128,-1,24
 1139 233 1139 233 980 116.5 c 128,-1,25
 821 0 821 0 588 55 c 1,11,-1
EndSplineSet
EndChar

StartChar: E
Encoding: 69 69 40
Width: 1654
GlyphClass: 2
Flags: W
LayerCount: 2
Fore
SplineSet
1528 694 m 1,0,-1
 745 694 l 1,1,-1
 745 205 l 1,2,-1
 1520 205 l 1,3,-1
 1694 20 l 1,4,-1
 1231 20 l 1,5,-1
 770 18 l 1,6,-1
 518 20 l 1,7,-1
 518 1380 l 1,8,-1
 176 1382 l 1,9,-1
 10 1530 l 1,10,-1
 1645 1530 l 1,11,-1
 1819 1374 l 1,12,-1
 748 1374 l 1,13,-1
 745 866 l 1,14,-1
 1362 866 l 1,15,-1
 1528 694 l 1,0,-1
EndSplineSet
EndChar

StartChar: F
Encoding: 70 70 41
Width: 1483
GlyphClass: 2
Flags: W
LayerCount: 2
Fore
SplineSet
1516 686 m 1,0,-1
 739 686 l 1,1,-1
 739 201 l 1,2,-1
 741 20 l 1,3,-1
 514 18 l 1,4,-1
 514 1366 l 1,5,-1
 174 1370 l 1,6,-1
 10 1516 l 1,7,-1
 1632 1516 l 1,8,-1
 1804 1362 l 1,9,-1
 741 1362 l 1,10,-1
 739 856 l 1,11,-1
 1352 856 l 1,12,-1
 1516 686 l 1,0,-1
EndSplineSet
EndChar

StartChar: G
Encoding: 71 71 42
Width: 1578
GlyphClass: 2
Flags: W
LayerCount: 2
Fore
SplineSet
976 913 m 0,0,1
 864 913 864 913 864 831 c 0,2,3
 864 751 864 751 976 751 c 0,4,5
 1087 751 1087 751 1087 831 c 0,6,7
 1087 913 1087 913 976 913 c 0,0,1
1296 315 m 1,8,-1
 893 35 l 1,9,-1
 670 33 l 1,10,11
 434 195 434 195 277.5 358.5 c 128,-1,12
 121 522 121 522 94.5 689 c 128,-1,13
 68 856 68 856 198 1030 c 128,-1,14
 328 1204 328 1204 670 1382 c 1,15,-1
 3 1384 l 1,16,-1
 -168 1538 l 1,17,-1
 1488 1532 l 1,18,-1
 1658 1376 l 1,19,-1
 897 1376 l 1,20,21
 643 1208 643 1208 466 1056.5 c 128,-1,22
 289 905 289 905 315 731 c 1,23,24
 410 573 410 573 515.5 450.5 c 128,-1,25
 621 328 621 328 728.5 291 c 128,-1,26
 836 254 836 254 944.5 335 c 128,-1,27
 1053 416 1053 416 1153 668 c 1,28,29
 1065 678 1065 678 943 650.5 c 128,-1,30
 821 623 821 623 805 711 c 0,31,32
 760 936 760 936 868.5 984 c 128,-1,33
 977 1032 977 1032 1104 958.5 c 128,-1,34
 1231 885 1231 885 1312 710 c 128,-1,35
 1393 535 1393 535 1296 315 c 1,8,-1
EndSplineSet
EndChar

StartChar: H
Encoding: 72 72 43
Width: 1406
GlyphClass: 2
Flags: W
LayerCount: 2
Fore
SplineSet
851 649 m 1,0,-1
 843 1331 l 1,1,-1
 775 1335 l 1,2,-1
 710 1540 l 1,3,-1
 1152 1540 l 1,4,-1
 1265 1331 l 1,5,-1
 992 1333 l 1,6,-1
 994 -47 l 1,7,-1
 833 26 l 1,8,-1
 837 448 l 1,9,-1
 284 649 l 1,10,-1
 284 -66 l 1,11,-1
 132 12 l 1,12,-1
 132 1325 l 1,13,-1
 56 1335 l 1,14,-1
 -50 1528 l 1,15,-1
 405 1528 l 1,16,-1
 501 1337 l 1,17,-1
 284 1337 l 1,18,-1
 284 889 l 1,19,-1
 851 649 l 1,0,-1
EndSplineSet
EndChar

StartChar: I
Encoding: 73 73 44
Width: 690
GlyphClass: 2
Flags: W
LayerCount: 2
Fore
SplineSet
262 78 m 1,0,-1
 264 1389 l 1,1,-1
 109 1391 l 1,2,-1
 23 1542 l 1,3,-1
 569 1542 l 1,4,-1
 641 1391 l 1,5,-1
 420 1389 l 1,6,-1
 420 -4 l 1,7,-1
 262 78 l 1,0,-1
EndSplineSet
EndChar

StartChar: J
Encoding: 74 74 45
Width: 764
GlyphClass: 2
Flags: W
LayerCount: 2
Fore
SplineSet
424 43 m 1,0,-1
 66 492 l 2,1,2
 59 498 59 498 90 515 c 128,-1,3
 121 532 121 532 164 520 c 1,4,5
 225 492 225 492 286.5 418 c 128,-1,6
 348 344 348 344 424 270 c 1,7,-1
 424 1358 l 1,8,-1
 301 1358 l 1,9,-1
 211 1516 l 1,10,-1
 657 1513 l 1,11,-1
 756 1356 l 1,12,-1
 578 1356 l 1,13,-1
 582 -45 l 1,14,-1
 424 43 l 1,0,-1
EndSplineSet
EndChar

StartChar: K
Encoding: 75 75 46
Width: 1290
GlyphClass: 2
Flags: W
LayerCount: 2
Fore
SplineSet
1237 1401 m 1,0,-1
 418 864 l 1,1,-1
 418 782 l 1,2,-1
 1442 -12 l 1,3,-1
 1069 111 l 1,4,-1
 428 645 l 1,5,-1
 428 2 l 1,6,-1
 240 90 l 1,7,-1
 240 313 l 1,8,-1
 246 1399 l 1,9,-1
 90 1397 l 1,10,-1
 10 1534 l 1,11,-1
 535 1534 l 1,12,-1
 631 1393 l 1,13,-1
 422 1393 l 1,14,-1
 418 1034 l 1,15,-1
 1071 1397 l 1,16,-1
 967 1397 l 1,17,-1
 870 1538 l 1,18,-1
 1321 1536 l 1,19,-1
 1411 1401 l 1,20,-1
 1237 1401 l 1,0,-1
EndSplineSet
EndChar

StartChar: L
Encoding: 76 76 47
Width: 1444
GlyphClass: 2
Flags: W
LayerCount: 2
Fore
SplineSet
501 1391 m 1,0,-1
 499 195 l 1,1,2
 581 160 581 160 658.5 162 c 128,-1,3
 736 164 736 164 841 164 c 2,4,-1
 1228 160 l 1,5,-1
 1429 0 l 1,6,-1
 841 6 l 1,7,-1
 288 4 l 1,8,-1
 288 1391 l 1,9,-1
 87 1391 l 1,10,-1
 -52 1530 l 1,11,-1
 730 1530 l 1,12,-1
 913 1391 l 1,13,-1
 501 1391 l 1,0,-1
EndSplineSet
EndChar

StartChar: M
Encoding: 77 77 48
Width: 1817
GlyphClass: 2
Flags: W
LayerCount: 2
Fore
SplineSet
1601 1475 m 1,0,-1
 1601 84 l 1,1,-1
 1398 82 l 1,2,-1
 1394 1254 l 1,3,-1
 972 983 l 1,4,-1
 774 983 l 1,5,-1
 423 1262 l 1,6,-1
 423 78 l 1,7,-1
 229 82 l 1,8,-1
 229 1454 l 1,9,-1
 30 1454 l 1,10,-1
 -107 1591 l 1,11,-1
 665 1591 l 1,12,-1
 845 1454 l 1,13,-1
 425 1454 l 1,14,-1
 876 1122 l 1,15,-1
 1396 1469 l 1,16,-1
 1261 1466 l 1,17,-1
 1110 1598 l 1,18,-1
 1744 1596 l 1,19,-1
 1896 1466 l 1,20,-1
 1601 1475 l 1,0,-1
EndSplineSet
EndChar

StartChar: N
Encoding: 78 78 49
Width: 1750
GlyphClass: 2
Flags: W
LayerCount: 2
Fore
SplineSet
1599 1463 m 1,0,-1
 1599 72 l 1,1,-1
 1396 72 l 1,2,-1
 1421 82 l 1,3,-1
 421 1250 l 1,4,-1
 421 66 l 1,5,-1
 229 72 l 1,6,-1
 229 1440 l 1,7,-1
 30 1440 l 1,8,-1
 -107 1579 l 1,9,-1
 665 1579 l 1,10,-1
 845 1440 l 1,11,-1
 425 1440 l 1,12,-1
 1384 375 l 1,13,-1
 1386 1461 l 1,14,-1
 1261 1454 l 1,15,-1
 1110 1586 l 1,16,-1
 1742 1583 l 1,17,-1
 1894 1454 l 1,18,-1
 1599 1463 l 1,0,-1
EndSplineSet
EndChar

StartChar: O
Encoding: 79 79 50
Width: 1270
GlyphClass: 2
Flags: W
LayerCount: 2
Fore
SplineSet
1051 1415 m 1,0,-1
 1300 1415 l 1,1,-1
 1190 1544 l 1,2,-1
 152 1544 l 1,3,-1
 281 1415 l 1,4,-1
 701 1412 l 1,5,6
 820 1421 820 1421 1051 1415 c 1,0,-1
794 1269 m 0,7,8
 691 1276 691 1276 602 1203 c 128,-1,9
 513 1130 513 1130 438.5 1012 c 128,-1,10
 364 894 364 894 357 754 c 128,-1,11
 350 614 350 614 395.5 482 c 128,-1,12
 441 350 441 350 533.5 273.5 c 128,-1,13
 626 197 626 197 731 190 c 0,14,15
 836 184 836 184 937 250.5 c 128,-1,16
 1038 317 1038 317 1099.5 441.5 c 128,-1,17
 1161 566 1161 566 1168 706 c 0,18,19
 1175 848 1175 848 1128.5 981 c 128,-1,20
 1082 1114 1082 1114 989.5 1189 c 128,-1,21
 897 1264 897 1264 794 1269 c 0,7,8
701 1412 m 1,22,-1
 1049 1409 l 1,23,24
 1120 1323 1120 1323 1216.5 1192 c 128,-1,25
 1313 1061 1313 1061 1327 874.5 c 128,-1,26
 1341 688 1341 688 1280 516 c 0,27,28
 1217 342 1217 342 1089 209 c 128,-1,29
 961 76 961 76 803 34 c 128,-1,30
 645 -8 645 -8 508 41 c 0,31,32
 369 90 369 90 274.5 223 c 128,-1,33
 180 356 180 356 167 540.5 c 128,-1,34
 154 725 154 725 217 899 c 0,35,36
 279 1073 279 1073 408 1206 c 128,-1,37
 537 1339 537 1339 579 1383 c 0,38,39
 598 1403 598 1403 701 1412 c 1,22,-1
EndSplineSet
EndChar

StartChar: P
Encoding: 80 80 51
Width: 1403
GlyphClass: 2
Flags: W
LayerCount: 2
Fore
SplineSet
5 1345 m 1,0,-1
 195 1370 l 1,1,-1
 185 1350 l 1,2,-1
 205 20 l 1,3,-1
 405 10 l 1,4,-1
 395 630 l 1,5,6
 825 500 825 500 1055 880 c 1,7,8
 1185 1190 1185 1190 875 1360 c 1,9,-1
 735 1360 l 1,10,-1
 855 1180 l 1,11,12
 865 920 865 920 665 800 c 1,13,-1
 435 800 l 1,14,-1
 435 810 l 1,15,-1
 405 1360 l 1,16,-1
 1383 1365 l 1,17,-1
 1179 1550 l 1,18,-1
 -200 1550 l 1,19,-1
 5 1345 l 1,0,-1
EndSplineSet
EndChar

StartChar: Q
Encoding: 81 81 52
Width: 1387
GlyphClass: 2
Flags: W
LayerCount: 2
Fore
SplineSet
782 1309 m 0,0,1
 668 1317 668 1317 569.5 1236 c 128,-1,2
 471 1155 471 1155 388 1024 c 128,-1,3
 305 893 305 893 297 737 c 0,4,5
 289 582 289 582 340 435.5 c 128,-1,6
 391 289 391 289 493.5 204 c 128,-1,7
 596 119 596 119 713 111 c 0,8,9
 829 104 829 104 1009 276 c 1,10,-1
 1014 282 l 1,11,12
 1152 385 1152 385 1194 606 c 1,13,-1
 1198 684 l 2,14,15
 1206 842 1206 842 1154 989.5 c 128,-1,16
 1102 1137 1102 1137 999.5 1220 c 128,-1,17
 897 1303 897 1303 782 1309 c 0,0,1
1051 1415 m 1,18,-1
 1300 1415 l 1,19,-1
 1190 1544 l 1,20,-1
 -31 1544 l 1,21,-1
 98 1400 l 1,22,-1
 644 1405 l 1,23,24
 756 1423 756 1423 1051 1415 c 1,18,-1
1014 282 m 2,25,-1
 1067 337 l 1,26,-1
 775 391 l 1,27,-1
 488 253 l 1,28,-1
 542 208 l 1,29,-1
 775 322 l 1,30,-1
 1008 277 l 2,31,32
 1011 279 1011 279 1014 282 c 2,25,-1
644 1405 m 1,33,-1
 1049 1409 l 1,34,35
 1120 1323 1120 1323 1216.5 1192 c 128,-1,36
 1313 1061 1313 1061 1327 874.5 c 128,-1,37
 1341 688 1341 688 1280 516 c 2,38,-1
 1208 315 l 1,39,-1
 1246 302 l 1,40,-1
 1285 248 l 1,41,-1
 1335 149 l 1,42,-1
 1404 337 l 1,43,-1
 1434 317 l 1,44,-1
 1369 10 l 1,45,-1
 1241 158 l 1,46,-1
 1132 228 l 1,47,48
 1059 144 1059 144 1010 110 c 128,-1,49
 961 76 961 76 803 34 c 128,-1,50
 645 -8 645 -8 508 41 c 0,51,52
 369 90 369 90 274.5 223 c 128,-1,53
 180 356 180 356 167 540.5 c 128,-1,54
 154 725 154 725 217 899 c 0,55,56
 279 1073 279 1073 408 1206 c 128,-1,57
 537 1339 537 1339 579 1383 c 0,58,59
 592 1397 592 1397 644 1405 c 1,33,-1
EndSplineSet
EndChar

StartChar: R
Encoding: 82 82 53
Width: 1541
GlyphClass: 2
Flags: W
LayerCount: 2
Fore
SplineSet
5 1345 m 1,0,-1
 195 1370 l 1,1,-1
 185 1350 l 1,2,-1
 205 20 l 1,3,-1
 405 10 l 1,4,-1
 395 630 l 1,5,-1
 556 555 l 1,6,-1
 562 549 l 1,7,-1
 1032 5 l 1,8,-1
 1480 -1 l 1,9,-1
 1147 84 l 1,10,-1
 671 624 l 1,11,12
 964 520 964 520 1150 830 c 1,13,14
 1184 1184 1184 1184 886 1354 c 1,15,-1
 1623 1345 l 1,16,-1
 1449 1550 l 1,17,-1
 -200 1550 l 1,18,-1
 5 1345 l 1,0,-1
738 1356 m 1,19,-1
 855 1180 l 1,20,21
 1065 790 1065 790 665 800 c 1,22,-1
 435 800 l 1,23,-1
 435 810 l 1,24,-1
 405 1360 l 1,25,-1
 738 1356 l 1,19,-1
EndSplineSet
EndChar

StartChar: S
Encoding: 83 83 54
Width: 1584
GlyphClass: 2
Flags: W
LayerCount: 2
Fore
SplineSet
23 1347 m 1,0,-1
 745 1347 l 1,1,-1
 787 1315 l 1,2,3
 495 1246 495 1246 431.5 1114 c 128,-1,4
 368 982 368 982 447.5 852 c 128,-1,5
 527 722 527 722 744 650 c 128,-1,6
 961 578 961 578 1018.5 469.5 c 128,-1,7
 1076 361 1076 361 1069 303.5 c 128,-1,8
 1062 246 1062 246 975 159 c 128,-1,9
 888 72 888 72 513 101 c 1,10,-1
 253 246 l 1,11,-1
 166 130 l 1,12,-1
 339 14 l 1,13,-1
 907 -7 l 1,14,15
 1235 130 1235 130 1257 296 c 128,-1,16
 1279 462 1279 462 1156 556 c 128,-1,17
 1033 650 1033 650 867 708 c 128,-1,18
 701 766 701 766 643 867 c 128,-1,19
 585 968 585 968 657 1069 c 1,20,-1
 831 1199 l 1,21,-1
 1076 1214 l 1,22,-1
 1235 1069 l 1,23,-1
 1293 1156 l 1,24,-1
 1134 1329 l 1,25,-1
 1641 1347 l 1,26,-1
 1554 1450 l 1,27,-1
 1467 1552 l 1,28,-1
 -182 1552 l 1,29,-1
 23 1347 l 1,0,-1
EndSplineSet
EndChar

StartChar: T
Encoding: 84 84 55
Width: 1555
GlyphClass: 2
Flags: W
LayerCount: 2
Fore
SplineSet
2 1339 m 1,0,-1
 638 1336 l 1,1,-1
 638 0 l 1,2,-1
 827 0 l 1,3,-1
 827 1326 l 1,4,-1
 832 1339 l 1,5,-1
 1620 1339 l 1,6,-1
 1446 1544 l 1,7,-1
 -203 1544 l 1,8,-1
 2 1339 l 1,0,-1
EndSplineSet
EndChar

StartChar: U
Encoding: 85 85 56
Width: 1152
GlyphClass: 2
Flags: W
LayerCount: 2
Fore
SplineSet
248 1327 m 1,0,-1
 248 285 l 1,1,2
 502 77 502 77 815 263 c 1,3,-1
 807 1321 l 1,4,-1
 739 1325 l 1,5,-1
 674 1530 l 1,6,-1
 1116 1530 l 1,7,-1
 1229 1321 l 1,8,-1
 956 1323 l 1,9,-1
 958 239 l 1,10,11
 562 -191 562 -191 89 206 c 1,12,-1
 96 262 l 1,13,-1
 96 1315 l 1,14,-1
 20 1325 l 1,15,-1
 -86 1518 l 1,16,-1
 369 1518 l 1,17,-1
 465 1327 l 1,18,-1
 248 1327 l 1,0,-1
EndSplineSet
EndChar

StartChar: V
Encoding: 86 86 57
Width: 1234
GlyphClass: 2
Flags: W
LayerCount: 2
Fore
SplineSet
232 1337 m 1,0,-1
 522 588 l 1,1,-1
 791 1331 l 1,2,-1
 723 1335 l 1,3,-1
 658 1540 l 1,4,-1
 1100 1540 l 1,5,-1
 1213 1331 l 1,6,-1
 940 1333 l 1,7,-1
 506 12 l 1,8,-1
 80 1325 l 1,9,-1
 4 1335 l 1,10,-1
 -102 1528 l 1,11,-1
 353 1528 l 1,12,-1
 449 1337 l 1,13,-1
 232 1337 l 1,0,-1
EndSplineSet
EndChar

StartChar: W
Encoding: 87 87 58
Width: 1192
GlyphClass: 2
Flags: W
LayerCount: 2
Fore
SplineSet
274 1357 m 1,0,-1
 264 232 l 1,1,-1
 538 883 l 1,2,-1
 864 225 l 1,3,-1
 864 1319 l 1,4,-1
 765 1334 l 1,5,-1
 700 1560 l 1,6,-1
 1142 1560 l 1,7,-1
 1239 1325 l 1,8,-1
 1013 1369 l 1,9,-1
 1016 25 l 1,10,-1
 861 31 l 1,11,-1
 549 473 l 1,12,-1
 259 30 l 1,13,-1
 122 32 l 1,14,-1
 122 1345 l 1,15,-1
 46 1355 l 1,16,-1
 -60 1548 l 1,17,-1
 395 1548 l 1,18,-1
 491 1357 l 1,19,-1
 274 1357 l 1,0,-1
EndSplineSet
EndChar

StartChar: X
Encoding: 88 88 59
Width: 1388
GlyphClass: 2
Flags: W
LayerCount: 2
Fore
SplineSet
16 1310 m 1,0,-1
 195 1300 l 1,1,-1
 655 670 l 1,2,-1
 265 10 l 1,3,-1
 455 -10 l 1,4,-1
 765 490 l 1,5,-1
 1165 -10 l 1,6,-1
 1345 -20 l 1,7,-1
 865 680 l 1,8,-1
 1175 1300 l 1,9,-1
 1355 1320 l 1,10,-1
 1299 1530 l 1,11,-1
 770 1530 l 1,12,-1
 836 1320 l 1,13,-1
 975 1310 l 1,14,-1
 725 880 l 1,15,-1
 365 1310 l 1,16,-1
 535 1310 l 1,17,-1
 479 1520 l 1,18,-1
 -50 1520 l 1,19,-1
 16 1310 l 1,0,-1
EndSplineSet
EndChar

StartChar: Y
Encoding: 89 89 60
Width: 1208
GlyphClass: 2
Flags: W
LayerCount: 2
Fore
SplineSet
-4 1330 m 1,0,-1
 175 1320 l 1,1,-1
 635 690 l 1,2,-1
 635 30 l 1,3,-1
 845 -130 l 1,4,-1
 845 700 l 1,5,-1
 1155 1320 l 1,6,-1
 1335 1340 l 1,7,-1
 1279 1550 l 1,8,-1
 750 1550 l 1,9,-1
 816 1340 l 1,10,-1
 955 1330 l 1,11,-1
 705 900 l 1,12,-1
 345 1330 l 1,13,-1
 515 1330 l 1,14,-1
 459 1540 l 1,15,-1
 -70 1540 l 1,16,-1
 -4 1330 l 1,0,-1
EndSplineSet
EndChar

StartChar: Z
Encoding: 90 90 61
Width: 1549
GlyphClass: 2
Flags: W
LayerCount: 2
Fore
SplineSet
205 -5 m 1,0,-1
 1823 -5 l 1,1,-1
 1649 200 l 1,2,-1
 365 190 l 1,3,-1
 1365 1340 l 1,4,-1
 1653 1335 l 1,5,-1
 1479 1540 l 1,6,-1
 -170 1540 l 1,7,-1
 35 1335 l 1,8,-1
 1155 1340 l 1,9,-1
 145 170 l 1,10,-1
 0 200 l 1,11,-1
 205 -5 l 1,0,-1
EndSplineSet
EndChar

StartChar: bracketleft
Encoding: 91 91 62
Width: 802
GlyphClass: 2
Flags: W
LayerCount: 2
Fore
SplineSet
745 1400 m 1,0,-1
 595 1590 l 1,1,-1
 5 1590 l 1,2,-1
 5 0 l 1,3,-1
 615 0 l 1,4,-1
 750 185 l 1,5,-1
 210 190 l 1,6,-1
 210 1400 l 1,7,-1
 745 1400 l 1,0,-1
EndSplineSet
EndChar

StartChar: backslash
Encoding: 92 92 63
Width: 1309
GlyphClass: 2
Flags: W
LayerCount: 2
Fore
SplineSet
1085 34 m 1,0,-1
 1201 120 l 1,1,-1
 197 1471 l 1,2,-1
 81 1385 l 1,3,-1
 1085 34 l 1,0,-1
EndSplineSet
EndChar

StartChar: bracketright
Encoding: 93 93 64
Width: 800
GlyphClass: 2
Flags: W
LayerCount: 2
Fore
SplineSet
5 1400 m 1,0,-1
 155 1590 l 1,1,-1
 745 1590 l 1,2,-1
 745 0 l 1,3,-1
 175 0 l 1,4,-1
 20 185 l 1,5,-1
 540 190 l 1,6,-1
 540 1400 l 1,7,-1
 5 1400 l 1,0,-1
EndSplineSet
EndChar

StartChar: asciicircum
Encoding: 94 94 65
Width: 950
GlyphClass: 2
Flags: W
LayerCount: 2
Fore
SplineSet
-5 1010 m 1,0,-1
 455 1530 l 1,1,-1
 895 990 l 1,2,-1
 685 990 l 1,3,-1
 455 1300 l 1,4,-1
 195 1000 l 1,5,-1
 -5 1010 l 1,0,-1
EndSplineSet
EndChar

StartChar: underscore
Encoding: 95 95 66
Width: 1360
GlyphClass: 2
Flags: W
LayerCount: 2
Fore
SplineSet
-5 -146 m 1,0,-1
 1613 -146 l 1,1,-1
 1439 -26 l 1,2,-1
 -210 -26 l 1,3,-1
 -5 -146 l 1,0,-1
EndSplineSet
EndChar

StartChar: grave
Encoding: 96 96 67
Width: 570
GlyphClass: 2
Flags: W
LayerCount: 2
Fore
SplineSet
115 1169 m 1,0,-1
 220 1300 l 1,1,2
 508 986 508 986 521 960 c 1,3,-1
 416 855 l 1,4,-1
 115 1169 l 1,0,-1
EndSplineSet
EndChar

StartChar: a
Encoding: 97 97 68
Width: 915
GlyphClass: 2
Flags: W
LayerCount: 2
Fore
SplineSet
481 686 m 1,0,-1
 112 571 l 1,1,-1
 96 309 l 1,2,-1
 219 38 l 1,3,-1
 473 5 l 1,4,-1
 736 227 l 1,5,-1
 826 54 l 1,6,-1
 1039 30 l 1,7,-1
 1056 120 l 1,8,-1
 900 144 l 1,9,-1
 654 547 l 1,10,-1
 564 481 l 1,11,-1
 678 304 l 1,12,-1
 490 153 l 1,13,-1
 350 161 l 1,14,-1
 244 333 l 1,15,-1
 268 530 l 1,16,-1
 498 612 l 1,17,-1
 481 686 l 1,0,-1
EndSplineSet
EndChar

StartChar: b
Encoding: 98 98 69
Width: 810
GlyphClass: 2
Flags: W
LayerCount: 2
Fore
SplineSet
9 1352 m 1,0,-1
 208 1349 l 1,1,-1
 212 37 l 1,2,-1
 560 14 l 1,3,-1
 784 127 l 1,4,-1
 822 420 l 1,5,-1
 638 707 l 1,6,-1
 324 697 l 1,7,-1
 320 1341 l 1,8,-1
 591 1333 l 1,9,-1
 439 1540 l 1,10,-1
 -133 1550 l 1,11,-1
 9 1352 l 1,0,-1
566 571 m 1,12,-1
 688 357 l 1,13,-1
 581 189 l 1,14,-1
 321 204 l 1,15,-1
 306 556 l 1,16,-1
 566 571 l 1,12,-1
EndSplineSet
EndChar

StartChar: c
Encoding: 99 99 70
Width: 868
GlyphClass: 2
Flags: W
LayerCount: 2
Fore
SplineSet
866 557 m 1,0,-1
 629 704 l 1,1,2
 289 738 289 738 153.5 630.5 c 128,-1,3
 18 523 18 523 -5 319 c 1,4,5
 267 -9 267 -9 397 -20 c 128,-1,6
 527 -31 527 -31 855 240 c 1,7,-1
 708 319 l 1,8,9
 481 82 481 82 385 87.5 c 128,-1,10
 289 93 289 93 119 331 c 1,11,12
 142 478 142 478 227 551.5 c 128,-1,13
 312 625 312 625 595 580 c 1,14,-1
 776 500 l 1,15,-1
 866 557 l 1,0,-1
EndSplineSet
EndChar

StartChar: d
Encoding: 100 100 71
Width: 933
GlyphClass: 2
Flags: W
LayerCount: 2
Fore
SplineSet
896 1392 m 1,0,-1
 649 1394 l 1,1,-1
 636 33 l 1,2,-1
 270 9 l 1,3,-1
 60 126 l 1,4,-1
 25 430 l 1,5,-1
 255 742 l 1,6,-1
 491 702 l 1,7,-1
 494 1385 l 1,8,-1
 401 1377 l 1,9,-1
 253 1522 l 1,10,-1
 753 1527 l 1,11,-1
 896 1392 l 1,0,-1
256 541 m 1,12,-1
 143 344 l 1,13,-1
 242 189 l 1,14,-1
 481 203 l 1,15,-1
 495 527 l 1,16,-1
 256 541 l 1,12,-1
EndSplineSet
EndChar

StartChar: e1
Encoding: 101 101 72
Width: 1010
GlyphClass: 2
Flags: W
LayerCount: 2
Fore
SplineSet
237 230 m 1,0,-1
 865 594 l 1,1,-1
 303 759 l 1,2,-1
 17 506 l 1,3,-1
 -5 307 l 1,4,-1
 281 32 l 1,5,-1
 535 10 l 1,6,-1
 832 230 l 1,7,-1
 689 307 l 1,8,-1
 491 120 l 1,9,-1
 303 131 l 1,10,-1
 116 318 l 1,11,-1
 138 462 l 1,12,-1
 303 572 l 1,13,-1
 579 561 l 1,14,-1
 138 329 l 1,15,-1
 237 230 l 1,0,-1
EndSplineSet
EndChar

StartChar: f
Encoding: 102 102 73
Width: 834
GlyphClass: 2
Flags: W
LayerCount: 2
Fore
SplineSet
-55 1540 m 1,0,-1
 45 1410 l 1,1,-1
 375 1420 l 1,2,-1
 275 1190 l 1,3,-1
 165 1000 l 1,4,-1
 245 700 l 1,5,-1
 375 330 l 1,6,-1
 275 40 l 1,7,-1
 145 -10 l 1,8,-1
 135 -80 l 1,9,-1
 395 -40 l 1,10,-1
 515 230 l 1,11,-1
 385 640 l 1,12,-1
 655 630 l 1,13,-1
 655 790 l 1,14,-1
 365 750 l 1,15,-1
 285 960 l 1,16,-1
 395 1140 l 1,17,-1
 465 1420 l 1,18,-1
 835 1400 l 1,19,-1
 765 1540 l 1,20,-1
 -55 1540 l 1,0,-1
EndSplineSet
EndChar

StartChar: g
Encoding: 103 103 74
Width: 880
GlyphClass: 2
Flags: W
LayerCount: 2
Fore
SplineSet
444 700 m 1,0,-1
 108 588 l 1,1,-1
 93 331 l 1,2,-1
 205 67 l 1,3,-1
 437 35 l 1,4,-1
 676 251 l 1,5,-1
 448 -249 l 1,6,-1
 116 -47 l 1,7,-1
 73 -188 l 1,8,-1
 370 -396 l 1,9,-1
 538 -410 l 1,10,-1
 826 171 l 1,11,-1
 601 564 l 1,12,-1
 519 500 l 1,13,-1
 624 327 l 1,14,-1
 452 179 l 1,15,-1
 325 187 l 1,16,-1
 227 355 l 1,17,-1
 250 548 l 1,18,-1
 459 628 l 1,19,-1
 444 700 l 1,0,-1
EndSplineSet
EndChar

StartChar: h
Encoding: 104 104 75
Width: 809
GlyphClass: 2
Flags: W
LayerCount: 2
Fore
SplineSet
-1 1402 m 1,0,-1
 186 1399 l 1,1,-1
 189 -2 l 1,2,-1
 335 -16 l 1,3,-1
 335 481 l 1,4,-1
 548 458 l 1,5,-1
 574 -4 l 1,6,-1
 730 15 l 1,7,-1
 735 481 l 1,8,-1
 650 697 l 1,9,-1
 334 707 l 1,10,-1
 341 1400 l 1,11,-1
 544 1382 l 1,12,-1
 402 1597 l 1,13,-1
 -133 1607 l 1,14,-1
 -1 1402 l 1,0,-1
EndSplineSet
EndChar

StartChar: i
Encoding: 105 105 76
Width: 599
GlyphClass: 2
Flags: W
LayerCount: 2
Fore
SplineSet
300 1073.5 m 128,-1,1
 278 1100 278 1100 242 1100 c 0,2,3
 201 1100 201 1100 179 1072.5 c 128,-1,4
 157 1045 157 1045 157 1008 c 0,5,6
 157 972 157 972 179 945.5 c 128,-1,7
 201 919 201 919 242 919 c 0,8,9
 278 919 278 919 300 947.5 c 128,-1,10
 322 976 322 976 322 1008 c 0,11,0
 322 1047 322 1047 300 1073.5 c 128,-1,1
427 1008 m 0,12,13
 427 940 427 940 381 880 c 128,-1,14
 335 820 335 820 258 820 c 0,15,16
 171 820 171 820 125 875.5 c 128,-1,17
 79 931 79 931 79 1008 c 128,-1,18
 79 1085 79 1085 125 1142.5 c 128,-1,19
 171 1200 171 1200 258 1200 c 0,20,21
 335 1200 335 1200 381 1144.5 c 128,-1,22
 427 1089 427 1089 427 1008 c 0,12,13
162 -7 m 1,23,-1
 163 292 l 1,24,-1
 164 740 l 1,25,-1
 320 590 l 1,26,-1
 320 86 l 1,27,-1
 520 170 l 1,28,-1
 341 15 l 1,29,-1
 162 -7 l 1,23,-1
EndSplineSet
EndChar

StartChar: j
Encoding: 106 106 77
Width: 890
GlyphClass: 2
Flags: W
LayerCount: 2
Fore
SplineSet
610 1053.5 m 128,-1,1
 588 1080 588 1080 552 1080 c 0,2,3
 511 1080 511 1080 489 1052.5 c 128,-1,4
 467 1025 467 1025 467 988 c 0,5,6
 467 952 467 952 489 925.5 c 128,-1,7
 511 899 511 899 552 899 c 0,8,9
 588 899 588 899 610 927.5 c 128,-1,10
 632 956 632 956 632 988 c 0,11,0
 632 1027 632 1027 610 1053.5 c 128,-1,1
737 988 m 0,12,13
 737 920 737 920 691 860 c 128,-1,14
 645 800 645 800 568 800 c 0,15,16
 481 800 481 800 435 855.5 c 128,-1,17
 389 911 389 911 389 988 c 128,-1,18
 389 1065 389 1065 435 1122.5 c 128,-1,19
 481 1180 481 1180 568 1180 c 0,20,21
 645 1180 645 1180 691 1124.5 c 128,-1,22
 737 1069 737 1069 737 988 c 0,12,13
462 -287 m 1,23,-1
 463 262 l 1,24,-1
 484 710 l 1,25,-1
 620 560 l 1,26,-1
 620 -504 l 1,27,-1
 180 -310 l 1,28,-1
 11 -175 l 1,29,-1
 462 -287 l 1,23,-1
EndSplineSet
EndChar

StartChar: k
Encoding: 107 107 78
Width: 1108
GlyphClass: 2
Flags: W
LayerCount: 2
Fore
SplineSet
918 1168 m 1,0,-1
 294 659 l 1,1,-1
 289 533 l 1,2,-1
 875 10 l 1,3,-1
 724 1 l 1,4,-1
 280 418 l 1,5,-1
 280 24 l 1,6,-1
 169 111 l 1,7,-1
 162 1401 l 1,8,-1
 62 1399 l 1,9,-1
 10 1534 l 1,10,-1
 349 1534 l 1,11,-1
 411 1395 l 1,12,-1
 276 1395 l 1,13,-1
 279 816 l 1,14,-1
 680 1154 l 1,15,-1
 918 1168 l 1,0,-1
EndSplineSet
EndChar

StartChar: l
Encoding: 108 108 79
Width: 708
GlyphClass: 2
Flags: W
LayerCount: 2
Fore
SplineSet
144 31 m 1,0,-1
 145 1390 l 1,1,-1
 66 1392 l 1,2,-1
 -102 1547 l 1,3,-1
 367 1540 l 1,4,-1
 475 1390 l 1,5,-1
 301 1398 l 1,6,-1
 303 96 l 1,7,-1
 404 203 l 1,8,-1
 478 200 l 1,9,-1
 311 -47 l 1,10,-1
 144 31 l 1,0,-1
EndSplineSet
EndChar

StartChar: m
Encoding: 109 109 80
Width: 1378
GlyphClass: 2
Flags: W
LayerCount: 2
Fore
SplineSet
38 530 m 1,0,-1
 210 550 l 1,1,-1
 222 90 l 1,2,-1
 302 30 l 1,3,-1
 325 500 l 1,4,5
 531 650 531 650 680 500 c 1,6,-1
 692 100 l 1,7,-1
 784 20 l 1,8,-1
 818 528 l 1,9,-1
 841 510 l 1,10,11
 1048 660 1048 660 1197 510 c 1,12,-1
 1197 110 l 1,13,-1
 1300 30 l 1,14,-1
 1300 610 l 1,15,16
 1025 820 1025 820 709 625 c 1,17,18
 508 810 508 810 199 600 c 1,19,-1
 15 610 l 1,20,-1
 38 530 l 1,0,-1
EndSplineSet
EndChar

StartChar: n
Encoding: 110 110 81
Width: 789
GlyphClass: 2
Flags: W
LayerCount: 2
Fore
SplineSet
38 530 m 1,0,-1
 209 550 l 1,1,-1
 209 80 l 1,2,-1
 300 30 l 1,3,-1
 323 500 l 1,4,5
 529 650 529 650 677 500 c 1,6,-1
 689 100 l 1,7,-1
 780 20 l 1,8,-1
 780 600 l 1,9,10
 506 810 506 810 198 600 c 1,11,-1
 15 610 l 1,12,-1
 38 530 l 1,0,-1
EndSplineSet
EndChar

StartChar: o
Encoding: 111 111 82
Width: 910
GlyphClass: 2
Flags: W
LayerCount: 2
Fore
SplineSet
819 275 m 0,0,1
 758 164 758 164 614.5 77.5 c 128,-1,2
 471 -9 471 -9 320 12 c 0,3,4
 151 35 151 35 111.5 138 c 128,-1,5
 72 241 72 241 142 368 c 0,6,7
 211 494 211 494 353 576.5 c 128,-1,8
 495 659 495 659 664 636 c 0,9,10
 814 615 814 615 853.5 512 c 128,-1,11
 893 409 893 409 819 275 c 0,0,1
749.5 447 m 128,-1,13
 722 514 722 514 617 527 c 0,14,15
 499 543 499 543 400 489.5 c 128,-1,16
 301 436 301 436 253 353 c 0,17,18
 204 270 204 270 232 203 c 128,-1,19
 260 136 260 136 378 121 c 0,20,21
 483 107 483 107 583 163.5 c 128,-1,22
 683 220 683 220 726 292 c 0,23,12
 777 380 777 380 749.5 447 c 128,-1,13
EndSplineSet
EndChar

StartChar: p
Encoding: 112 112 83
Width: 1084
GlyphClass: 2
Flags: W
LayerCount: 2
Fore
SplineSet
430 685 m 1,0,-1
 865 440 l 1,1,-1
 925 210 l 1,2,-1
 835 40 l 1,3,-1
 565 -10 l 1,4,-1
 305 180 l 1,5,-1
 305 -400 l 1,6,-1
 195 -270 l 1,7,-1
 195 940 l 1,8,-1
 305 790 l 1,9,-1
 305 310 l 1,10,-1
 545 100 l 1,11,-1
 755 150 l 1,12,-1
 775 380 l 1,13,-1
 325 605 l 1,14,-1
 430 685 l 1,0,-1
EndSplineSet
EndChar

StartChar: q
Encoding: 113 113 84
Width: 1090
GlyphClass: 2
Flags: W
LayerCount: 2
Fore
SplineSet
305 560 m 1,0,-1
 95 420 l 1,1,-1
 35 190 l 1,2,-1
 125 20 l 1,3,-1
 395 -30 l 1,4,-1
 655 160 l 1,5,-1
 655 -420 l 1,6,-1
 765 -290 l 1,7,-1
 1172 -2 l 1,8,-1
 970 -45 l 1,9,-1
 778 -138 l 1,10,-1
 775 580 l 1,11,-1
 625 580 l 1,12,-1
 655 290 l 1,13,-1
 415 80 l 1,14,-1
 205 130 l 1,15,-1
 185 360 l 1,16,-1
 525 550 l 1,17,-1
 305 560 l 1,0,-1
EndSplineSet
EndChar

StartChar: r
Encoding: 114 114 85
Width: 696
GlyphClass: 2
Flags: W
LayerCount: 2
Fore
SplineSet
21 541 m 1,0,-1
 22 271 l 1,1,-1
 23 2 l 1,2,-1
 171 2 l 1,3,-1
 163 442 l 1,4,5
 398 600 398 600 342 482 c 1,6,7
 291 359 291 359 341 292.5 c 128,-1,8
 391 226 391 226 469 226 c 0,9,10
 539 226 539 226 590.5 276 c 128,-1,11
 642 326 642 326 634 396 c 1,12,13
 634 469 634 469 586.5 519 c 128,-1,14
 539 569 539 569 424 623 c 128,-1,15
 309 677 309 677 146 549 c 1,16,-1
 156 644 l 1,17,-1
 18 717 l 1,18,-1
 21 541 l 1,0,-1
562 398 m 0,19,20
 562 366 562 366 540 337.5 c 128,-1,21
 518 309 518 309 482 309 c 0,22,23
 441 309 441 309 419 335.5 c 128,-1,24
 397 362 397 362 397 398 c 0,25,26
 397 435 397 435 419 462.5 c 128,-1,27
 441 490 441 490 482 490 c 0,28,29
 518 490 518 490 540 463.5 c 128,-1,30
 562 437 562 437 562 398 c 0,19,20
EndSplineSet
EndChar

StartChar: s
Encoding: 115 115 86
Width: 779
GlyphClass: 2
Flags: W
LayerCount: 2
Fore
SplineSet
737 569 m 1,0,-1
 572 715 l 1,1,-1
 331 689 l 1,2,-1
 124 551 l 1,3,-1
 124 448 l 1,4,-1
 548 379 l 1,5,-1
 686 326 l 1,6,-1
 686 232 l 1,7,-1
 530 103 l 1,8,-1
 236 111 l 1,9,-1
 107 180 l 1,10,-1
 55 111 l 1,11,-1
 211 16 l 1,12,-1
 513 -10 l 1,13,-1
 789 162 l 1,14,-1
 779 326 l 1,15,-1
 617 448 l 1,16,-1
 314 482 l 1,17,-1
 305 559 l 1,18,-1
 487 620 l 1,19,-1
 625 534 l 1,20,-1
 737 569 l 1,0,-1
EndSplineSet
EndChar

StartChar: t
Encoding: 116 116 87
Width: 655
GlyphClass: 2
Flags: W
LayerCount: 2
Fore
SplineSet
20 1545 m 1,0,-1
 20 40 l 1,1,-1
 155 -70 l 1,2,-1
 485 150 l 1,3,-1
 405 180 l 1,4,-1
 150 100 l 1,5,-1
 155 1110 l 1,6,-1
 545 1110 l 1,7,-1
 480 1210 l 1,8,-1
 175 1210 l 1,9,-1
 175 1430 l 1,10,-1
 55 1530 l 1,11,-1
 20 1545 l 1,0,-1
EndSplineSet
EndChar

StartChar: u
Encoding: 117 117 88
Width: 1030
GlyphClass: 2
Flags: W
LayerCount: 2
Fore
SplineSet
1045 44 m 1,0,-1
 771 164 l 1,1,-1
 771 634 l 1,2,-1
 676 684 l 1,3,-1
 652 214 l 1,4,5
 437 64 437 64 282 214 c 1,6,-1
 270 614 l 1,7,-1
 175 694 l 1,8,-1
 175 114 l 1,9,10
 461 -96 461 -96 783 114 c 1,11,-1
 973 -6 l 1,12,-1
 1045 44 l 1,0,-1
EndSplineSet
EndChar

StartChar: v
Encoding: 118 118 89
Width: 900
GlyphClass: 2
Flags: W
LayerCount: 2
Fore
SplineSet
735 174 m 1,0,-1
 815 704 l 1,1,-1
 715 694 l 1,2,-1
 635 224 l 1,3,-1
 475 144 l 1,4,-1
 325 224 l 1,5,-1
 265 634 l 1,6,-1
 125 704 l 1,7,-1
 235 124 l 1,8,-1
 475 14 l 1,9,-1
 735 174 l 1,0,-1
EndSplineSet
EndChar

StartChar: w
Encoding: 119 119 90
Width: 1349
GlyphClass: 2
Flags: W
LayerCount: 2
Fore
SplineSet
1340 108 m 1,0,-1
 1129 188 l 1,1,-1
 1117 648 l 1,2,-1
 1035 708 l 1,3,-1
 1012 238 l 1,4,5
 801 88 801 88 648 238 c 1,6,-1
 636 638 l 1,7,-1
 543 718 l 1,8,-1
 507 210 l 1,9,-1
 484 228 l 1,10,11
 273 78 273 78 121 228 c 1,12,-1
 109 628 l 1,13,-1
 15 708 l 1,14,-1
 15 128 l 1,15,16
 296 -82 296 -82 619 113 c 1,17,18
 824 -72 824 -72 1141 138 c 1,19,-1
 1375 -22 l 1,20,-1
 1340 108 l 1,0,-1
EndSplineSet
EndChar

StartChar: x
Encoding: 120 120 91
Width: 1027
GlyphClass: 2
Flags: W
LayerCount: 2
Fore
SplineSet
63 598 m 1,0,-1
 69 705 l 1,1,-1
 497 355 l 1,2,-1
 859 648 l 1,3,-1
 788 700 l 1,4,-1
 1045 705 l 1,5,-1
 555 298 l 1,6,-1
 803 42 l 1,7,-1
 929 148 l 1,8,-1
 916 5 l 1,9,-1
 737 -5 l 1,10,-1
 484 248 l 1,11,-1
 176 0 l 1,12,-1
 20 -3 l 1,13,-1
 7 98 l 1,14,-1
 125 40 l 1,15,-1
 423 295 l 1,16,-1
 63 598 l 1,0,-1
EndSplineSet
EndChar

StartChar: y
Encoding: 121 121 92
Width: 967
GlyphClass: 2
Flags: W
LayerCount: 2
Fore
SplineSet
88 544 m 1,0,-1
 94 700 l 1,1,-1
 480 189 l 1,2,-1
 808 617 l 1,3,-1
 744 693 l 1,4,-1
 976 700 l 1,5,-1
 533 106 l 1,6,-1
 469 33 l 1,7,-1
 190 -329 l 1,8,-1
 49 -333 l 1,9,-1
 37 -186 l 1,10,-1
 143 -271 l 1,11,-1
 414 102 l 1,12,-1
 88 544 l 1,0,-1
EndSplineSet
EndChar

StartChar: z
Encoding: 122 122 93
Width: 1079
GlyphClass: 2
Flags: W
LayerCount: 2
Fore
SplineSet
-5 710 m 1,0,-1
 105 560 l 1,1,-1
 745 570 l 1,2,-1
 235 300 l 1,3,-1
 225 220 l 1,4,5
 645 80 645 80 670 -15 c 128,-1,6
 695 -110 695 -110 690 -195 c 128,-1,7
 685 -280 685 -280 600 -265 c 1,8,9
 247 -272 247 -272 455 40 c 1,10,-1
 265 40 l 1,11,12
 165 -180 165 -180 345 -420 c 1,13,-1
 775 -410 l 1,14,-1
 815 -350 l 2,15,16
 855 -290 855 -290 865 -215 c 128,-1,17
 875 -140 875 -140 825 -20 c 128,-1,18
 775 100 775 100 435 230 c 1,19,-1
 515 300 l 1,20,-1
 945 580 l 1,21,-1
 995 710 l 1,22,-1
 -5 710 l 1,0,-1
EndSplineSet
EndChar

StartChar: braceleft
Encoding: 123 123 94
Width: 529
GlyphClass: 2
Flags: W
LayerCount: 2
Fore
SplineSet
425 1470 m 1,0,1
 345 1530 345 1530 270 1535 c 128,-1,2
 195 1540 195 1540 145 1470 c 128,-1,3
 95 1400 95 1400 80 1320 c 128,-1,4
 65 1240 65 1240 110 1160 c 128,-1,5
 155 1080 155 1080 195 975 c 1,6,-1
 95 825 l 1,7,8
 215 780 215 780 215 680 c 128,-1,9
 215 580 215 580 185 465 c 128,-1,10
 155 350 155 350 115 270 c 128,-1,11
 75 190 75 190 205 10 c 1,12,-1
 395 -10 l 1,13,-1
 475 60 l 1,14,-1
 405 90 l 2,15,16
 255 150 255 150 255 220 c 128,-1,17
 255 290 255 290 290 435 c 128,-1,18
 325 580 325 580 335 680 c 128,-1,19
 345 780 345 780 255 860 c 1,20,21
 375 930 375 930 315 1025 c 128,-1,22
 255 1120 255 1120 230 1190 c 128,-1,23
 205 1260 205 1260 215 1310 c 128,-1,24
 225 1360 225 1360 250 1390 c 128,-1,25
 275 1420 275 1420 325 1420 c 128,-1,26
 375 1420 375 1420 425 1470 c 1,0,1
EndSplineSet
EndChar

StartChar: bar
Encoding: 124 124 95
Width: 609
GlyphClass: 2
Flags: W
LayerCount: 2
Fore
SplineSet
175 1380 m 1,0,-1
 325 1380 l 1,1,-1
 325 -130 l 1,2,-1
 175 -130 l 1,3,-1
 175 1380 l 1,0,-1
EndSplineSet
EndChar

StartChar: braceright
Encoding: 125 125 96
Width: 575
GlyphClass: 2
Flags: W
LayerCount: 2
Fore
SplineSet
37 1470 m 1,0,1
 117 1530 117 1530 192 1535 c 128,-1,2
 267 1540 267 1540 317 1470 c 128,-1,3
 367 1400 367 1400 382 1320 c 128,-1,4
 397 1240 397 1240 352 1160 c 128,-1,5
 307 1080 307 1080 267 975 c 1,6,-1
 367 825 l 1,7,8
 247 780 247 780 247 680 c 128,-1,9
 247 580 247 580 277 465 c 128,-1,10
 307 350 307 350 347 270 c 128,-1,11
 387 190 387 190 257 10 c 1,12,-1
 67 -10 l 1,13,-1
 -13 60 l 1,14,-1
 57 90 l 2,15,16
 207 150 207 150 207 220 c 128,-1,17
 207 290 207 290 172 435 c 128,-1,18
 137 580 137 580 127 680 c 128,-1,19
 117 780 117 780 207 860 c 1,20,21
 87 930 87 930 147 1025 c 128,-1,22
 207 1120 207 1120 232 1190 c 128,-1,23
 257 1260 257 1260 247 1310 c 128,-1,24
 237 1360 237 1360 212 1390 c 128,-1,25
 187 1420 187 1420 137 1420 c 128,-1,26
 87 1420 87 1420 37 1470 c 1,0,1
EndSplineSet
EndChar

StartChar: asciitilde
Encoding: 126 126 97
Width: 1179
GlyphClass: 2
Flags: W
LayerCount: 2
Fore
SplineSet
25 700 m 1,0,-1
 315 900 l 1,1,-1
 455 900 l 1,2,-1
 525 780 l 1,3,-1
 785 770 l 1,4,-1
 1065 960 l 1,5,-1
 1115 890 l 1,6,-1
 865 670 l 1,7,-1
 505 670 l 1,8,-1
 375 790 l 1,9,-1
 75 650 l 1,10,-1
 25 700 l 1,0,-1
EndSplineSet
EndChar

StartChar: danda
Encoding: 2404 2404 98
Width: 520
GlyphClass: 2
Flags: W
LayerCount: 2
Fore
SplineSet
239 976 m 1,0,-1
 266 20 l 1,1,-1
 385 126 l 1,2,-1
 357 1100 l 1,3,-1
 239 976 l 1,0,-1
EndSplineSet
EndChar

StartChar: doubledanda
Encoding: 2405 2405 99
Width: 870
GlyphClass: 2
Flags: W
LayerCount: 2
Fore
SplineSet
255 978 m 1,0,-1
 254 22 l 1,1,-1
 353 124 l 1,2,-1
 349 1096 l 1,3,-1
 255 978 l 1,0,-1
555 998 m 1,4,-1
 548 32 l 1,5,-1
 648 144 l 1,6,-1
 657 1116 l 1,7,-1
 555 998 l 1,4,-1
EndSplineSet
EndChar

StartChar: uni0980
Encoding: 2432 2432 100
Width: 920
GlyphClass: 2
Flags: W
LayerCount: 2
Fore
SplineSet
813 197 m 1,0,-1
 824 65 l 1,1,-1
 927 9 l 1,2,-1
 923 1066 l 2,3,4
 922 1382 922 1382 784 1514 c 0,5,6
 680 1613 680 1613 467 1613 c 0,7,8
 301 1613 301 1613 163 1495 c 128,-1,9
 25 1377 25 1377 31 1206 c 0,10,11
 33 1146 33 1146 70.5 1052.5 c 128,-1,12
 108 959 108 959 203.5 891 c 128,-1,13
 299 823 299 823 449 823 c 1,14,-1
 470 935 l 2,15,16
 470 937 470 937 275 988 c 0,17,18
 237 998 237 998 186 1126 c 0,19,20
 166 1176 166 1176 166 1221 c 0,21,22
 166 1341 166 1341 259 1434 c 128,-1,23
 352 1527 352 1527 501.5 1527 c 128,-1,24
 651 1527 651 1527 724 1440 c 0,25,26
 766 1390 766 1390 796.5 1311 c 128,-1,27
 827 1232 827 1232 813 1137 c 2,28,-1
 808 1103 l 1,29,-1
 809 1049 l 1,30,31
 800 1042 800 1042 813 933 c 1,32,-1
 813 197 l 1,0,-1
EndSplineSet
EndChar

StartChar: chandrabindu
Encoding: 2433 2433 101
Width: 0
GlyphClass: 4
Flags: W
AnchorPoint: "Anchor-0" -390 1410 mark 0
LayerCount: 2
Fore
SplineSet
-120 1751 m 1,0,1
 -120 1629 -120 1629 -164 1540 c 0,2,3
 -231 1412 -231 1412 -376 1412 c 0,4,5
 -472 1412 -472 1412 -548 1513 c 0,6,7
 -626 1615 -626 1615 -626 1751 c 1,8,-1
 -613 1784 l 1,9,10
 -591 1669 -591 1669 -568 1614 c 0,11,12
 -507 1491 -507 1491 -376 1491 c 0,13,14
 -222 1491 -222 1491 -166 1616 c 1,15,-1
 -134 1784 l 1,16,-1
 -120 1751 l 1,0,1
-282 1751 m 1,17,18
 -282 1701 -282 1701 -309 1668 c 1,19,20
 -333 1647 -333 1647 -376 1638 c 1,21,22
 -423 1638 -423 1638 -444 1671 c 0,23,24
 -466 1704 -466 1704 -473 1747 c 1,25,26
 -473 1788 -473 1788 -446 1821 c 1,27,-1
 -416 1848 l 1,28,-1
 -376 1860 l 1,29,30
 -336 1860 -336 1860 -309 1832 c 0,31,32
 -281 1800 -281 1800 -281 1751 c 1,33,-1
 -282 1751 l 1,17,18
-407 1788 m 2,34,35
 -409 1785 -409 1785 -414 1777.5 c 128,-1,36
 -419 1770 -419 1770 -422.5 1764 c 128,-1,37
 -426 1758 -426 1758 -426 1748 c 0,38,39
 -426 1728 -426 1728 -419.5 1717 c 128,-1,40
 -413 1706 -413 1706 -392 1706 c 0,41,42
 -330 1706 -330 1706 -330 1746 c 0,43,44
 -330 1747 -330 1747 -340 1780 c 1,45,-1
 -367 1798 l 1,46,-1
 -380 1802 l 1,47,-1
 -399 1793 l 1,48,-1
 -407 1788 l 2,34,35
EndSplineSet
EndChar

StartChar: anuswar
Encoding: 2434 2434 102
Width: 860
GlyphClass: 2
Flags: W
LayerCount: 2
Fore
SplineSet
594 1006 m 2,0,1
 576 897 576 897 506 818 c 0,2,3
 432 734 432 734 305 734 c 0,4,5
 226 734 226 734 164 802 c 0,6,7
 99 869 99 869 105 960 c 2,8,-1
 108 995 l 2,9,10
 117 1125 117 1125 214 1204 c 0,11,12
 299 1272 299 1272 405 1272 c 0,13,14
 483 1272 483 1272 541 1209 c 0,15,16
 611 1134 611 1134 601 1059 c 2,17,-1
 594 1006 l 2,0,1
620 30 m 1,18,-1
 122 484 l 1,19,-1
 122 687 l 1,20,-1
 735 53 l 1,21,-1
 620 30 l 1,18,-1
494 995 m 1,22,-1
 489 1059 l 2,23,24
 486 1108 486 1108 437 1151 c 0,25,26
 397 1184 397 1184 348 1184 c 0,27,28
 307 1184 307 1184 261 1139 c 0,29,30
 204 1080 204 1080 210 1024 c 2,31,-1
 216 954 l 2,32,33
 219 900 219 900 264 856 c 0,34,35
 301 818 301 818 338 818 c 0,36,37
 488 818 488 818 494 995 c 1,22,-1
EndSplineSet
EndChar

StartChar: bisarga
Encoding: 2435 2435 103
Width: 802
GlyphClass: 2
Flags: W
LayerCount: 2
Fore
SplineSet
535 313 m 1,0,-1
 534 354 l 2,1,2
 531 407 531 407 500 443 c 0,3,4
 467 478 467 478 429 486 c 1,5,6
 391 488 391 488 336 449 c 0,7,8
 281 408 281 408 266 332 c 1,9,-1
 268 294 l 2,10,11
 271 237 271 237 311 192 c 0,12,13
 341 164 341 164 379 153 c 1,14,15
 417 152 417 152 468 195 c 0,16,17
 518 237 518 237 535 313 c 1,0,-1
509 984 m 1,18,-1
 508 1025 l 2,19,20
 505 1079 505 1079 474 1114 c 0,21,22
 442 1149 442 1149 404 1158 c 1,23,24
 366 1160 366 1160 313 1121 c 0,25,26
 252 1075 252 1075 241 1004 c 2,27,-1
 236 963 l 1,28,29
 237 907 237 907 273 867 c 0,30,31
 307 827 307 827 345 826 c 0,32,33
 391 822 391 822 440 862 c 0,34,35
 496 904 496 904 509 984 c 1,18,-1
625 309 m 2,36,37
 610 209 610 209 536 142 c 0,38,39
 462 79 462 79 361 84 c 0,40,41
 290 87 290 87 234 149 c 0,42,43
 179 209 179 209 177 296 c 2,44,-1
 175 331 l 1,45,46
 184 427 184 427 269 497 c 0,47,48
 351 565 351 565 457 561 c 0,49,50
 527 557 527 557 576 495 c 0,51,52
 627 431 627 431 631 351 c 1,53,-1
 625 309 l 2,36,37
600 980 m 1,54,55
 586 878 586 878 509 814 c 128,-1,56
 432 750 432 750 329 755 c 0,57,58
 260 758 260 758 201 819 c 0,59,60
 145 882 145 882 143 969 c 1,61,-1
 144 1002 l 1,62,63
 156 1101 156 1101 239 1169 c 0,64,65
 319 1234 319 1234 425 1230 c 0,66,67
 493 1226 493 1226 543 1164 c 0,68,69
 567 1136 567 1136 583 1099 c 0,70,71
 596 1064 596 1064 599 1023 c 2,72,-1
 600 980 l 1,54,55
EndSplineSet
EndChar

StartChar: bna
Encoding: 2437 2437 104
Width: 1603
GlyphClass: 2
Flags: W
LayerCount: 2
Fore
SplineSet
1401 1301 m 1,0,-1
 807 1302 l 1,1,-1
 758 1301 l 1,2,3
 789 1295 789 1295 844 1282 c 0,4,5
 961 1255 961 1255 1021 1150 c 1,6,7
 1139 903 1139 903 1083 688 c 1,8,-1
 1403 333 l 1,9,-1
 1401 1301 l 1,0,-1
627 1139 m 1,10,11
 626 1206 626 1206 540 1207 c 1,12,13
 424 1193 424 1193 429 1112 c 1,14,15
 430 1018 430 1018 534 1022 c 1,16,17
 639 1018 639 1018 627 1139 c 1,10,11
515 1294 m 1,18,-1
 463 1293 l 1,19,-1
 1 1296 l 1,20,-1
 -106 1398 l 1,21,-1
 1503 1398 l 1,22,-1
 1600 1399 l 1,23,-1
 1700 1302 l 1,24,-1
 1501 1300 l 1,25,-1
 1501 658 l 1,26,-1
 1498 12 l 1,27,-1
 1360 249 l 1,28,-1
 1281 345 l 1,29,-1
 1058 571 l 1,30,31
 1016 539 1016 539 915 467 c 0,32,33
 812 394 812 394 721 394 c 0,34,35
 597 394 597 394 458 462 c 0,36,37
 284 547 284 547 63 817 c 1,38,-1
 12 1032 l 1,39,40
 227 758 227 758 345 655 c 0,41,42
 484 533 484 533 678 533 c 0,43,44
 815 533 815 533 909 616 c 0,45,46
 1004 697 1004 697 1004 819 c 0,47,48
 1004 889 1004 889 974 993 c 128,-1,49
 944 1097 944 1097 919 1148 c 0,50,51
 903 1175 903 1175 710 1209 c 1,52,-1
 717 1166 l 1,53,54
 741 929 741 929 535 937 c 1,55,56
 332 929 332 929 330 1113 c 1,57,58
 321 1260 321 1260 515 1294 c 1,18,-1
EndSplineSet
EndChar

StartChar: aa
Encoding: 2438 2438 105
Width: 1979
GlyphClass: 2
Flags: W
LayerCount: 2
Fore
SplineSet
1401 1297 m 1,0,-1
 807 1302 l 1,1,-1
 758 1301 l 1,2,3
 789 1295 789 1295 844 1282 c 0,4,5
 961 1255 961 1255 1021 1150 c 1,6,7
 1139 903 1139 903 1083 688 c 1,8,-1
 1403 333 l 1,9,-1
 1401 1297 l 1,0,-1
627 1139 m 1,10,11
 626 1206 626 1206 540 1207 c 1,12,13
 424 1193 424 1193 429 1112 c 1,14,15
 430 1018 430 1018 534 1022 c 1,16,17
 639 1018 639 1018 627 1139 c 1,10,11
515 1294 m 1,18,-1
 463 1293 l 1,19,-1
 1 1296 l 1,20,-1
 -106 1398 l 1,21,-1
 1503 1398 l 1,22,-1
 1752 1294 l 1,23,-1
 1752 1574 l 1,24,-1
 1848 1497 l 1,25,-1
 1859 1398 l 1,26,-1
 1990 1396 l 1,27,-1
 2101 1301 l 1,28,-1
 1853 1299 l 1,29,-1
 1856 0 l 1,30,-1
 1752 148 l 1,31,-1
 1746 1174 l 1,32,-1
 1504 1305 l 1,33,-1
 1498 12 l 1,34,-1
 1360 249 l 1,35,-1
 1281 345 l 1,36,-1
 1058 571 l 1,37,38
 1016 539 1016 539 915 467 c 0,39,40
 812 394 812 394 721 394 c 0,41,42
 597 394 597 394 458 462 c 0,43,44
 284 547 284 547 63 817 c 1,45,-1
 12 1032 l 1,46,47
 227 758 227 758 345 655 c 0,48,49
 484 533 484 533 678 533 c 0,50,51
 815 533 815 533 909 616 c 0,52,53
 1004 697 1004 697 1004 819 c 0,54,55
 1004 889 1004 889 974 993 c 128,-1,56
 944 1097 944 1097 919 1148 c 0,57,58
 903 1175 903 1175 710 1209 c 1,59,-1
 717 1166 l 1,60,61
 741 929 741 929 535 937 c 1,62,63
 332 929 332 929 330 1113 c 1,64,65
 321 1260 321 1260 515 1294 c 1,18,-1
EndSplineSet
EndChar

StartChar: bni
Encoding: 2439 2439 106
Width: 1109
GlyphClass: 2
Flags: W
LayerCount: 2
Fore
SplineSet
482 1124 m 1,0,1
 315 1194 315 1194 248.5 1113 c 128,-1,2
 182 1032 182 1032 330 933 c 0,3,4
 412 874 412 874 476 929.5 c 128,-1,5
 540 985 540 985 482 1124 c 1,0,1
522 1220 m 1,6,7
 611 1007 611 1007 593 962 c 128,-1,8
 575 917 575 917 536.5 882.5 c 128,-1,9
 498 848 498 848 432.5 838 c 128,-1,10
 367 828 367 828 247 870 c 1,11,12
 219 908 219 908 192.5 938.5 c 128,-1,13
 166 969 166 969 144 1112 c 0,14,15
 138 1172 138 1172 209 1219.5 c 128,-1,16
 280 1267 280 1267 403 1301 c 1,17,-1
 5 1309 l 1,18,-1
 -82 1400 l 1,19,-1
 772 1400 l 2,20,21
 811 1400 811 1400 847 1438 c 1,22,-1
 862 1479 l 1,23,24
 862 1550 862 1550 786 1576 c 0,25,26
 696 1605 696 1605 583 1601 c 0,27,28
 519 1598 519 1598 438 1596.5 c 128,-1,29
 357 1595 357 1595 294 1595 c 0,30,31
 214 1595 214 1595 147.5 1595 c 128,-1,32
 81 1595 81 1595 56 1649 c 0,33,34
 -15 1792 -15 1792 -16 1828 c 0,35,36
 -22 1884 -22 1884 71.5 1799 c 128,-1,37
 165 1714 165 1714 250 1714 c 0,38,39
 336 1714 336 1714 423 1714 c 128,-1,40
 510 1714 510 1714 595 1714 c 0,41,42
 679 1714 679 1714 741.5 1684 c 128,-1,43
 804 1654 804 1654 845 1619 c 0,44,45
 902 1566 902 1566 902 1484 c 0,46,47
 902 1430 902 1430 880 1400 c 1,48,-1
 1083 1400 l 1,49,-1
 1174 1309 l 1,50,-1
 503 1309 l 1,51,52
 630 1292 630 1292 710.5 1259 c 128,-1,53
 791 1226 791 1226 869 1118 c 0,54,55
 947 1008 947 1008 982 946 c 128,-1,56
 1017 884 1017 884 1017 771 c 0,57,58
 1017 586 1017 586 801 464 c 0,59,60
 719 416 719 416 652 399 c 0,61,62
 613 389 613 389 585 388 c 0,63,64
 262 422 262 422 394 362 c 1,65,-1
 595 365 l 1,66,67
 630 356 630 356 667 335.5 c 128,-1,68
 704 315 704 315 744 297 c 0,69,70
 762 285 762 285 782.5 273.5 c 128,-1,71
 803 262 803 262 817 254 c 0,72,73
 832 246 832 246 852 230.5 c 128,-1,74
 872 215 872 215 895 200 c 0,75,76
 1079 63 1079 63 1222 -118 c 1,77,-1
 1190 -183 l 1,78,79
 1104 -93 1104 -93 1023.5 1 c 128,-1,80
 943 95 943 95 824 144 c 2,81,-1
 665 207 l 1,82,-1
 480 263 l 1,83,-1
 249 309 l 1,84,-1
 128 486 l 1,85,-1
 236 520 l 1,86,87
 278 505 278 505 319.5 501 c 128,-1,88
 361 497 361 497 399 497 c 1,89,90
 570 467 570 467 743 551 c 1,91,92
 850 614 850 614 896.5 684 c 128,-1,93
 943 754 943 754 928 854 c 1,94,95
 925 940 925 940 823 1045.5 c 128,-1,96
 721 1151 721 1151 522 1220 c 1,6,7
EndSplineSet
EndChar

StartChar: ii
Encoding: 2440 2440 107
Width: 1385
GlyphClass: 2
Flags: W
LayerCount: 2
Fore
SplineSet
252 1228 m 0,0,1
 155 1299 155 1299 139 1204.5 c 128,-1,2
 123 1110 123 1110 162 1078 c 0,3,4
 185 1058 185 1058 274 1101.5 c 128,-1,5
 363 1145 363 1145 252 1228 c 0,0,1
411 1273 m 1,6,7
 419 1258 419 1258 431 1213 c 0,8,9
 452 1132 452 1132 445 1092 c 0,10,11
 439 1056 439 1056 303.5 1001.5 c 128,-1,12
 168 947 168 947 58 1005 c 1,13,14
 42 1027 42 1027 15 1094 c 128,-1,15
 -12 1161 -12 1161 12 1187 c 2,16,-1
 89 1277 l 1,17,-1
 62 1303 l 1,18,-1
 41 1303 l 1,19,-1
 5 1310 l 1,20,-1
 -83 1400 l 1,21,-1
 848 1400 l 2,22,23
 883 1400 883 1400 913 1419 c 0,24,25
 943 1439 943 1439 943 1481 c 0,26,27
 943 1548 943 1548 876 1571 c 0,28,29
 799 1597 799 1597 719 1597 c 0,30,31
 614 1597 614 1597 511 1591 c 128,-1,32
 408 1585 408 1585 303 1585 c 0,33,34
 134 1585 134 1585 26 1656 c 0,35,36
 -84 1726 -84 1726 -101 1833 c 128,-1,37
 -118 1940 -118 1940 -46 1878 c 1,38,39
 -78 1826 -78 1826 -58.5 1822.5 c 128,-1,40
 -39 1819 -39 1819 5 1772 c 0,41,42
 61 1711 61 1711 161 1713 c 0,43,44
 283 1715 283 1715 409 1721.5 c 128,-1,45
 535 1728 535 1728 659 1728 c 0,46,47
 739 1728 739 1728 803.5 1703 c 128,-1,48
 868 1678 868 1678 913 1647 c 0,49,50
 1007 1582 1007 1582 1007 1497 c 0,51,52
 1007 1443 1007 1443 971 1400 c 1,53,-1
 1219 1400 l 1,54,-1
 1306 1310 l 1,55,-1
 623 1310 l 1,56,-1
 608 1310 l 2,57,58
 604 1310 604 1310 640.5 1294.5 c 128,-1,59
 677 1279 677 1279 710 1238.5 c 128,-1,60
 743 1198 743 1198 748.5 1128 c 128,-1,61
 754 1058 754 1058 687 949 c 2,62,-1
 646 882 l 1,63,-1
 774 1009 l 2,64,65
 811 1045 811 1045 842 1072 c 128,-1,66
 873 1099 873 1099 891 1114 c 0,67,68
 932 1148 932 1148 975 1180 c 1,69,-1
 1130 1023 l 1,70,71
 954 827 954 827 928 756 c 0,72,73
 883 639 883 639 883 494 c 0,74,75
 883 411 883 411 920 321 c 128,-1,76
 957 231 957 231 1011 154 c 2,77,-1
 1171 -91 l 1,78,-1
 975 48 l 1,79,80
 925 89 925 89 873 225 c 0,81,82
 836 322 836 322 822 389 c 0,83,84
 805 486 805 486 805 543 c 0,85,86
 805 642 805 642 836 760 c 0,87,88
 864 870 864 870 909 941 c 1,89,90
 771 830 771 830 555 569 c 0,91,92
 417 405 417 405 283 175 c 1,93,94
 232 175 232 175 133.5 143.5 c 128,-1,95
 35 112 35 112 -15 104 c 0,96,97
 -72 94 -72 94 -26.5 125.5 c 128,-1,98
 19 157 19 157 97.5 201.5 c 128,-1,99
 176 246 176 246 286.5 433.5 c 128,-1,100
 397 621 397 621 468 728 c 1,101,-1
 553 820 l 1,102,-1
 574 869 l 1,103,104
 574 936 574 936 598.5 995.5 c 128,-1,105
 623 1055 623 1055 607 1120 c 0,106,107
 563 1293 563 1293 492 1278 c 0,108,109
 436 1265 436 1265 411 1273 c 1,6,7
EndSplineSet
EndChar

StartChar: bnu
Encoding: 2441 2441 108
Width: 1348
GlyphClass: 2
Flags: W
LayerCount: 2
Fore
SplineSet
1461 1290 m 1,0,-1
 746 1286 l 1,1,-1
 743 735 l 1,2,3
 757 715 757 715 801.5 686.5 c 128,-1,4
 846 658 846 658 887 660 c 1,5,6
 920 694 920 694 930.5 716 c 128,-1,7
 941 738 941 738 1011 828 c 2,8,-1
 1132 984 l 1,9,10
 1201 984 1201 984 1301 873 c 0,11,12
 1309 863 1309 863 1330.5 810 c 128,-1,13
 1352 757 1352 757 1357 732 c 0,14,15
 1361 709 1361 709 1360 677.5 c 128,-1,16
 1359 646 1359 646 1359 615 c 0,17,18
 1359 463 1359 463 1301 348.5 c 128,-1,19
 1243 234 1243 234 1155 159 c 0,20,21
 1015 36 1015 36 837 36 c 0,22,23
 556 36 556 36 369 293 c 0,24,25
 230 483 230 483 154 803 c 0,26,27
 100 1032 100 1032 100 1175 c 1,28,-1
 143 1159 l 1,29,30
 169 929 169 929 188 883 c 128,-1,31
 207 837 207 837 219 797 c 0,32,33
 236 738 236 738 281 620 c 0,34,35
 343 456 343 456 493 326 c 1,36,37
 642 191 642 191 813 191 c 0,38,39
 1015 191 1015 191 1150 315 c 0,40,41
 1283 436 1283 436 1283 615 c 2,42,-1
 1283 660 l 2,43,44
 1283 658 1283 658 1263 714 c 0,45,46
 1239 775 1239 775 1190 815 c 1,47,48
 1115 741 1115 741 1066 699 c 0,49,50
 1038 674 1038 674 1022 628.5 c 128,-1,51
 1006 583 1006 583 983 568 c 0,52,53
 931 533 931 533 880.5 527 c 128,-1,54
 830 521 830 521 798 521 c 0,55,56
 723 521 723 521 671 602 c 2,57,-1
 627 669 l 2,58,59
 611 694 611 694 611 738 c 2,60,-1
 617 1287 l 1,61,-1
 8 1289 l 1,62,-1
 -109 1390 l 1,63,-1
 1046 1385 l 1,64,-1
 1090 1385 l 2,65,66
 1094 1385 1094 1385 1098.5 1386.5 c 128,-1,67
 1103 1388 1103 1388 1106 1388 c 1,68,69
 1103 1388 1103 1388 1080 1404 c 1,70,71
 1172 1430 1172 1430 1157.5 1482 c 128,-1,72
 1143 1534 1143 1534 1008 1589 c 1,73,-1
 937 1591 l 1,74,-1
 848 1591 l 1,75,-1
 743 1565 l 1,76,-1
 613 1565 l 1,77,-1
 541 1565 l 1,78,-1
 461 1565 l 1,79,80
 214 1597 214 1597 164 1729.5 c 128,-1,81
 114 1862 114 1862 132 1940 c 1,82,83
 177 1798 177 1798 320 1730 c 1,84,-1
 527 1697 l 1,85,-1
 602 1697 l 1,86,-1
 679 1697 l 1,87,-1
 722 1697 l 1,88,-1
 867 1713 l 2,89,90
 981 1723 981 1723 1118 1637 c 1,91,92
 1233 1560 1233 1560 1233 1470 c 0,93,94
 1233 1434 1233 1434 1201 1385 c 1,95,-1
 1349 1390 l 1,96,-1
 1461 1290 l 1,0,-1
EndSplineSet
EndChar

StartChar: uu
Encoding: 2442 2442 109
Width: 1339
GlyphClass: 2
Flags: W
LayerCount: 2
Fore
SplineSet
672 1282 m 1,0,-1
 669 730 l 1,1,2
 683 710 683 710 727.5 681.5 c 128,-1,3
 772 653 772 653 813 655 c 1,4,5
 847 689 847 689 857.5 711 c 128,-1,6
 868 733 868 733 938 824 c 2,7,-1
 1059 980 l 1,8,9
 1128 980 1128 980 1229 868 c 0,10,11
 1237 858 1237 858 1258 805 c 128,-1,12
 1279 752 1279 752 1284 727 c 0,13,14
 1289 705 1289 705 1288 673 c 128,-1,15
 1287 641 1287 641 1287 610 c 0,16,17
 1287 458 1287 458 1228.5 343 c 128,-1,18
 1170 228 1170 228 1082 153 c 0,19,20
 942 30 942 30 763 30 c 1,21,-1
 554 62 l 1,22,23
 -68 217 -68 217 -211 875 c 1,24,-1
 -140 875 l 1,25,26
 34 336 34 336 321 235 c 1,27,28
 656 72 656 72 295 287 c 1,29,30
 178 478 178 478 79 798 c 1,31,32
 25 1028 25 1028 25 1171 c 1,33,-1
 68 1155 l 1,34,35
 94 925 94 925 113 879 c 128,-1,36
 132 833 132 833 144 793 c 0,37,38
 161 734 161 734 206 615 c 0,39,40
 268 451 268 451 418 320 c 0,41,42
 567 185 567 185 739 185 c 0,43,44
 941 185 941 185 1077 309 c 0,45,46
 1210 431 1210 431 1210 610 c 2,47,-1
 1210 655 l 2,48,49
 1210 653 1210 653 1190 709 c 0,50,51
 1166 770 1166 770 1117 810 c 1,52,53
 1042 736 1042 736 993 695 c 0,54,55
 965 669 965 669 949 623.5 c 128,-1,56
 933 578 933 578 909 563 c 0,57,58
 858 528 858 528 807.5 521.5 c 128,-1,59
 757 515 757 515 724 515 c 0,60,61
 649 515 649 515 597 597 c 2,62,-1
 553 664 l 2,63,64
 537 689 537 689 537 734 c 2,65,-1
 543 1271 l 1,66,-1
 547 1281 l 1,67,-1
 -1 1290 l 1,68,-1
 -118 1391 l 1,69,-1
 1039 1386 l 1,70,-1
 1061 1423 l 1,71,72
 1153 1449 1153 1449 1139 1501.5 c 128,-1,73
 1125 1554 1125 1554 989 1608 c 1,74,-1
 918 1610 l 1,75,-1
 828 1610 l 1,76,-1
 724 1585 l 1,77,-1
 594 1585 l 1,78,-1
 521 1585 l 1,79,-1
 441 1585 l 1,80,81
 194 1616 194 1616 144 1749 c 128,-1,82
 94 1882 94 1882 112 1960 c 1,83,84
 156 1817 156 1817 300 1750 c 1,85,-1
 507 1716 l 1,86,-1
 583 1716 l 1,87,-1
 659 1716 l 1,88,-1
 703 1716 l 1,89,-1
 848 1733 l 2,90,91
 962 1743 962 1743 1099 1656 c 0,92,93
 1215 1579 1215 1579 1215 1489 c 0,94,95
 1215 1453 1215 1453 1183 1405 c 1,96,-1
 1195 1386 l 1,97,-1
 1343 1391 l 1,98,-1
 1455 1291 l 1,99,-1
 738 1286 l 1,100,-1
 672 1282 l 1,0,-1
EndSplineSet
EndChar

StartChar: rri
Encoding: 2443 2443 110
Width: 1474
GlyphClass: 2
Flags: W
LayerCount: 2
Fore
SplineSet
951 23 m 1,0,-1
 832 29 l 1,1,2
 845 49 845 49 68 705 c 1,3,-1
 804 1161 l 1,4,5
 780 1198 780 1198 756 1223 c 0,6,7
 684 1287 684 1287 612 1287 c 1,8,9
 567 1236 567 1236 514 1203 c 0,10,11
 464 1173 464 1173 423 1130 c 0,12,13
 348 1057 348 1057 224 1082 c 0,14,15
 136 1098 136 1098 103 1119 c 0,16,17
 7 1173 7 1173 11 1256 c 0,18,19
 15 1330 15 1330 52 1378 c 0,20,21
 87 1426 87 1426 117 1429 c 0,22,23
 196 1442 196 1442 275 1385 c 0,24,25
 353 1327 353 1327 432 1299 c 1,26,-1
 434 1299 l 1,27,28
 480 1355 480 1355 519 1378 c 0,29,30
 555 1398 555 1398 569 1429 c 1,31,32
 614 1413 614 1413 690 1352 c 0,33,34
 799 1265 799 1265 840 1173 c 1,35,-1
 840 1552 l 1,36,-1
 952 1452 l 1,37,-1
 952 768 l 1,38,39
 975 739 975 739 1013 697 c 0,40,41
 1028 677 1028 677 1050.5 659 c 128,-1,42
 1073 641 1073 641 1090 621 c 2,43,-1
 1204 452 l 1,44,-1
 1214 1552 l 1,45,-1
 1307 1474 l 1,46,-1
 1318 1400 l 1,47,-1
 1476 1403 l 1,48,-1
 1574 1317 l 1,49,-1
 1313 1325 l 1,50,-1
 1313 30 l 1,51,52
 1301 26 1301 26 1210 281 c 0,53,54
 1119 532 1119 532 952 635 c 1,55,-1
 951 23 l 1,0,-1
872 183 m 1,56,-1
 872 1050 l 1,57,-1
 277 702 l 1,58,-1
 872 183 l 1,56,-1
294 1296 m 1,59,-1
 258 1305 l 2,60,61
 80 1352 80 1352 111 1251 c 0,62,63
 145 1142 145 1142 291 1175 c 1,64,-1
 341 1203 l 2,65,66
 387 1229 387 1229 362 1251 c 0,67,68
 325 1280 325 1280 294 1296 c 1,59,-1
EndSplineSet
EndChar

StartChar: lli
Encoding: 2444 2444 111
Width: 1189
GlyphClass: 2
Flags: W
LayerCount: 2
Fore
SplineSet
364 369 m 1,0,-1
 328 381 l 2,1,2
 150 444 150 444 181 309 c 0,3,4
 215 164 215 164 361 208 c 1,5,-1
 411 245 l 2,6,7
 457 280 457 280 432 309 c 0,8,9
 395 348 395 348 364 369 c 1,0,-1
178 452 m 1,10,11
 226 554 226 554 377 495.5 c 128,-1,12
 528 437 528 437 520 291 c 0,13,14
 516 254 516 254 454 180 c 128,-1,15
 392 106 392 106 363 94 c 0,16,17
 316 73 316 73 254 73 c 0,18,19
 182 73 182 73 109 163 c 0,20,21
 38 249 38 249 38 366 c 0,22,23
 38 537 38 537 126 654 c 0,24,25
 213 768 213 768 390 768 c 0,26,27
 557 768 557 768 657 630 c 0,28,29
 757 488 757 488 757 290 c 1,30,31
 828 290 828 290 902 370 c 0,32,33
 973 442 973 442 973 550 c 0,34,35
 973 677 973 677 887 771 c 0,36,37
 816 845 816 845 631 941 c 2,38,-1
 248 1135 l 1,39,-1
 85 1208 l 1,40,-1
 -6 1317 l 1,41,-1
 -6 1450 l 1,42,-1
 111 1334 l 2,43,44
 137 1308 137 1308 254 1245.5 c 128,-1,45
 371 1183 371 1183 505 1132 c 0,46,47
 757 1034 757 1034 880 939 c 0,48,49
 1056 797 1056 797 1056 592 c 0,50,51
 1056 377 1056 377 944 255 c 0,52,53
 880 185 880 185 777.5 100.5 c 128,-1,54
 675 16 675 16 572 16 c 1,55,-1
 621 163 l 1,56,-1
 631 236 l 2,57,58
 641 332 641 332 620 410.5 c 128,-1,59
 599 489 599 489 569 545 c 0,60,61
 496 677 496 677 354 677 c 0,62,63
 276 677 276 677 199 595 c 0,64,65
 131 525 131 525 178 452 c 1,10,11
EndSplineSet
EndChar

StartChar: bne
Encoding: 2447 2447 112
Width: 1406
GlyphClass: 2
Flags: W
LayerCount: 2
Fore
SplineSet
947 997 m 128,-1,1
 976 1033 976 1033 974 1077 c 128,-1,2
 972 1121 972 1121 941.5 1157.5 c 128,-1,3
 911 1194 911 1194 858 1194 c 0,4,5
 804 1194 804 1194 771.5 1157.5 c 128,-1,6
 739 1121 739 1121 735 1077 c 128,-1,7
 731 1033 731 1033 758.5 997 c 128,-1,8
 786 961 786 961 852 961 c 128,-1,0
 918 961 918 961 947 997 c 128,-1,1
816 1260 m 1,9,10
 843 1266 843 1266 913 1256 c 128,-1,11
 983 1246 983 1246 1029.5 1188.5 c 128,-1,12
 1076 1131 1076 1131 1057 1023.5 c 128,-1,13
 1038 916 1038 916 855 886 c 1,14,15
 617 889 617 889 649 1184 c 0,16,17
 661 1322 661 1322 837 1391 c 1,18,19
 830 1400 830 1400 1003 1400 c 0,20,21
 1102 1400 1102 1400 1169 1334 c 0,22,23
 1222 1279 1222 1279 1222 1236 c 2,24,-1
 1222 34 l 1,25,-1
 1173 61 l 1,26,27
 1157 217 1157 217 1074 284 c 1,28,29
 997 340 997 340 892 340 c 0,30,31
 791 340 791 340 711 304 c 0,32,33
 605 254 605 254 451 277.5 c 128,-1,34
 297 301 297 301 213 360 c 0,35,36
 48 476 48 476 48 753 c 0,37,38
 48 932 48 932 83.5 992.5 c 128,-1,39
 119 1053 119 1053 98 786 c 0,40,41
 83 598 83 598 200 497 c 0,42,43
 286 419 286 419 460 419 c 2,44,-1
 533 419 l 1,45,-1
 572 419 l 2,46,47
 588 420 588 420 600.5 424.5 c 128,-1,48
 613 429 613 429 620 430 c 2,49,-1
 777 446 l 1,50,51
 1003 464 1003 464 1132 272 c 1,52,-1
 1132 1236 l 2,53,54
 1132 1255 1132 1255 1102 1281 c 0,55,56
 1065 1311 1065 1311 1025 1314 c 0,57,58
 949 1314 949 1314 911.5 1321 c 128,-1,59
 874 1328 874 1328 816 1260 c 1,9,10
EndSplineSet
EndChar

StartChar: ai
Encoding: 2448 2448 113
Width: 1619
GlyphClass: 2
Flags: W
LayerCount: 2
Fore
SplineSet
1201 935 m 1,0,1
 1267 967 1267 967 1302 1072.5 c 128,-1,2
 1337 1178 1337 1178 1310 1271 c 128,-1,3
 1283 1364 1283 1364 1215 1414 c 128,-1,4
 1147 1464 1147 1464 1086 1412 c 1,5,6
 1043 1401 1043 1401 895.5 1451 c 128,-1,7
 748 1501 748 1501 670 1600 c 0,8,9
 594 1695 594 1695 578.5 1735 c 128,-1,10
 563 1775 563 1775 601 1819 c 0,11,12
 632 1856 632 1856 632 1850 c 128,-1,13
 632 1844 632 1844 643 1810.5 c 128,-1,14
 654 1777 654 1777 695.5 1723 c 128,-1,15
 737 1669 737 1669 853 1611 c 0,16,17
 983 1547 983 1547 1157 1535.5 c 128,-1,18
 1331 1524 1331 1524 1398 1418 c 0,19,20
 1511 1237 1511 1237 1483 1134 c 128,-1,21
 1455 1031 1455 1031 1375.5 965 c 128,-1,22
 1296 899 1296 899 1180 799 c 1,23,-1
 1151 807 l 1,24,-1
 1151 34 l 1,25,-1
 1105 60 l 1,26,27
 1089 206 1089 206 1012 268 c 0,28,29
 940 321 940 321 841 321 c 0,30,31
 746 321 746 321 671 288 c 0,32,33
 572 241 572 241 427 263 c 128,-1,34
 282 285 282 285 203 341 c 0,35,36
 48 449 48 449 48 709 c 0,37,38
 48 877 48 877 81 934.5 c 128,-1,39
 114 992 114 992 95 741 c 0,40,41
 81 563 81 563 191 469 c 0,42,43
 272 396 272 396 435 396 c 2,44,-1
 504 396 l 1,45,-1
 540 396 l 2,46,47
 555 397 555 397 566.5 401 c 128,-1,48
 578 405 578 405 586 406 c 2,49,-1
 733 421 l 1,50,51
 945 438 945 438 1066 258 c 1,52,-1
 1066 1163 l 2,53,54
 1066 1181 1066 1181 1038 1205 c 0,55,56
 1003 1234 1003 1234 966 1236 c 0,57,58
 894 1237 894 1237 859 1243 c 128,-1,59
 824 1249 824 1249 770 1186 c 1,60,61
 795 1191 795 1191 860.5 1181.5 c 128,-1,62
 926 1172 926 1172 969.5 1118.5 c 128,-1,63
 1013 1065 1013 1065 995.5 963.5 c 128,-1,64
 978 862 978 862 806 834 c 1,65,66
 582 838 582 838 612 1114 c 0,67,68
 624 1244 624 1244 790 1309 c 1,69,70
 783 1317 783 1317 945 1317 c 0,71,72
 1038 1317 1038 1317 1101 1255 c 0,73,74
 1151 1204 1151 1204 1151 1163 c 2,75,-1
 1151 959 l 1,76,-1
 1201 935 l 1,0,1
892.5 939 m 128,-1,78
 920 973 920 973 918 1014.5 c 128,-1,79
 916 1056 916 1056 887 1089.5 c 128,-1,80
 858 1123 858 1123 809 1123 c 0,81,82
 758 1123 758 1123 727.5 1089.5 c 128,-1,83
 697 1056 697 1056 693 1014.5 c 128,-1,84
 689 973 689 973 715 939 c 128,-1,85
 741 905 741 905 804 905 c 0,86,77
 865 905 865 905 892.5 939 c 128,-1,78
EndSplineSet
EndChar

StartChar: bno
Encoding: 2451 2451 114
Width: 1448
GlyphClass: 2
Flags: W
LayerCount: 2
Fore
SplineSet
584 1182 m 0,0,1
 506 1190 506 1190 468.5 1147 c 128,-1,2
 431 1104 431 1104 430 1047.5 c 128,-1,3
 429 991 429 991 461 941.5 c 128,-1,4
 493 892 493 892 555 890 c 0,5,6
 616 888 616 888 657.5 930 c 128,-1,7
 699 972 699 972 708.5 1024.5 c 128,-1,8
 718 1077 718 1077 690 1125 c 128,-1,9
 662 1173 662 1173 584 1182 c 0,0,1
1007 907 m 1,10,11
 949 811 949 811 1046.5 773 c 128,-1,12
 1144 735 1144 735 1184 792 c 0,13,14
 1213 834 1213 834 1158 882 c 128,-1,15
 1103 930 1103 930 1007 907 c 1,10,11
1293 880 m 2,16,17
 1268 829 1268 829 1332.5 771.5 c 128,-1,18
 1397 714 1397 714 1404 667 c 1,19,20
 1438 568 1438 568 1438 445 c 0,21,22
 1438 354 1438 354 1378 283 c 128,-1,23
 1318 212 1318 212 1257 166 c 0,24,25
 1146 81 1146 81 982 81 c 0,26,27
 711 81 711 81 474 334 c 0,28,29
 298 517 298 517 149 840 c 0,30,31
 62 1029 62 1029 11 1218 c 1,32,-1
 28 1201 l 1,33,-1
 160 944 l 2,34,35
 199 869 199 869 248.5 790 c 128,-1,36
 298 711 298 711 351 643 c 0,37,38
 474 476 474 476 587 386 c 0,39,40
 765 237 765 237 963 237 c 0,41,42
 1101 237 1101 237 1215 313 c 0,43,44
 1326 388 1326 388 1326 509 c 0,45,46
 1326 578 1326 578 1291 648 c 0,47,48
 1257 718 1257 718 1211 721 c 1,49,50
 1191 691 1191 691 1156 671 c 0,51,52
 1123 654 1123 654 1073 654 c 0,53,54
 995 654 995 654 951 709 c 0,55,56
 908 759 908 759 908 820 c 0,57,58
 908 920 908 920 949 964 c 0,59,60
 967 983 967 983 996 999 c 0,61,62
 1023 1010 1023 1010 1062 1010 c 0,63,64
 1131 1010 1131 1010 1208 944 c 1,65,66
 1227 952 1227 952 1234 966 c 0,67,68
 1275 1049 1275 1049 1275 1118 c 0,69,70
 1275 1167 1275 1167 1244 1215 c 128,-1,71
 1213 1263 1213 1263 1185 1285 c 0,72,73
 1157 1308 1157 1308 1081.5 1316 c 128,-1,74
 1006 1324 1006 1324 958 1324 c 0,75,76
 871 1324 871 1324 802.5 1314 c 128,-1,77
 734 1304 734 1304 566 1232 c 1,78,79
 813 1247 813 1247 803 1129 c 1,80,81
 803 964 803 964 775 924 c 128,-1,82
 747 884 747 884 613 808 c 1,83,84
 360 862 360 862 345 1063 c 1,85,86
 354 1119 354 1119 382 1200 c 1,87,88
 492 1313 492 1313 577 1331 c 1,89,90
 736 1400 736 1400 982 1400 c 0,91,92
 1062 1400 1062 1400 1130 1382 c 0,93,94
 1191 1365 1191 1365 1245 1317 c 0,95,96
 1296 1269 1296 1269 1331.5 1199.5 c 128,-1,97
 1367 1130 1367 1130 1355 1049 c 2,98,-1
 1346 996 l 1,99,-1
 1293 880 l 2,16,17
EndSplineSet
EndChar

StartChar: au
Encoding: 2452 2452 115
Width: 1511
GlyphClass: 2
Flags: W
LayerCount: 2
Fore
SplineSet
608 1000 m 0,0,1
 553 965 553 965 540 919 c 1,2,3
 522 933 522 933 550 882.5 c 128,-1,4
 578 832 578 832 591 828 c 0,5,6
 611 819 611 819 647 834.5 c 128,-1,7
 683 850 683 850 690 881 c 0,8,9
 698 936 698 936 672 981 c 128,-1,10
 646 1026 646 1026 608 1000 c 0,0,1
984 804 m 1,11,12
 920 745 920 745 1027.5 722 c 128,-1,13
 1135 699 1135 699 1178 733 c 0,14,15
 1208 757 1208 757 1148.5 788 c 128,-1,16
 1089 819 1089 819 984 804 c 1,11,12
1298 755 m 1,17,18
 1272 717 1272 717 1320.5 672.5 c 128,-1,19
 1369 628 1369 628 1377 579 c 0,20,21
 1381 537 1381 537 1395.5 476 c 128,-1,22
 1410 415 1410 415 1410 356 c 0,23,24
 1410 260 1410 260 1352 188.5 c 128,-1,25
 1294 117 1294 117 1234 71 c 0,26,27
 1124 -15 1124 -15 964 -15 c 0,28,29
 698 -15 698 -15 466 241 c 0,30,31
 290 430 290 430 148 754 c 0,32,33
 61 952 61 952 12 1137 c 1,34,-1
 29 1120 l 1,35,-1
 160 860 l 2,36,37
 242 690 242 690 345 555 c 0,38,39
 472 381 472 381 577 294 c 0,40,41
 751 144 751 144 945 144 c 0,42,43
 1080 144 1080 144 1192 219 c 0,44,45
 1302 296 1302 296 1302 420 c 0,46,47
 1302 489 1302 489 1267 560 c 0,48,49
 1234 630 1234 630 1188 633 c 1,50,51
 1170 604 1170 604 1134 583 c 0,52,53
 1102 566 1102 566 1052 566 c 0,54,55
 976 566 976 566 933 621 c 0,56,57
 892 671 892 671 892 734 c 0,58,59
 892 835 892 835 930 880 c 0,60,61
 951 904 951 904 978 916 c 0,62,63
 1004 926 1004 926 1043 926 c 0,64,65
 1111 926 1111 926 1185 860 c 1,66,67
 1205 868 1205 868 1210 883 c 0,68,69
 1251 960 1251 960 1251 1035 c 0,70,71
 1251 1086 1251 1086 1220.5 1135 c 128,-1,72
 1190 1184 1190 1184 1163 1206 c 0,73,74
 1135 1229 1135 1229 1061 1236.5 c 128,-1,75
 987 1244 987 1244 941 1244 c 0,76,77
 854 1244 854 1244 787.5 1199 c 128,-1,78
 721 1154 721 1154 658 1105 c 1,79,-1
 712 1102 l 2,80,81
 765 1098 765 1098 793 1059 c 0,82,83
 823 1017 823 1017 821 954.5 c 128,-1,84
 819 892 819 892 834 889 c 0,85,86
 849 885 849 885 805.5 841.5 c 128,-1,87
 762 798 762 798 696.5 757.5 c 128,-1,88
 631 717 631 717 563 698.5 c 128,-1,89
 495 680 495 680 463 725 c 0,90,91
 432 764 432 764 432 856 c 0,92,93
 432 1027 432 1027 566 1165 c 1,94,95
 724 1321 724 1321 964 1321 c 0,96,97
 1043 1321 1043 1321 1109 1303 c 0,98,99
 1166 1287 1166 1287 1223 1237 c 0,100,101
 1274 1189 1274 1189 1307.5 1119.5 c 128,-1,102
 1341 1050 1341 1050 1329 969 c 2,103,-1
 1321 913 l 1,104,-1
 1329 866 l 1,105,106
 1341 869 1341 869 1338.5 878.5 c 128,-1,107
 1336 888 1336 888 1353 943 c 0,108,109
 1361 974 1361 974 1368.5 999 c 128,-1,110
 1376 1024 1376 1024 1380 1043 c 0,111,112
 1384 1060 1384 1060 1393 1097 c 128,-1,113
 1402 1134 1402 1134 1410 1190 c 2,114,-1
 1412 1218 l 1,115,-1
 1412 1234 l 1,116,-1
 1412 1255 l 1,117,-1
 1410 1273 l 1,118,119
 1381 1440 1381 1440 1329 1504 c 1,120,121
 1221 1592 1221 1592 976 1580 c 1,122,123
 710 1469 710 1469 542 1508 c 1,124,125
 364 1577 364 1577 239 1653 c 128,-1,126
 114 1729 114 1729 295 1830 c 1,127,128
 321 1799 321 1799 306.5 1769 c 128,-1,129
 292 1739 292 1739 297.5 1709.5 c 128,-1,130
 303 1680 303 1680 357.5 1655 c 128,-1,131
 412 1630 412 1630 577 1613 c 1,132,-1
 1052 1739 l 1,133,134
 1160 1727 1160 1727 1240 1679 c 128,-1,135
 1320 1631 1320 1631 1358 1619 c 1,136,137
 1511 1483 1511 1483 1499 1328 c 2,138,-1
 1497 1291 l 2,139,140
 1484 1119 1484 1119 1433 920.5 c 128,-1,141
 1382 722 1382 722 1298 755 c 1,17,18
EndSplineSet
EndChar

StartChar: ka
Encoding: 2453 2453 116
Width: 1411
GlyphClass: 2
Flags: W
AnchorPoint: "Anchor-1" 885 60 basechar 0
AnchorPoint: "Anchor-0" 870 1380 basechar 0
LayerCount: 2
Fore
SplineSet
906 972 m 1,0,1
 1117 987 1117 987 1218 879 c 128,-1,2
 1319 771 1319 771 1251 604 c 0,3,4
 1247 588 1247 588 1219.5 558.5 c 128,-1,5
 1192 529 1192 529 1150 529 c 0,6,7
 1112 529 1112 529 1083.5 558.5 c 128,-1,8
 1055 588 1055 588 1055 630 c 128,-1,9
 1055 672 1055 672 1084.5 702.5 c 128,-1,10
 1114 733 1114 733 1174.5 767.5 c 128,-1,11
 1235 802 1235 802 1113 869.5 c 128,-1,12
 991 937 991 937 901 816 c 1,13,-1
 902 -4 l 1,14,-1
 853 71 l 1,15,-1
 820 128 l 1,16,-1
 787 185 l 1,17,-1
 85 755 l 1,18,-1
 806 1120 l 1,19,-1
 802 1299 l 1,20,-1
 -11 1299 l 1,21,-1
 -106 1407 l 1,22,-1
 1419 1395 l 1,23,-1
 1494 1296 l 1,24,-1
 898 1297 l 1,25,-1
 906 972 l 1,0,1
1132 601.5 m 128,-1,27
 1146 587 1146 587 1166 587 c 0,28,29
 1184 587 1184 587 1197.5 601.5 c 128,-1,30
 1211 616 1211 616 1211 638 c 0,31,32
 1211 659 1211 659 1198.5 673.5 c 128,-1,33
 1186 688 1186 688 1167 688 c 0,34,35
 1147 688 1147 688 1132.5 673.5 c 128,-1,36
 1118 659 1118 659 1118 638 c 0,37,26
 1118 616 1118 616 1132 601.5 c 128,-1,27
812 301 m 1,38,-1
 811 998 l 1,39,-1
 293 719 l 1,40,-1
 811 300 l 1,41,-1
 812 301 l 1,38,-1
EndSplineSet
EndChar

StartChar: kha
Encoding: 2454 2454 117
Width: 1130
GlyphClass: 2
Flags: W
AnchorPoint: "Anchor-1" 1035 60 basechar 0
AnchorPoint: "Anchor-0" 975 1485 basechar 0
LayerCount: 2
Fore
SplineSet
142.5 1142.5 m 128,-1,1
 167 1117 167 1117 200 1117 c 0,2,3
 234 1117 234 1117 259 1142.5 c 128,-1,4
 284 1168 284 1168 284 1204 c 0,5,6
 284 1242 284 1242 261 1266.5 c 128,-1,7
 238 1291 238 1291 203 1291 c 0,8,9
 169 1291 169 1291 143.5 1264.5 c 128,-1,10
 118 1238 118 1238 118 1203 c 128,-1,0
 118 1168 118 1168 142.5 1142.5 c 128,-1,1
1257 1301 m 1,11,-1
 1053 1302 l 1,12,-1
 1052 -6 l 1,13,-1
 1000 37 l 1,14,15
 994 49 994 49 987.5 62.5 c 128,-1,16
 981 76 981 76 975 91 c 0,17,18
 944 154 944 154 907 218 c 0,19,20
 862 292 862 292 247 644 c 1,21,-1
 199 712 l 1,22,-1
 171 749 l 1,23,24
 413 749 413 749 549 813 c 0,25,26
 704 886 704 886 704 1016 c 0,27,28
 704 1048 704 1048 682 1098 c 0,29,30
 662 1141 662 1141 627 1152 c 1,31,32
 557 1067 557 1067 457 1010 c 0,33,34
 358 953 358 953 234 953 c 0,35,36
 169 953 169 953 111 962 c 1,37,38
 37 996 37 996 29 1069 c 1,39,40
 4 1171 4 1171 21 1130 c 1,41,42
 12 1178 12 1178 9 1213.5 c 128,-1,43
 6 1249 6 1249 41 1312 c 1,44,-1
 112 1354 l 1,45,46
 205 1393 205 1393 295 1351 c 1,47,48
 318 1345 318 1345 349 1256 c 128,-1,49
 380 1167 380 1167 314 1100 c 1,50,51
 242 1063 242 1063 364 1078.5 c 128,-1,52
 486 1094 486 1094 560 1283 c 1,53,54
 670 1219 670 1219 724 1140 c 0,55,56
 776 1059 776 1059 776 953 c 0,57,58
 776 834 776 834 671 749 c 0,59,60
 594 684 594 684 466 659 c 1,61,-1
 946 343 l 1,62,-1
 949 1555 l 1,63,64
 961 1519 961 1519 1035 1446 c 1,65,-1
 1049 1397 l 1,66,-1
 1153 1397 l 1,67,-1
 1257 1301 l 1,11,-1
EndSplineSet
EndChar

StartChar: ga
Encoding: 2455 2455 118
Width: 1090
GlyphClass: 2
Flags: W
AnchorPoint: "Anchor-1" 960 45 basechar 0
AnchorPoint: "Anchor-0" 945 1485 basechar 0
LayerCount: 2
Fore
SplineSet
1172 1307 m 1,0,-1
 994 1308 l 1,1,-1
 997 -11 l 1,2,-1
 907 90 l 1,3,-1
 902 795 l 1,4,5
 892 923 892 923 768 1083 c 1,6,7
 625 1235 625 1235 475 1235 c 0,8,9
 359 1235 359 1235 254 1151 c 0,10,11
 149 1065 149 1065 149 960 c 1,12,-1
 229 996 l 1,13,14
 305 1023 305 1023 335 1026 c 0,15,16
 466 1026 466 1026 537 940 c 1,17,18
 593 865 593 865 593 771 c 0,19,20
 593 654 593 654 487 559 c 0,21,22
 407 485 407 485 281 467 c 1,23,-1
 64 529 l 1,24,25
 109 561 109 561 249 589 c 128,-1,26
 389 617 389 617 419 652 c 0,27,28
 467 705 467 705 473.5 751.5 c 128,-1,29
 480 798 480 798 490 841 c 0,30,31
 498 866 498 866 471 915 c 1,32,33
 447 932 447 932 401 932 c 0,34,35
 367 932 367 932 317 923.5 c 128,-1,36
 267 915 267 915 237 898 c 2,37,-1
 106 817 l 2,38,39
 77 801 77 801 38 856 c 1,40,41
 10 915 10 915 10 992 c 0,42,43
 10 1096 10 1096 103 1207 c 0,44,45
 222 1349 222 1349 419 1349 c 0,46,47
 598 1349 598 1349 761 1181 c 1,48,49
 883 1046 883 1046 894 951 c 1,50,-1
 900 943 l 1,51,-1
 902 1550 l 1,52,53
 942 1550 942 1550 996 1473 c 1,54,-1
 996 1392 l 1,55,-1
 1086 1392 l 1,56,-1
 1172 1307 l 1,0,-1
EndSplineSet
EndChar

StartChar: gha
Encoding: 2456 2456 119
Width: 1063
GlyphClass: 2
Flags: W
AnchorPoint: "Anchor-1" 1005 75 basechar 0
AnchorPoint: "Anchor-0" 930 1395 basechar 0
LayerCount: 2
Fore
SplineSet
851 296 m 1,0,-1
 851 1292 l 1,1,-1
 348 1297 l 1,2,3
 345 1302 345 1302 276 1277 c 1,4,5
 245 1243 245 1243 237 1187 c 2,6,-1
 232 1126 l 1,7,8
 236 1046 236 1046 285 992 c 1,9,10
 331 963 331 963 382 957 c 0,11,12
 440 946 440 946 514 1001 c 0,13,14
 525 1013 525 1013 563 1051 c 2,15,-1
 613 1104 l 1,16,-1
 628 903 l 1,17,18
 429 641 429 641 361 521.5 c 128,-1,19
 293 402 293 402 314 361 c 128,-1,20
 335 320 335 320 421.5 329 c 128,-1,21
 508 338 508 338 619 334 c 0,22,23
 765 328 765 328 851 296 c 1,0,-1
1152 1302 m 1,24,-1
 955 1300 l 1,25,-1
 957 6 l 1,26,27
 939 10 939 10 931 38 c 128,-1,28
 923 66 923 66 902 104 c 0,29,30
 852 196 852 196 710 198 c 128,-1,31
 568 200 568 200 429 196 c 0,32,33
 356 194 356 194 292 198.5 c 128,-1,34
 228 203 228 203 190 230 c 0,35,36
 145 260 145 260 142 327 c 0,37,38
 133 441 133 441 258 667 c 0,39,40
 303 751 303 751 386 878 c 1,41,-1
 349 878 l 2,42,43
 253 878 253 878 169 940 c 0,44,45
 62 1018 62 1018 62 1161 c 0,46,47
 62 1202 62 1202 87 1251 c 0,48,49
 111 1301 111 1301 146 1302 c 2,50,-1
 2 1300 l 1,51,-1
 -101 1399 l 1,52,-1
 1053 1399 l 1,53,-1
 1152 1302 l 1,24,-1
EndSplineSet
EndChar

StartChar: nga
Encoding: 2457 2457 120
Width: 1077
GlyphClass: 2
Flags: W
AnchorPoint: "Anchor-1" 645 75 basechar 0 {} {11-11 -7}
AnchorPoint: "Anchor-0" 735 1350 basechar 0
LayerCount: 2
Fore
SplineSet
874 1158 m 0,0,1
 874 1194 874 1194 818 1216 c 0,2,3
 763 1237 763 1237 770 1232 c 1,4,5
 683 1288 683 1288 612 1186 c 0,6,7
 583 1144 583 1144 550.5 1108.5 c 128,-1,8
 518 1073 518 1073 511 1017 c 1,9,-1
 563 999 l 1,10,-1
 624 992 l 1,11,12
 722 992 722 992 799 1051 c 0,13,14
 874 1109 874 1109 874 1158 c 0,0,1
1058 461 m 0,15,16
 1058 280 1058 280 949 159 c 1,17,18
 887 102 887 102 817 73 c 128,-1,19
 747 44 747 44 683 44 c 0,20,21
 517 44 517 44 372 118 c 128,-1,22
 227 192 227 192 122 358 c 1,23,24
 17 477 17 477 -12 785 c 1,25,26
 62 865 62 865 90 921 c 1,27,28
 89 728 89 728 109 645 c 128,-1,29
 129 562 129 562 157 490 c 0,30,31
 188 413 188 413 245 345.5 c 128,-1,32
 302 278 302 278 366 233 c 0,33,34
 441 179 441 179 486.5 165 c 128,-1,35
 532 151 532 151 670 137 c 1,36,37
 834 162 834 162 936 266 c 1,38,39
 1006 364 1006 364 1006 484 c 0,40,41
 1006 541 1006 541 971 606 c 0,42,43
 932 674 932 674 886 692 c 1,44,45
 842 619 842 619 809 587 c 0,46,47
 713 482 713 482 606 482 c 0,48,49
 548 482 548 482 507 508 c 0,50,51
 487 520 487 520 453 539.5 c 128,-1,52
 419 559 419 559 415 604 c 2,53,-1
 406 710 l 1,54,-1
 406 738 l 1,55,-1
 406 960 l 1,56,57
 318 989 318 989 247 1054 c 0,58,59
 197 1096 197 1096 133 1120 c 128,-1,60
 69 1144 69 1144 50 1205 c 1,61,-1
 79 1294 l 1,62,63
 90 1232 90 1232 166 1190.5 c 128,-1,64
 242 1149 242 1149 258 1122 c 1,65,66
 315 1088 315 1088 406 1027 c 1,67,68
 406 1101 406 1101 480 1196 c 0,69,70
 526 1258 526 1258 582 1311 c 128,-1,71
 638 1364 638 1364 714 1346 c 0,72,73
 738 1339 738 1339 785.5 1316 c 128,-1,74
 833 1293 833 1293 874 1272 c 0,75,76
 935 1241 935 1241 935 1150 c 0,77,78
 935 1054 935 1054 833 983 c 0,79,80
 732 913 732 913 613 913 c 0,81,82
 553 913 553 913 502 936 c 1,83,-1
 508 714 l 2,84,85
 510 651 510 651 529 624 c 0,86,87
 539 609 539 609 547 584 c 128,-1,88
 555 559 555 559 576 559 c 0,89,90
 621 556 621 556 679 602 c 0,91,92
 748 662 748 662 800 824 c 1,93,94
 880 802 880 802 960 716 c 0,95,96
 1058 606 1058 606 1058 461 c 0,15,16
770 1232 m 257,97,98
 770 1232 770 1232 770 1232 c 257,99,100
 770 1232 770 1232 770 1232 c 257,97,98
EndSplineSet
EndChar

StartChar: ca
Encoding: 2458 2458 121
Width: 996
GlyphClass: 2
Flags: W
AnchorPoint: "Anchor-1" 660 30 basechar 0
AnchorPoint: "Anchor-0" 270 1365 basechar 0
LayerCount: 2
Fore
SplineSet
837 763 m 1,0,1
 830 784 830 784 767.5 804 c 128,-1,2
 705 824 705 824 612 825 c 128,-1,3
 519 826 519 826 426 815.5 c 128,-1,4
 333 805 333 805 304 797 c 1,5,-1
 300 266 l 1,6,7
 313 254 313 254 353.5 188 c 128,-1,8
 394 122 394 122 474.5 171 c 128,-1,9
 555 220 555 220 639 327 c 0,10,11
 807 541 807 541 837 763 c 1,0,1
1107 1301 m 1,12,-1
 301 1299 l 1,13,-1
 307 968 l 1,14,15
 362 860 362 860 433.5 895 c 128,-1,16
 505 930 505 930 639 921 c 1,17,18
 722 929 722 929 797 905.5 c 128,-1,19
 872 882 872 882 923 826 c 0,20,21
 956 787 956 787 955 737 c 1,22,23
 975 527 975 527 762 264 c 0,24,25
 547 0 547 0 390 0 c 0,26,27
 320 0 320 0 248 101 c 0,28,29
 205 160 205 160 202 244 c 2,30,-1
 202 1298 l 1,31,-1
 -3 1301 l 1,32,-1
 -103 1400 l 1,33,-1
 1000 1398 l 1,34,-1
 1107 1301 l 1,12,-1
EndSplineSet
EndChar

StartChar: cha
Encoding: 2459 2459 122
Width: 1079
GlyphClass: 2
Flags: W
AnchorPoint: "Anchor-1" 705 0 basechar 0
AnchorPoint: "Anchor-0" 225 1395 basechar 0
LayerCount: 2
Fore
SplineSet
1156 1301 m 1,0,-1
 298 1292 l 1,1,-1
 239 1292 l 1,2,-1
 239 1114 l 1,3,4
 268 1056 268 1056 309 1080.5 c 128,-1,5
 350 1105 350 1105 426 1090 c 0,6,7
 467 1083 467 1083 513 1075.5 c 128,-1,8
 559 1068 559 1068 584 1050 c 1,9,-1
 627 1061 l 1,10,11
 862 1044 862 1044 893 841.5 c 128,-1,12
 924 639 924 639 845 582.5 c 128,-1,13
 766 526 766 526 594 428 c 128,-1,14
 422 330 422 330 384 321 c 0,15,16
 375 319 375 319 364.5 316.5 c 128,-1,17
 354 314 354 314 345 314 c 0,18,19
 337 314 337 314 327.5 312 c 128,-1,20
 318 310 318 310 311 310 c 2,21,-1
 351 300 l 2,22,23
 371 296 371 296 392.5 284 c 128,-1,24
 414 272 414 272 436 261 c 0,25,26
 459 249 459 249 478 238 c 0,27,28
 485 233 485 233 497 224.5 c 128,-1,29
 509 216 509 216 522 206 c 0,30,31
 627 129 627 129 708 25 c 1,32,-1
 690 -11 l 1,33,34
 641 40 641 40 595 94 c 128,-1,35
 549 148 549 148 481 174 c 2,36,-1
 392 211 l 1,37,-1
 286 243 l 1,38,-1
 155 268 l 1,39,-1
 57 421 l 1,40,-1
 147 389 l 2,41,42
 183 376 183 376 239 376 c 0,43,44
 330 376 330 376 602.5 508 c 128,-1,45
 875 640 875 640 839.5 836.5 c 128,-1,46
 804 1033 804 1033 593 958 c 1,47,48
 618 866 618 866 496 716 c 128,-1,49
 374 566 374 566 284 566 c 0,50,51
 244 566 244 566 204 624 c 0,52,53
 164 677 164 677 164 712 c 2,54,-1
 169 1292 l 1,55,-1
 173 1292 l 1,56,-1
 10 1301 l 1,57,-1
 -82 1400 l 1,58,-1
 1055 1400 l 1,59,-1
 1156 1301 l 1,0,-1
526 993 m 1,60,61
 540 1021 540 1021 504.5 1032.5 c 128,-1,62
 469 1044 469 1044 415.5 1044.5 c 128,-1,63
 362 1045 362 1045 309.5 1039.5 c 128,-1,64
 257 1034 257 1034 235 1029 c 1,65,-1
 229 731 l 1,66,67
 245 720 245 720 262 680 c 0,68,69
 271 660 271 660 274 650 c 1,70,71
 286 657 286 657 315 670 c 0,72,73
 383 700 383 700 431 761 c 0,74,75
 526 883 526 883 526 973 c 2,76,-1
 526 993 l 1,60,61
EndSplineSet
EndChar

StartChar: ja
Encoding: 2460 2460 123
Width: 1518
GlyphClass: 2
Flags: W
AnchorPoint: "Anchor-1" 1575 120 basechar 0
AnchorPoint: "Anchor-0" 480 1425 basechar 0
LayerCount: 2
Fore
SplineSet
521 1151 m 1,0,1
 673 1133 673 1133 665 1131 c 128,-1,2
 657 1129 657 1129 726 1129 c 0,3,4
 798 1129 798 1129 961.5 1131 c 128,-1,5
 1125 1133 1125 1133 1242 1201 c 1,6,-1
 1338 1073 l 1,7,8
 1269 955 1269 955 1252 843 c 128,-1,9
 1235 731 1235 731 1235 640 c 0,10,11
 1235 497 1235 497 1332 383 c 128,-1,12
 1429 269 1429 269 1508 224 c 0,13,14
 1603 170 1603 170 1573 142.5 c 128,-1,15
 1543 115 1543 115 1441 186 c 0,16,17
 1251 318 1251 318 1201 430.5 c 128,-1,18
 1151 543 1151 543 1156 638 c 1,19,20
 1134 749 1134 749 1162 876.5 c 128,-1,21
 1190 1004 1190 1004 1230 1090 c 1,22,23
 1173 1052 1173 1052 1077 1039.5 c 128,-1,24
 981 1027 981 1027 876 1032 c 0,25,26
 771 1034 771 1034 725 1034.5 c 128,-1,27
 679 1035 679 1035 502 1107 c 1,28,-1
 391 902 l 1,29,30
 435 874 435 874 463 811.5 c 128,-1,31
 491 749 491 749 528 719 c 0,32,33
 541 708 541 708 585 708 c 0,34,35
 645 708 645 708 723 801 c 0,36,37
 763 849 763 849 836 973 c 1,38,39
 919 941 919 941 967 848 c 0,40,41
 1019 752 1019 752 1019 610 c 0,42,43
 1019 445 1019 445 919 333 c 0,44,45
 819 222 819 222 695 222 c 0,46,47
 495 222 495 222 346 400 c 1,48,49
 234 509 234 509 214 552 c 1,50,51
 176 607 176 607 124 722 c 1,52,53
 75 843 75 843 34 925 c 0,54,55
 -17 1031 -17 1031 -23 1063 c 1,56,-1
 93 1006 l 1,57,-1
 162 872 l 2,58,59
 182 832 182 832 212 762 c 0,60,61
 223 731 223 731 235.5 704.5 c 128,-1,62
 248 678 248 678 259 656 c 0,63,64
 333 516 333 516 440 428 c 0,65,66
 543 342 543 342 668 342 c 0,67,68
 795 342 795 342 889 431 c 0,69,70
 927 469 927 469 942 558 c 0,71,72
 960 652 960 652 942 700 c 0,73,74
 936 726 936 726 936 737 c 0,75,76
 933 761 933 761 912 792 c 1,77,-1
 798 703 l 2,78,79
 751 666 751 666 711 656 c 0,80,81
 657 640 657 640 637 628 c 0,82,83
 581 593 581 593 472 654 c 0,84,85
 418 685 418 685 352.5 780 c 128,-1,86
 287 875 287 875 291 899 c 1,87,-1
 479 1298 l 1,88,-1
 5 1303 l 1,89,-1
 -106 1397 l 1,90,-1
 1513 1402 l 1,91,-1
 1620 1301 l 1,92,-1
 577 1299 l 1,93,-1
 521 1151 l 1,0,1
EndSplineSet
EndChar

StartChar: jha
Encoding: 2461 2461 124
Width: 1215
GlyphClass: 2
Flags: W
AnchorPoint: "Anchor-1" 900 90 basechar 0
AnchorPoint: "Anchor-0" 840 1380 basechar 0
LayerCount: 2
Fore
SplineSet
1147 1297 m 1,0,-1
 1148 40 l 1,1,-1
 847 515 l 1,2,-1
 854 59 l 1,3,4
 777 123 777 123 57 780 c 1,5,-1
 748 1203 l 1,6,-1
 754 1302 l 1,7,-1
 -30 1305 l 1,8,-1
 -109 1388 l 1,9,-1
 1199 1390 l 1,10,-1
 1289 1304 l 1,11,-1
 1147 1297 l 1,0,-1
1049 1300 m 1,12,-1
 854 1303 l 1,13,-1
 855 648 l 1,14,-1
 1051 359 l 1,15,-1
 1049 1300 l 1,12,-1
745 294 m 1,16,-1
 744 1093 l 1,17,-1
 214 775 l 1,18,-1
 745 294 l 1,16,-1
EndSplineSet
EndChar

StartChar: nya
Encoding: 2462 2462 125
Width: 1690
GlyphClass: 2
Flags: W
AnchorPoint: "Anchor-1" 1170 90 basechar 0
AnchorPoint: "Anchor-0" 1065 1320 basechar 0
LayerCount: 2
Fore
SplineSet
1193 983 m 1,0,1
 1372 1063 1372 1063 1491 1049.5 c 128,-1,2
 1610 1036 1610 1036 1663.5 987.5 c 128,-1,3
 1717 939 1717 939 1701.5 882.5 c 128,-1,4
 1686 826 1686 826 1517 804 c 1,5,-1
 1512 733 l 1,6,7
 1658 733 1658 733 1698 650 c 128,-1,8
 1738 567 1738 567 1706.5 490.5 c 128,-1,9
 1675 414 1675 414 1553.5 386 c 128,-1,10
 1432 358 1432 358 1188 461 c 1,11,-1
 1187 34 l 1,12,-1
 1164 48 l 1,13,-1
 1140 61 l 1,14,15
 1124 212 1124 212 1044 276 c 0,16,17
 969 331 969 331 867 331 c 0,18,19
 769 331 769 331 692 296 c 0,20,21
 589 248 589 248 439 270.5 c 128,-1,22
 289 293 289 293 208 351 c 0,23,24
 48 463 48 463 48 732 c 0,25,26
 48 905 48 905 82 964.5 c 128,-1,27
 116 1024 116 1024 97 764 c 0,28,29
 82 581 82 581 195 483 c 0,30,31
 279 408 279 408 448 408 c 2,32,-1
 519 408 l 1,33,-1
 557 408 l 2,34,35
 572 409 572 409 584 413.5 c 128,-1,36
 596 418 596 418 604 418 c 2,37,-1
 756 434 l 1,38,39
 975 452 975 452 1100 265 c 1,40,-1
 1100 1201 l 2,41,42
 1100 1220 1100 1220 1071 1244 c 0,43,44
 1035 1274 1035 1274 997 1276 c 0,45,46
 922 1277 922 1277 885.5 1283.5 c 128,-1,47
 849 1290 849 1290 733 1202 c 1,48,49
 819 1230 819 1230 887 1220 c 128,-1,50
 955 1210 955 1210 1000 1154.5 c 128,-1,51
 1045 1099 1045 1099 1027 994.5 c 128,-1,52
 1009 890 1009 890 831 861 c 1,53,54
 600 864 600 864 631 1150 c 0,55,56
 643 1285 643 1285 814 1351 c 1,57,58
 807 1360 807 1360 975 1360 c 0,59,60
 1071 1360 1071 1360 1136 1296 c 0,61,62
 1187 1243 1187 1243 1187 1201 c 2,63,-1
 1193 983 l 1,0,1
920.5 969 m 128,-1,65
 949 1004 949 1004 947 1046.5 c 128,-1,66
 945 1089 945 1089 915 1124.5 c 128,-1,67
 885 1160 885 1160 834 1160 c 0,68,69
 782 1160 782 1160 750 1124.5 c 128,-1,70
 718 1089 718 1089 714.5 1046.5 c 128,-1,71
 711 1004 711 1004 738 969 c 128,-1,72
 765 934 765 934 829 934 c 0,73,64
 892 934 892 934 920.5 969 c 128,-1,65
1192 904 m 1,74,-1
 1186 538 l 1,75,76
 1206 533 1206 533 1331 493 c 128,-1,77
 1456 453 1456 453 1562 469 c 128,-1,78
 1668 485 1668 485 1672 546 c 128,-1,79
 1676 607 1676 607 1413 693 c 1,80,-1
 1401 831 l 1,81,82
 1557 856 1557 856 1573 887.5 c 128,-1,83
 1589 919 1589 919 1533 949.5 c 128,-1,84
 1477 980 1477 980 1441.5 962.5 c 128,-1,85
 1406 945 1406 945 1192 904 c 1,74,-1
EndSplineSet
EndChar

StartChar: tta
Encoding: 2463 2463 126
Width: 995
GlyphClass: 2
Flags: W
AnchorPoint: "Anchor-1" 495 75 basechar 0
AnchorPoint: "Anchor-0" 855 1380 basechar 0
LayerCount: 2
Fore
SplineSet
604 1397 m 1,0,-1
 980 1396 l 1,1,-1
 1098 1301 l 1,2,-1
 223 1296 l 1,3,-1
 223 381 l 2,4,5
 223 318 223 318 260 259 c 0,6,7
 296 204 296 204 372 186 c 0,8,9
 445 171 445 171 566 262 c 0,10,11
 643 320 643 320 701.5 410 c 128,-1,12
 760 500 760 500 776 626 c 2,13,-1
 786 689 l 1,14,-1
 786 727 l 1,15,16
 756 682 756 682 695 682 c 0,17,18
 635 682 635 682 591 724 c 0,19,20
 546 765 546 765 546 850 c 0,21,22
 546 913 546 913 597 960 c 0,23,24
 645 1007 645 1007 716 1007 c 0,25,26
 803 1007 803 1007 869 929 c 0,27,28
 882 911 882 911 890 893 c 0,29,30
 903 870 903 870 915 835 c 0,31,32
 929 794 929 794 929 734 c 0,33,34
 929 600 929 600 889 491 c 0,35,36
 851 376 851 376 766 275 c 0,37,38
 604 78 604 78 395 78 c 0,39,40
 296 78 296 78 211 182 c 0,41,42
 125 287 125 287 125 381 c 2,43,-1
 120 1296 l 1,44,-1
 -4 1295 l 1,45,-1
 -90 1395 l 1,46,-1
 281 1392 l 1,47,-1
 569 1396 l 1,48,49
 738 1524 738 1524 729 1568.5 c 128,-1,50
 720 1613 720 1613 635 1667 c 1,51,-1
 590 1669 l 1,52,-1
 534 1669 l 1,53,-1
 468 1644 l 1,54,-1
 386 1644 l 1,55,-1
 340 1644 l 1,56,-1
 290 1644 l 1,57,58
 134 1675 134 1675 102.5 1808 c 128,-1,59
 71 1941 71 1941 83 2020 c 1,60,61
 111 1877 111 1877 201 1809 c 1,62,63
 379 1715 379 1715 546 1792 c 1,64,65
 618 1802 618 1802 764 1731 c 1,66,67
 947 1563 947 1563 656 1401 c 1,68,-1
 579 1397 l 1,69,-1
 604 1397 l 1,0,-1
728 945 m 128,-1,71
 686 945 686 945 656 913 c 128,-1,72
 626 881 626 881 626 846 c 0,73,74
 626 763 626 763 728 763 c 0,75,76
 831 763 831 763 831 846 c 0,77,78
 831 881 831 881 800.5 913 c 128,-1,70
 770 945 770 945 728 945 c 128,-1,71
EndSplineSet
EndChar

StartChar: ttha
Encoding: 2464 2464 127
Width: 1110
GlyphClass: 2
Flags: W
AnchorPoint: "Anchor-1" 645 15 basechar 0
AnchorPoint: "Anchor-0" 570 1410 basechar 0
LayerCount: 2
Fore
SplineSet
1220 1293 m 1,0,-1
 1104 1396 l 1,1,-1
 537 1397 l 1,2,3
 549 1391 549 1391 561 1385 c 1,4,-1
 463 1392 l 1,5,-1
 411 1387 l 1,6,7
 398 1392 398 1392 385 1397 c 2,8,-1
 378 1398 l 1,9,-1
 -110 1397 l 1,10,-1
 -3 1286 l 1,11,-1
 256 1286 l 1,12,-1
 254 1291 l 1,13,-1
 467 1286 l 1,14,-1
 524 1291 l 1,15,-1
 1220 1293 l 1,0,-1
343 1279 m 1,16,-1
 516 880 l 1,17,18
 583 630 583 630 447 382 c 1,19,20
 379 233 379 233 406 178 c 1,21,22
 664 123 664 123 806 200 c 1,23,-1
 875 366 l 1,24,-1
 855 592 l 1,25,-1
 726 824 l 1,26,-1
 445 1285 l 1,27,-1
 343 1279 l 1,16,-1
527 1285 m 1,28,-1
 847 824 l 1,29,-1
 990 614 l 1,30,-1
 1004 361 l 1,31,-1
 937 134 l 1,32,-1
 767 41 l 1,33,34
 510 -20 510 -20 291 79 c 0,35,36
 109 162 109 162 141 283 c 1,37,-1
 243 404 l 1,38,-1
 379 504 l 1,39,40
 461 664 461 664 420 863 c 1,41,-1
 256 1286 l 1,42,-1
 280 1286 l 1,43,-1
 372 1286 l 1,44,-1
 463 1286 l 1,45,-1
 467 1286 l 1,46,-1
 527 1285 l 1,28,-1
385 1397 m 1,47,48
 183 1481 183 1481 162 1546 c 0,49,50
 141 1615 141 1615 167 1713 c 1,51,52
 263 1837 263 1837 453.5 1819 c 128,-1,53
 644 1801 644 1801 479.5 1769.5 c 128,-1,54
 315 1738 315 1738 277 1688.5 c 128,-1,55
 239 1639 239 1639 303 1552 c 1,56,57
 376 1480 376 1480 537 1397 c 1,58,-1
 515 1397 l 1,59,-1
 463 1392 l 1,60,-1
 385 1397 l 1,47,48
EndSplineSet
EndChar

StartChar: dda
Encoding: 2465 2465 128
Width: 1155
GlyphClass: 2
Flags: W
AnchorPoint: "Anchor-1" 795 60 basechar 0
AnchorPoint: "Anchor-0" 540 1395 basechar 0
LayerCount: 2
Fore
SplineSet
339 1300 m 1,0,-1
 13 1291 l 1,1,-1
 -116 1395 l 1,2,-1
 1160 1395 l 1,3,-1
 1265 1300 l 1,4,-1
 458 1303 l 1,5,-1
 458 668 l 1,6,7
 487 638 487 638 519 630 c 0,8,9
 558 617 558 617 582 617 c 0,10,11
 647 617 647 617 732 721 c 0,12,13
 776 775 776 775 856 915 c 1,14,15
 945 878 945 878 999 774 c 0,16,17
 1055 665 1055 665 1055 508 c 0,18,19
 1055 324 1055 324 945 198 c 0,20,21
 837 73 837 73 703 73 c 0,22,23
 481 73 481 73 321 273 c 0,24,25
 289 313 289 313 229 410 c 0,26,27
 173 501 173 501 100 632 c 0,28,29
 28 762 28 762 -20 861 c 0,30,31
 -77 974 -77 974 -84 1013 c 1,32,-1
 43 951 l 1,33,-1
 119 802 l 2,34,35
 143 749 143 749 173 677 c 0,36,37
 193 624 193 624 225 560 c 0,38,39
 306 402 306 402 422 304 c 0,40,41
 534 207 534 207 672 207 c 0,42,43
 809 207 809 207 913 307 c 0,44,45
 953 346 953 346 973 449 c 0,46,47
 993 550 993 550 973 608 c 0,48,49
 967 626 967 626 966 650 c 0,50,51
 961 675 961 675 940 711 c 1,52,-1
 814 612 l 2,53,54
 766 573 766 573 719 560 c 0,55,56
 673 544 673 544 638 528 c 0,57,58
 585 504 585 504 459 559 c 0,59,60
 332 614 332 614 332 668 c 2,61,-1
 339 1300 l 1,0,-1
EndSplineSet
EndChar

StartChar: ddha
Encoding: 2466 2466 129
Width: 1057
GlyphClass: 2
Flags: W
AnchorPoint: "Anchor-1" 450 30 basechar 0
AnchorPoint: "Anchor-0" 180 1365 basechar 0
LayerCount: 2
Fore
SplineSet
797 919 m 0,0,1
 753 919 753 919 721.5 885 c 128,-1,2
 690 851 690 851 690 815 c 0,3,4
 690 728 690 728 797 728 c 0,5,6
 905 728 905 728 905 815 c 0,7,8
 905 851 905 851 873.5 885 c 128,-1,9
 842 919 842 919 797 919 c 0,0,1
1180 1276 m 1,10,-1
 278 1276 l 1,11,-1
 278 336 l 2,12,13
 278 275 278 275 316 208 c 1,14,15
 356 152 356 152 435 132 c 0,16,17
 513 115 513 115 665 181 c 1,18,19
 804 330 804 330 903 529 c 1,20,-1
 922 652 l 1,21,-1
 913 699 l 1,22,23
 837 653 837 653 774 653 c 0,24,25
 717 653 717 653 664 697 c 1,26,27
 617 744 617 744 617 829 c 0,28,29
 617 895 617 895 671 945 c 0,30,31
 723 995 723 995 796 995 c 0,32,33
 885 995 885 995 957 913 c 1,34,35
 973 888 973 888 979 875 c 0,36,37
 986 860 986 860 1005 814 c 0,38,39
 1020 770 1020 770 1020 708 c 0,40,41
 1020 567 1020 567 978 452 c 0,42,43
 937 332 937 332 848 226 c 0,44,45
 679 18 679 18 459 18 c 0,46,47
 354 18 354 18 265 127 c 0,48,49
 175 238 175 238 175 336 c 2,50,-1
 175 1276 l 1,51,-1
 32 1276 l 1,52,-1
 -62 1376 l 1,53,-1
 1080 1376 l 1,54,-1
 1180 1276 l 1,10,-1
EndSplineSet
EndChar

StartChar: nna
Encoding: 2467 2467 130
Width: 1123
GlyphClass: 2
Flags: W
AnchorPoint: "Anchor-1" 975 45 basechar 0
AnchorPoint: "Anchor-0" 915 1515 basechar 0
LayerCount: 2
Fore
SplineSet
456 791 m 0,0,1
 382 791 382 791 382 716 c 128,-1,2
 382 641 382 641 456 641 c 0,3,4
 531 641 531 641 531 716 c 128,-1,5
 531 791 531 791 456 791 c 0,0,1
1218 1298 m 1,6,-1
 992 1298 l 1,7,-1
 992 32 l 1,8,-1
 893 40 l 1,9,-1
 893 653 l 2,10,11
 893 709 893 709 851 803 c 128,-1,12
 809 897 809 897 741 982 c 128,-1,13
 673 1067 673 1067 624 1114.5 c 128,-1,14
 575 1162 575 1162 485 1162 c 2,15,-1
 435 1162 l 2,16,17
 298 1162 298 1162 201 1072 c 1,18,19
 117 985 117 985 117 875 c 2,20,-1
 117 836 l 1,21,22
 141 665 141 665 279 613 c 1,23,24
 343 595 343 595 407 595 c 1,25,26
 353 611 353 611 321 652 c 1,27,28
 304 692 304 692 304 748 c 0,29,30
 304 789 304 789 345 826 c 1,31,32
 389 860 389 860 439 860 c 0,33,34
 507 860 507 860 553 820 c 1,35,36
 597 776 597 776 597 716 c 0,37,38
 597 627 597 627 515 567 c 1,39,40
 440 520 440 520 366 520 c 0,41,42
 228 520 228 520 122 629 c 1,43,44
 25 740 25 740 25 855 c 2,45,-1
 25 896 l 2,46,47
 25 1041 25 1041 133 1162 c 0,48,49
 251 1290 251 1290 440 1290 c 0,50,51
 643 1290 643 1290 787 1086 c 0,52,53
 809 1054 809 1054 837.5 1022.5 c 128,-1,54
 866 991 866 991 893 923 c 1,55,-1
 893 1570 l 1,56,57
 945 1560 945 1560 955 1502 c 0,58,59
 964 1444 964 1444 992 1418 c 1,60,-1
 1028 1396 l 1,61,-1
 1112 1396 l 1,62,-1
 1218 1298 l 1,6,-1
EndSplineSet
EndChar

StartChar: ta
Encoding: 2468 2468 131
Width: 1321
GlyphClass: 2
Flags: W
AnchorPoint: "Anchor-1" 1020 0 basechar 0
AnchorPoint: "Anchor-0" 945 1380 basechar 0
LayerCount: 2
Fore
SplineSet
1450 1297 m 1,0,-1
 823 1296 l 1,1,2
 1046 1171 1046 1171 1068.5 1131 c 128,-1,3
 1091 1091 1091 1091 1147 1016 c 0,4,5
 1177 976 1177 976 1207.5 884 c 128,-1,6
 1238 792 1238 792 1239.5 679.5 c 128,-1,7
 1241 567 1241 567 1218 451 c 0,8,9
 1199 339 1199 339 1143.5 238.5 c 128,-1,10
 1088 138 1088 138 1040 93 c 0,11,12
 935 -6 935 -6 845 -6 c 0,13,14
 780 -6 780 -6 712.5 3 c 128,-1,15
 645 12 645 12 579 57 c 0,16,17
 492 113 492 113 428 223.5 c 128,-1,18
 364 334 364 334 305 442 c 0,19,20
 292 468 292 468 238.5 565.5 c 128,-1,21
 185 663 185 663 126.5 775 c 128,-1,22
 68 887 68 887 24 983 c 128,-1,23
 -20 1079 -20 1079 -18 1107 c 1,24,-1
 63 1048 l 1,25,26
 70 1013 70 1013 125 909.5 c 128,-1,27
 180 806 180 806 247.5 690.5 c 128,-1,28
 315 575 315 575 361 472.5 c 128,-1,29
 407 370 407 370 432 343 c 0,30,31
 584 139 584 139 800 112 c 1,32,33
 953 121 953 121 1036 251 c 0,34,35
 1130 406 1130 406 1130 573 c 1,36,37
 1115 960 1115 960 1000 1039.5 c 128,-1,38
 885 1119 885 1119 865 1145 c 1,39,40
 918 1049 918 1049 900 935.5 c 128,-1,41
 882 822 882 822 717 804 c 1,42,43
 582 828 582 828 516 996 c 1,44,45
 519 1215 519 1215 554 1234.5 c 128,-1,46
 589 1254 589 1254 663 1290 c 1,47,-1
 555 1290 l 1,48,-1
 -29 1290 l 1,49,-1
 -108 1390 l 1,50,-1
 1356 1399 l 1,51,-1
 1450 1297 l 1,0,-1
823 1034 m 1,52,53
 804 1197 804 1197 705 1177 c 128,-1,54
 606 1157 606 1157 613 1044 c 0,55,56
 622 917 622 917 718.5 904.5 c 128,-1,57
 815 892 815 892 823 1034 c 1,52,53
EndSplineSet
EndChar

StartChar: tha
Encoding: 2469 2469 132
Width: 984
GlyphClass: 2
Flags: W
AnchorPoint: "Anchor-1" 900 120 basechar 0
AnchorPoint: "Anchor-0" 840 1515 basechar 0
LayerCount: 2
Fore
SplineSet
128 1097 m 128,-1,1
 69 1097 69 1097 69 1052 c 128,-1,2
 69 1007 69 1007 128 1007 c 128,-1,3
 187 1007 187 1007 187 1052 c 128,-1,0
 187 1097 187 1097 128 1097 c 128,-1,1
1109 1296 m 1,4,-1
 901 1314 l 1,5,-1
 902 38 l 1,6,7
 841 78 841 78 745 227 c 0,8,9
 656 368 656 368 565.5 447 c 128,-1,10
 475 526 475 526 374.5 563.5 c 128,-1,11
 274 601 274 601 73 709 c 1,12,13
 88 792 88 792 180.5 804 c 128,-1,14
 273 816 273 816 384 899 c 0,15,16
 553 1026 553 1026 536 1123 c 0,17,18
 508 1263 508 1263 455 1277 c 0,19,20
 427 1284 427 1284 399 1299.5 c 128,-1,21
 371 1315 371 1315 329.5 1314 c 128,-1,22
 288 1313 288 1313 256.5 1295 c 128,-1,23
 225 1277 225 1277 199 1255 c 0,24,25
 158 1216 158 1216 134 1165 c 1,26,-1
 167 1169 l 2,27,28
 199 1173 199 1173 232 1135 c 0,29,30
 261 1098 261 1098 261 1047 c 0,31,32
 261 974 261 974 219 944 c 128,-1,33
 177 914 177 914 111 914 c 0,34,35
 70 914 70 914 33 968 c 0,36,37
 -2 1017 -2 1017 -2 1094 c 0,38,39
 -2 1183 -2 1183 69 1273 c 0,40,41
 153 1378 153 1378 275 1378 c 0,42,43
 431 1378 431 1378 513 1315 c 0,44,45
 612 1238 612 1238 612 1064 c 0,46,47
 612 945 612 945 477.5 846 c 128,-1,48
 343 747 343 747 191 713 c 1,49,50
 447 636 447 636 523.5 575.5 c 128,-1,51
 600 515 600 515 786 300 c 1,52,-1
 784 319 l 1,53,-1
 788 1570 l 1,54,-1
 868 1487 l 1,55,-1
 869 1401 l 1,56,-1
 1002 1399 l 1,57,-1
 1109 1296 l 1,4,-1
EndSplineSet
EndChar

StartChar: da
Encoding: 2470 2470 133
Width: 1097
GlyphClass: 2
Flags: W
AnchorPoint: "Anchor-1" 900 105 basechar 0
AnchorPoint: "Anchor-0" 195 1380 basechar 0
LayerCount: 2
Fore
SplineSet
1204 1306 m 1,0,-1
 252 1306 l 1,1,-1
 247 564 l 1,2,-1
 335 679 l 2,3,4
 429 803 429 803 882 1040 c 1,5,6
 837 696 837 696 813 487 c 128,-1,7
 789 278 789 278 903 53 c 1,8,9
 723 148 723 148 718 406.5 c 128,-1,10
 713 665 713 665 748 849 c 1,11,12
 631 805 631 805 471.5 644 c 128,-1,13
 312 483 312 483 253 370 c 1,14,-1
 148 524 l 1,15,-1
 157 1306 l 1,16,-1
 -9 1310 l 1,17,-1
 -84 1390 l 1,18,-1
 1096 1390 l 1,19,-1
 1204 1306 l 1,0,-1
EndSplineSet
EndChar

StartChar: dha
Encoding: 2471 2471 134
Width: 871
GlyphClass: 2
Flags: W
AnchorPoint: "Anchor-1" 795 60 basechar 0
AnchorPoint: "Anchor-0" 750 1380 basechar 0
LayerCount: 2
Fore
SplineSet
475 1533 m 1,0,1
 464 1585 464 1585 414 1591 c 1,2,3
 353 1587 353 1587 358 1536 c 0,4,5
 362 1486 362 1486 412 1484 c 0,6,7
 469 1484 469 1484 475 1533 c 1,0,1
707 165 m 1,8,-1
 707 1135 l 1,9,10
 552 1084 552 1084 414.5 980.5 c 128,-1,11
 277 877 277 877 179 784 c 1,12,-1
 707 165 l 1,8,-1
933 1320 m 1,13,-1
 789 1320 l 1,14,-1
 789 -8 l 1,15,16
 705 82 705 82 700 84 c 2,17,-1
 45 793 l 1,18,19
 105 855 105 855 215 944 c 128,-1,20
 325 1033 325 1033 402 1073 c 1,21,22
 238 1061 238 1061 142 1157 c 128,-1,23
 46 1253 46 1253 33 1371.5 c 128,-1,24
 20 1490 20 1490 98 1590 c 128,-1,25
 176 1690 176 1690 339 1709 c 0,26,27
 387 1713 387 1713 410 1706 c 1,28,29
 617 1690 617 1690 617 1510 c 0,30,31
 615 1364 615 1364 416 1369 c 0,32,33
 272 1373 272 1373 272 1509 c 1,34,35
 365 1626 365 1626 255 1614 c 1,36,37
 103 1512 103 1512 109 1431 c 128,-1,38
 115 1350 115 1350 196.5 1273.5 c 128,-1,39
 278 1197 278 1197 383.5 1154 c 128,-1,40
 489 1111 489 1111 517 1160 c 1,41,-1
 520 1164 l 1,42,-1
 684 1238 l 1,43,-1
 684 1402 l 1,44,-1
 850 1402 l 1,45,-1
 933 1320 l 1,13,-1
EndSplineSet
EndChar

StartChar: na
Encoding: 2472 2472 135
Width: 1237
GlyphClass: 2
Flags: W
AnchorPoint: "Anchor-1" 1035 75 basechar 0
AnchorPoint: "Anchor-0" 1005 1410 basechar 0
LayerCount: 2
Fore
SplineSet
364 511 m 128,-1,1
 245 511 245 511 245 409 c 0,2,3
 245 305 245 305 364 305 c 128,-1,4
 483 305 483 305 483 409 c 0,5,0
 483 511 483 511 364 511 c 128,-1,1
1312 1317 m 1,6,-1
 1046 1317 l 1,7,-1
 1047 5 l 1,8,-1
 956 90 l 1,9,-1
 954 220 l 1,10,-1
 933 364 l 2,11,12
 900 572 900 572 803 660.5 c 128,-1,13
 706 749 706 749 614 777.5 c 128,-1,14
 522 806 522 806 415.5 753 c 128,-1,15
 309 700 309 700 225 544 c 1,16,17
 497 676 497 676 607 404 c 1,18,19
 609 276 609 276 377 210 c 1,20,21
 176 178 176 178 112 456 c 1,22,23
 139 618 139 618 160 643 c 0,24,25
 278 810 278 810 535 857 c 128,-1,26
 792 904 792 904 955 604 c 1,27,-1
 955 1322 l 1,28,-1
 -13 1326 l 1,29,-1
 -102 1410 l 1,30,-1
 1230 1410 l 1,31,-1
 1312 1317 l 1,6,-1
EndSplineSet
EndChar

StartChar: pa
Encoding: 2474 2474 136
Width: 1044
GlyphClass: 2
Flags: W
AnchorPoint: "Anchor-1" 915 60 basechar 0
AnchorPoint: "Anchor-0" 885 1470 basechar 0
LayerCount: 2
Fore
SplineSet
206 1167 m 1,0,-1
 383 981 l 1,1,2
 542 1140 542 1140 582 1203 c 1,3,4
 379 1283 379 1283 291.5 1250 c 128,-1,5
 204 1217 204 1217 206 1167 c 1,0,-1
1158 1294 m 1,6,-1
 953 1305 l 1,7,-1
 950 0 l 1,8,-1
 854 99 l 1,9,-1
 850 894 l 1,10,11
 832 928 832 928 791 1022 c 128,-1,12
 750 1116 750 1116 656 1116 c 1,13,14
 624 1046 624 1046 551 980.5 c 128,-1,15
 478 915 478 915 410 849 c 2,16,-1
 317 755 l 1,17,-1
 242 824 l 1,18,-1
 325 908 l 1,19,-1
 170 1080 l 1,20,-1
 84 1019 l 1,21,-1
 4 1101 l 1,22,23
 24 1118 24 1118 65 1174.5 c 128,-1,24
 106 1231 106 1231 154 1271 c 0,25,26
 237 1340 237 1340 347 1351.5 c 128,-1,27
 457 1363 457 1363 558 1329 c 128,-1,28
 659 1295 659 1295 736 1221 c 128,-1,29
 813 1147 813 1147 857 1044 c 1,30,-1
 853 1548 l 1,31,-1
 948 1453 l 1,32,-1
 949 1401 l 1,33,-1
 1055 1398 l 1,34,-1
 1158 1294 l 1,6,-1
EndSplineSet
EndChar

StartChar: pha
Encoding: 2475 2475 137
Width: 1100
GlyphClass: 2
Flags: W
AnchorPoint: "Anchor-1" 690 120 basechar 0
AnchorPoint: "Anchor-0" 630 1380 basechar 0
LayerCount: 2
Fore
SplineSet
928 821 m 0,0,1
 871 821 871 821 871 765 c 0,2,3
 871 701 871 701 928 701 c 0,4,5
 979 701 979 701 979 762 c 0,6,7
 979 821 979 821 928 821 c 0,0,1
1173 1305 m 1,8,-1
 287 1304 l 1,9,-1
 493 970 l 1,10,-1
 275 701 l 1,11,12
 418 608 418 608 482.5 556.5 c 128,-1,13
 547 505 547 505 605 393 c 1,14,-1
 604 408 l 1,15,-1
 598 1226 l 1,16,-1
 724 1226 l 2,17,18
 906 1226 906 1226 1006 1140 c 0,19,20
 1105 1054 1105 1054 1105 879 c 0,21,22
 1105 765 1105 765 1062 712 c 0,23,24
 1026 664 1026 664 945 645 c 1,25,-1
 895 651 l 2,26,27
 874 653 874 653 851 672 c 0,28,29
 807 703 807 703 807 765 c 0,30,31
 807 809 807 809 835 841 c 0,32,33
 867 876 867 876 905 879 c 0,34,35
 961 880 961 880 992 849 c 0,36,37
 1003 835 1003 835 1009 802 c 0,38,39
 1011 789 1011 789 1027 823 c 128,-1,40
 1043 857 1043 857 1046 917 c 0,41,42
 1047 1008 1047 1008 979 1062 c 0,43,44
 901 1122 901 1122 698 1122 c 1,45,-1
 697 62 l 1,46,47
 690 84 690 84 674 108.5 c 128,-1,48
 658 133 658 133 643 158 c 2,49,-1
 582 261 l 2,50,51
 449 486 449 486 339 519.5 c 128,-1,52
 229 553 229 553 78 724 c 1,53,-1
 386 1013 l 1,54,-1
 231 1195 l 1,55,-1
 101 1305 l 1,56,-1
 1 1298 l 1,57,-1
 -77 1395 l 1,58,-1
 1084 1400 l 1,59,-1
 1173 1305 l 1,8,-1
EndSplineSet
EndChar

StartChar: ba
Encoding: 2476 2476 138
Width: 1208
GlyphClass: 2
Flags: W
AnchorPoint: "Anchor-1" 870 30 basechar 0
AnchorPoint: "Anchor-0" 810 1380 basechar 0
LayerCount: 2
Fore
SplineSet
804 242 m 1,0,-1
 800 1102 l 1,1,-1
 246 777 l 1,2,-1
 804 242 l 1,0,-1
900 1147 m 1,3,-1
 900 -7 l 1,4,-1
 73 787 l 1,5,-1
 802 1217 l 1,6,-1
 799 1304 l 1,7,-1
 -4 1304 l 1,8,-1
 -97 1400 l 1,9,-1
 1201 1400 l 1,10,-1
 1303 1302 l 1,11,-1
 898 1300 l 1,12,-1
 900 1147 l 1,3,-1
EndSplineSet
EndChar

StartChar: bha
Encoding: 2477 2477 139
Width: 1421
GlyphClass: 2
Flags: W
AnchorPoint: "Anchor-1" 900 90 basechar 0
AnchorPoint: "Anchor-0" 720 1395 basechar 0
LayerCount: 2
Fore
SplineSet
677 1208 m 0,0,1
 607 1208 607 1208 607 1135 c 0,2,3
 607 1063 607 1063 677 1063 c 0,4,5
 746 1063 746 1063 746 1135 c 0,6,7
 746 1208 746 1208 677 1208 c 0,0,1
1169 226 m 128,-1,9
 1100 156 1100 156 1021 113.5 c 128,-1,10
 942 71 942 71 844 71 c 0,11,12
 647 71 647 71 456 307 c 0,13,14
 300 497 300 497 190 791 c 0,15,16
 90 1050 90 1050 90 1193 c 1,17,-1
 120 1171 l 1,18,19
 122 1132 122 1132 129 1100 c 128,-1,20
 136 1068 136 1068 143 1045 c 0,21,22
 202 814 202 814 322 630 c 0,23,24
 450 428 450 428 534 350 c 0,25,26
 661 230 661 230 833 230 c 0,27,28
 980 230 980 230 1100 345 c 0,29,30
 1192 435 1192 435 1271 652 c 128,-1,31
 1350 869 1350 869 1214 899 c 1,32,33
 1045 687 1045 687 895.5 612.5 c 128,-1,34
 746 538 746 538 578.5 625.5 c 128,-1,35
 411 713 411 713 406.5 879 c 128,-1,36
 402 1045 402 1045 537 1208 c 0,37,38
 581 1261 581 1261 651 1261 c 0,39,40
 702 1261 702 1261 750 1237 c 0,41,42
 817 1203 817 1203 817 1113 c 1,43,44
 830 1047 830 1047 786.5 1014 c 128,-1,45
 743 981 743 981 617 992 c 1,46,47
 501 818 501 818 623.5 746 c 128,-1,48
 746 674 746 674 852.5 759 c 128,-1,49
 959 844 959 844 1183 1074 c 1,50,51
 1330 1047 1330 1047 1372.5 950.5 c 128,-1,52
 1415 854 1415 854 1386.5 713 c 128,-1,53
 1358 572 1358 572 1298 434 c 128,-1,8
 1238 296 1238 296 1169 226 c 128,-1,9
1501 1305 m 1,54,-1
 0 1304 l 1,55,-1
 -103 1400 l 1,56,-1
 1408 1405 l 1,57,-1
 1501 1305 l 1,54,-1
EndSplineSet
EndChar

StartChar: ma
Encoding: 2478 2478 140
Width: 1122
GlyphClass: 2
Flags: W
AnchorPoint: "Anchor-1" 885 45 basechar 0
AnchorPoint: "Anchor-0" 810 1365 basechar 0
LayerCount: 2
Fore
SplineSet
293 484 m 0,0,1
 209 481 209 481 192.5 462.5 c 128,-1,2
 176 444 176 444 167 398 c 0,3,4
 145 292 145 292 248 271 c 0,5,6
 289 262 289 262 327.5 275.5 c 128,-1,7
 366 289 366 289 398 330 c 1,8,9
 421 411 421 411 397.5 448.5 c 128,-1,10
 374 486 374 486 293 484 c 0,0,1
800 338 m 1,11,-1
 802 1302 l 1,12,-1
 342 1303 l 1,13,14
 194 1142 194 1142 153 949 c 1,15,16
 192 780 192 780 413 662 c 1,17,-1
 499 585 l 1,18,19
 709 540 709 540 800 338 c 1,11,-1
1222 1308 m 1,20,-1
 905 1300 l 1,21,-1
 897 -5 l 1,22,-1
 801 149 l 1,23,-1
 735 269 l 1,24,25
 634 442 634 442 504 458 c 1,26,27
 555 343 555 343 480 245 c 1,28,29
 256 55 256 55 99 231 c 1,30,31
 -31 350 -31 350 82 489 c 1,32,33
 202 617 202 617 391 554 c 1,34,35
 350 587 350 587 237.5 633.5 c 128,-1,36
 125 680 125 680 55 889 c 1,37,38
 54 1131 54 1131 241 1306 c 1,39,-1
 -14 1307 l 1,40,-1
 -96 1395 l 1,41,-1
 1119 1391 l 1,42,-1
 1222 1308 l 1,20,-1
EndSplineSet
EndChar

StartChar: ya
Encoding: 2479 2479 141
Width: 1007
GlyphClass: 2
Flags: W
AnchorPoint: "Anchor-1" 930 75 basechar 0
AnchorPoint: "Anchor-0" 840 1365 basechar 0
LayerCount: 2
Fore
SplineSet
802 1298 m 1,0,-1
 273 1298 l 1,1,-1
 624 970 l 1,2,-1
 285 686 l 1,3,4
 360 679 360 679 432 653 c 128,-1,5
 504 627 504 627 612 569 c 0,6,7
 718 511 718 511 800 390 c 1,8,-1
 802 1298 l 1,0,-1
1111 1298 m 1,9,-1
 899 1298 l 1,10,-1
 907 13 l 1,11,-1
 809 98 l 1,12,13
 775 288 775 288 723 358 c 128,-1,14
 671 428 671 428 560 480 c 2,15,-1
 484 517 l 1,16,-1
 384 547 l 1,17,-1
 199 576 l 1,18,-1
 35 608 l 1,19,-1
 430 1022 l 1,20,-1
 398 1058 l 2,21,22
 363 1093 363 1093 142 1296 c 1,23,-1
 -4 1297 l 1,24,-1
 -1 1298 l 1,25,-1
 -41 1343 l 1,26,-1
 -80 1390 l 1,27,-1
 1021 1390 l 1,28,-1
 1111 1298 l 1,9,-1
EndSplineSet
EndChar

StartChar: ra
Encoding: 2480 2480 142
Width: 1105
GlyphClass: 2
Flags: W
AnchorPoint: "Anchor-1" 855 75 basechar 0
AnchorPoint: "Anchor-0" 795 1395 basechar 0
LayerCount: 2
Fore
SplineSet
754 347 m 1,0,-1
 753 1046 l 1,1,-1
 240 797 l 1,2,-1
 735 346 l 1,3,-1
 754 347 l 1,0,-1
852 1137 m 1,4,-1
 856 8 l 1,5,-1
 704 214 l 1,6,-1
 40 809 l 1,7,-1
 752 1176 l 1,8,-1
 748 1301 l 1,9,-1
 -1 1303 l 1,10,-1
 -104 1398 l 1,11,-1
 1097 1400 l 1,12,-1
 1204 1301 l 1,13,-1
 856 1306 l 1,14,-1
 852 1137 l 1,4,-1
347.5 189 m 128,-1,16
 364 171 364 171 385 171 c 0,17,18
 407 171 407 171 423 189 c 128,-1,19
 439 207 439 207 439 232 c 0,20,21
 439 258 439 258 424 275 c 128,-1,22
 409 292 409 292 387 292 c 128,-1,23
 365 292 365 292 348 274.5 c 128,-1,24
 331 257 331 257 331 232 c 128,-1,15
 331 207 331 207 347.5 189 c 128,-1,16
388 360 m 0,25,26
 496 360 496 360 496 238 c 0,27,28
 496 117 496 117 388 117 c 0,29,30
 279 117 279 117 279 238 c 0,31,32
 279 360 279 360 388 360 c 0,25,26
EndSplineSet
EndChar

StartChar: la
Encoding: 2482 2482 143
Width: 1427
GlyphClass: 2
Flags: W
AnchorPoint: "Anchor-1" 1200 75 basechar 0
AnchorPoint: "Anchor-0" 1155 1410 basechar 0
LayerCount: 2
Fore
SplineSet
443 427 m 0,0,1
 403 427 403 427 395 361.5 c 128,-1,2
 387 296 387 296 443 296 c 0,3,4
 501 296 501 296 501 361 c 0,5,6
 501 427 501 427 443 427 c 0,0,1
1496 1304 m 1,7,-1
 1251 1300 l 1,8,-1
 1251 -3 l 1,9,-1
 1153 89 l 1,10,-1
 1148 550 l 1,11,12
 1015 661 1015 661 944.5 662 c 128,-1,13
 874 663 874 663 826 610 c 0,14,15
 781 561 781 561 742 460 c 1,16,17
 632 615 632 615 601 638.5 c 128,-1,18
 570 662 570 662 381 764 c 1,19,20
 243 757 243 757 184.5 685 c 128,-1,21
 126 613 126 613 131 517.5 c 128,-1,22
 136 422 136 422 164.5 342.5 c 128,-1,23
 193 263 193 263 312 269 c 1,24,25
 252 304 252 304 262 360 c 128,-1,26
 272 416 272 416 325 472 c 0,27,28
 362 512 362 512 451 512 c 0,29,30
 603 512 603 512 603 335 c 0,31,32
 603 252 603 252 531 207 c 0,33,34
 460 159 460 159 363 159 c 0,35,36
 284 159 284 159 229.5 186 c 128,-1,37
 175 213 175 213 119 265 c 0,38,39
 -12 386 -12 386 38.5 619 c 128,-1,40
 89 852 89 852 263 871 c 0,41,42
 433 888 433 888 536 803 c 128,-1,43
 639 718 639 718 729 638 c 1,44,45
 741 694 741 694 807.5 761 c 128,-1,46
 874 828 874 828 963 800 c 0,47,48
 1061 770 1061 770 1138 715 c 1,49,-1
 1145 700 l 1,50,-1
 1154 1303 l 1,51,-1
 0 1299 l 1,52,-1
 -104 1400 l 1,53,-1
 1398 1397 l 1,54,-1
 1496 1304 l 1,7,-1
742 460 m 0,55,56
 740 453 740 453 737 446 c 2,57,-1
 743 459 l 2,58,59
 743 460 743 460 742 460 c 0,55,56
EndSplineSet
EndChar

StartChar: sha
Encoding: 2486 2486 144
Width: 1348
GlyphClass: 2
Flags: W
AnchorPoint: "Anchor-1" 1215 90 basechar 0
AnchorPoint: "Anchor-0" 1155 1485 basechar 0
LayerCount: 2
Fore
SplineSet
664 1025 m 0,0,1
 597 1025 597 1025 597 954 c 0,2,3
 597 880 597 880 670 880 c 0,4,5
 742 880 742 880 742 954 c 0,6,7
 742 1025 742 1025 664 1025 c 0,0,1
341 988 m 1,8,9
 315 988 315 988 297 961 c 128,-1,10
 279 934 279 934 279 911 c 0,11,12
 279 856 279 856 341 856 c 0,13,14
 386 856 386 856 424 893 c 0,15,16
 447 915 447 915 434 964 c 128,-1,17
 421 1013 421 1013 341 988 c 1,8,9
1239 -17 m 1,18,-1
 1149 75 l 1,19,-1
 1148 937 l 1,20,21
 1162 980 1162 980 1064 1114.5 c 128,-1,22
 966 1249 966 1249 890 1261 c 0,23,24
 751 1285 751 1285 691 1224 c 128,-1,25
 631 1163 631 1163 631 1131 c 1,26,27
 791 1091 791 1091 820 1011 c 128,-1,28
 849 931 849 931 805 873.5 c 128,-1,29
 761 816 761 816 676 814.5 c 128,-1,30
 591 813 591 813 524 934 c 1,31,32
 495 800 495 800 418 777.5 c 128,-1,33
 341 755 341 755 277.5 792.5 c 128,-1,34
 214 830 214 830 194 902 c 128,-1,35
 174 974 174 974 258 1030 c 0,36,37
 328 1075 328 1075 366.5 1087.5 c 128,-1,38
 405 1100 405 1100 411 1119 c 0,39,40
 441 1201 441 1201 301.5 1221 c 128,-1,41
 162 1241 162 1241 53 1301 c 0,42,43
 37 1308 37 1308 37.5 1333.5 c 128,-1,44
 38 1359 38 1359 29 1376 c 1,45,46
 145 1354 145 1354 304 1332.5 c 128,-1,47
 463 1311 463 1311 519 1150 c 1,48,49
 659 1371 659 1371 870 1357 c 128,-1,50
 1081 1343 1081 1343 1145 1126 c 1,51,-1
 1149 1090 l 1,52,-1
 1147 1568 l 1,53,54
 1213 1476 1213 1476 1258 1433 c 1,55,-1
 1256 1395 l 1,56,-1
 1346 1394 l 1,57,-1
 1449 1298 l 1,58,-1
 1246 1303 l 1,59,-1
 1239 -17 l 1,18,-1
EndSplineSet
EndChar

StartChar: ssa
Encoding: 2487 2487 145
Width: 1050
GlyphClass: 2
Flags: W
AnchorPoint: "Anchor-1" 945 105 basechar 0
AnchorPoint: "Anchor-0" 855 1395 basechar 0
LayerCount: 2
Fore
SplineSet
638 972 m 1,0,-1
 847 898 l 1,1,-1
 850 1302 l 1,2,-1
 243 1302 l 1,3,-1
 638 972 l 1,0,-1
851 812 m 1,4,-1
 557 909 l 1,5,-1
 298 693 l 1,6,7
 376 684 376 684 449 659 c 0,8,9
 510 637 510 637 632 574 c 1,10,11
 751 506 751 506 797 480 c 0,12,13
 836 459 836 459 849 384 c 1,14,-1
 851 812 l 1,4,-1
1151 1299 m 1,15,-1
 954 1307 l 1,16,-1
 953 7 l 1,17,18
 931 55 931 55 912 112 c 0,19,20
 893 165 893 165 843 228 c 0,21,22
 791 289 791 289 750 348 c 0,23,24
 695 420 695 420 584 473 c 2,25,-1
 507 510 l 1,26,-1
 403 541 l 1,27,-1
 216 570 l 1,28,-1
 50 604 l 1,29,-1
 452 1024 l 1,30,-1
 200 1196 l 1,31,-1
 86 1296 l 2,32,33
 65 1313 65 1313 39 1308 c 128,-1,34
 13 1303 13 1303 11 1307 c 2,35,-1
 -97 1400 l 1,36,-1
 1053 1400 l 1,37,-1
 1151 1299 l 1,15,-1
EndSplineSet
EndChar

StartChar: sa
Encoding: 2488 2488 146
Width: 1197
GlyphClass: 2
Flags: W
AnchorPoint: "Anchor-1" 945 90 basechar 0
AnchorPoint: "Anchor-0" 870 1395 basechar 0
LayerCount: 2
Fore
SplineSet
849 552 m 1,0,-1
 851 1299 l 1,1,-1
 311 1299 l 1,2,3
 270 1253 270 1253 267 1248 c 0,4,5
 243 1218 243 1218 233.5 1192.5 c 128,-1,6
 224 1167 224 1167 219 1152 c 0,7,8
 170 1010 170 1010 284 966.5 c 128,-1,9
 398 923 398 923 510 737 c 1,10,-1
 849 552 l 1,0,-1
1298 1299 m 1,11,-1
 949 1304 l 1,12,-1
 949 -2 l 1,13,-1
 851 100 l 1,14,-1
 852 398 l 1,15,-1
 832 418 l 1,16,-1
 529 597 l 2,17,18
 514 606 514 606 512.5 451.5 c 128,-1,19
 511 297 511 297 421 194 c 0,20,21
 390 159 390 159 331 143.5 c 128,-1,22
 272 128 272 128 207 128 c 0,23,24
 105 128 105 128 28 218 c 0,25,26
 10 238 10 238 -32 307 c 1,27,-1
 54 385 l 1,28,29
 81 332 81 332 94 316 c 0,30,31
 145 244 145 244 201 244 c 0,32,33
 296 244 296 244 347 292 c 0,34,35
 397 343 397 343 432 451 c 1,36,37
 420 559 420 559 404.5 664.5 c 128,-1,38
 389 770 389 770 335 796 c 0,39,40
 205 855 205 855 122.5 968 c 128,-1,41
 40 1081 40 1081 129 1234 c 0,42,43
 142 1258 142 1258 174 1299 c 1,44,-1
 -8 1299 l 1,45,-1
 -115 1400 l 1,46,-1
 1206 1395 l 1,47,-1
 1298 1299 l 1,11,-1
EndSplineSet
EndChar

StartChar: ha
Encoding: 2489 2489 147
Width: 1109
GlyphClass: 2
Flags: W
AnchorPoint: "Anchor-1" 1005 105 basechar 0
AnchorPoint: "Anchor-0" 450 1380 basechar 0
LayerCount: 2
Fore
SplineSet
497 1220 m 1,0,1
 599 1087 599 1087 587 1002 c 128,-1,2
 575 917 575 917 536.5 882.5 c 128,-1,3
 498 848 498 848 432.5 838 c 128,-1,4
 367 828 367 828 247 870 c 1,5,6
 219 908 219 908 192.5 938.5 c 128,-1,7
 166 969 166 969 144 1112 c 0,8,9
 138 1172 138 1172 209 1219.5 c 128,-1,10
 280 1267 280 1267 403 1301 c 1,11,-1
 -3 1307 l 1,12,-1
 -82 1400 l 1,13,-1
 772 1400 l 1,14,-1
 880 1400 l 1,15,-1
 1091 1400 l 1,16,-1
 1202 1304 l 1,17,-1
 503 1309 l 1,18,19
 630 1292 630 1292 710.5 1259 c 128,-1,20
 791 1226 791 1226 869 1118 c 0,21,22
 947 1008 947 1008 982 946 c 128,-1,23
 1017 884 1017 884 1017 771 c 0,24,25
 1017 586 1017 586 801 464 c 0,26,27
 719 416 719 416 652 399 c 0,28,29
 613 389 613 389 585 388 c 0,30,31
 262 422 262 422 394 362 c 1,32,-1
 595 365 l 1,33,34
 630 356 630 356 667 335.5 c 128,-1,35
 704 315 704 315 744 297 c 0,36,37
 762 285 762 285 782.5 273.5 c 128,-1,38
 803 262 803 262 817 254 c 0,39,40
 832 246 832 246 852 230.5 c 128,-1,41
 872 215 872 215 895 200 c 0,42,43
 1079 63 1079 63 1222 -118 c 1,44,-1
 1190 -183 l 1,45,46
 1104 -93 1104 -93 1023.5 1 c 128,-1,47
 943 95 943 95 824 144 c 2,48,-1
 665 207 l 1,49,-1
 480 263 l 1,50,-1
 249 309 l 1,51,-1
 128 486 l 1,52,-1
 236 520 l 1,53,54
 278 505 278 505 319.5 501 c 128,-1,55
 361 497 361 497 399 497 c 1,56,57
 570 467 570 467 743 551 c 1,58,59
 850 614 850 614 896.5 684 c 128,-1,60
 943 754 943 754 928 854 c 1,61,62
 925 940 925 940 823 1066.5 c 128,-1,63
 721 1193 721 1193 497 1220 c 1,0,1
482 1124 m 1,64,65
 315 1194 315 1194 248.5 1113 c 128,-1,66
 182 1032 182 1032 330 933 c 0,67,68
 412 874 412 874 476 929.5 c 128,-1,69
 540 985 540 985 482 1124 c 1,64,65
EndSplineSet
EndChar

StartChar: nukta
Encoding: 2492 2492 148
Width: 9
GlyphClass: 2
Flags: W
LayerCount: 2
Fore
SplineSet
-645 -224 m 0,0,1
 -645 -168 -645 -168 -604 -126.5 c 128,-1,2
 -563 -85 -563 -85 -508 -85 c 0,3,4
 -455 -85 -455 -85 -418.5 -124 c 128,-1,5
 -382 -163 -382 -163 -382 -223 c 0,6,7
 -382 -282 -382 -282 -420.5 -322.5 c 128,-1,8
 -459 -363 -459 -363 -514 -363 c 0,9,10
 -567 -363 -567 -363 -606 -322 c 128,-1,11
 -645 -281 -645 -281 -645 -224 c 0,0,1
-571.5 -276.5 m 128,-1,13
 -548 -301 -548 -301 -517 -301 c 0,14,15
 -484 -301 -484 -301 -461 -277 c 128,-1,16
 -438 -253 -438 -253 -438 -217 c 0,17,18
 -438 -182 -438 -182 -460 -158.5 c 128,-1,19
 -482 -135 -482 -135 -513 -135 c 0,20,21
 -546 -135 -546 -135 -570.5 -160 c 128,-1,22
 -595 -185 -595 -185 -595 -218 c 0,23,12
 -595 -252 -595 -252 -571.5 -276.5 c 128,-1,13
EndSplineSet
EndChar

StartChar: uni09BD
Encoding: 2493 2493 149
Width: 1109
GlyphClass: 2
Flags: W
AnchorPoint: "Anchor-1" 1005 105 basechar 0
LayerCount: 2
Fore
SplineSet
438 1232 m 1,0,1
 502 1079 502 1079 458 977.5 c 128,-1,2
 414 876 414 876 330 933 c 0,3,4
 99 1089 99 1089 204 1221 c 0,5,6
 270 1303 270 1303 438 1232 c 1,0,1
16 1192 m 1,7,8
 -2 1162 -2 1162 192 938 c 0,9,10
 219 908 219 908 247 870 c 1,11,12
 367 828 367 828 432.5 838 c 128,-1,13
 498 848 498 848 536.5 882.5 c 128,-1,14
 575 917 575 917 587 1002 c 128,-1,15
 599 1087 599 1087 497 1220 c 1,16,17
 721 1193 721 1193 823 1066.5 c 128,-1,18
 925 940 925 940 928 854 c 1,19,20
 943 754 943 754 896.5 684 c 128,-1,21
 850 614 850 614 743 551 c 1,22,23
 570 467 570 467 399 497 c 1,24,25
 361 497 361 497 319.5 501 c 128,-1,26
 278 505 278 505 236 520 c 1,27,-1
 128 486 l 1,28,-1
 249 309 l 1,29,-1
 480 263 l 1,30,-1
 665 207 l 1,31,-1
 824 144 l 2,32,33
 940 98 940 98 1024 1 c 0,34,35
 1104 -93 1104 -93 1190 -183 c 1,36,-1
 1222 -118 l 1,37,38
 1071 72 1071 72 895 200 c 0,39,40
 873 216 873 216 852 230 c 0,41,42
 820 253 820 253 817 254 c 0,43,44
 803 259 803 259 782 274 c 0,45,46
 763 287 763 287 744 297 c 0,47,48
 706 317 706 317 667 336 c 0,49,50
 617 359 617 359 595 365 c 1,51,-1
 394 362 l 1,52,53
 263 424 263 424 585 388 c 0,54,55
 603 386 603 386 652 399 c 0,56,57
 719 416 719 416 801 464 c 0,58,59
 1017 590 1017 590 1017 771 c 0,60,61
 1017 884 1017 884 982 946 c 128,-1,62
 947 1008 947 1008 869 1118 c 1,63,-1
 821 1174 l 1,64,65
 847 1312 847 1312 302 1489 c 0,66,67
 283 1495 283 1495 274.5 1499.5 c 128,-1,68
 266 1504 266 1504 235 1537 c 128,-1,69
 204 1570 204 1570 174 1582 c 0,70,71
 146 1593 146 1593 131 1598 c 128,-1,72
 116 1603 116 1603 96 1606 c 0,73,74
 62 1613 62 1613 56 1575 c 0,75,76
 53 1562 53 1562 53.5 1561 c 128,-1,77
 54 1560 54 1560 56 1548 c 0,78,79
 56 1542 56 1542 59 1538 c 0,80,81
 65 1529 65 1529 65 1528 c 0,82,83
 67 1527 67 1527 72 1521 c 0,84,85
 74 1519 74 1519 80 1514 c 0,86,87
 88 1508 88 1508 90 1507 c 0,88,89
 93 1503 93 1503 99 1501 c 0,90,91
 118 1494 118 1494 116 1490 c 1,92,93
 116 1490 116 1490 176 1460 c 0,94,95
 271 1412 271 1412 266 1399 c 0,96,97
 256 1366 256 1366 250 1364 c 0,98,99
 145 1336 145 1336 16 1192 c 1,7,8
EndSplineSet
EndChar

StartChar: aakaar
Encoding: 2494 2494 150
Width: 454
GlyphClass: 2
Flags: W
LayerCount: 2
Fore
SplineSet
211 1318 m 1,0,-1
 209 1540 l 1,1,-1
 295 1452 l 1,2,-1
 297 1405 l 1,3,-1
 299 1393 l 1,4,-1
 458 1393 l 1,5,-1
 550 1297 l 1,6,-1
 307 1297 l 1,7,-1
 303 -4 l 1,8,-1
 200 99 l 1,9,-1
 203 1196 l 1,10,11
 189 1313 189 1313 -2 1299 c 1,12,-1
 -102 1396 l 1,13,-1
 76 1402 l 1,14,-1
 211 1318 l 1,0,-1
EndSplineSet
EndChar

StartChar: ikaar
Encoding: 2495 2495 151
Width: 300
GlyphClass: 2
Flags: W
LayerCount: 2
Fore
SplineSet
156 1397 m 1,0,-1
 296 1398 l 1,1,-1
 406 1297 l 1,2,-1
 203 1300 l 1,3,-1
 199 -4 l 1,4,-1
 98 99 l 1,5,-1
 99 1298 l 1,6,-1
 0 1298 l 1,7,-1
 -97 1401 l 1,8,-1
 75 1402 l 2,9,10
 68 1403 68 1403 16.5 1418.5 c 128,-1,11
 -35 1434 -35 1434 -12 1501 c 0,12,13
 45 1678 45 1678 298.5 1748.5 c 128,-1,14
 552 1819 552 1819 780 1773 c 0,15,16
 1006 1725 1006 1725 1081 1621 c 128,-1,17
 1156 1517 1156 1517 1209 1468 c 1,18,19
 1182 1462 1182 1462 1090 1507.5 c 128,-1,20
 998 1553 998 1553 839 1657 c 1,21,22
 681 1702 681 1702 493 1696.5 c 128,-1,23
 305 1691 305 1691 220.5 1622.5 c 128,-1,24
 136 1554 136 1554 125 1492 c 0,25,26
 116 1439 116 1439 156 1397 c 1,0,-1
EndSplineSet
EndChar

StartChar: iikaar
Encoding: 2496 2496 152
Width: 308
GlyphClass: 2
Flags: W
LayerCount: 2
Fore
SplineSet
39 1398 m 1,0,-1
 90 1397 l 1,1,2
 64 1407 64 1407 39 1398 c 1,0,-1
-7 1399 m 1,3,4
 -373 1538 -373 1538 -456 1488 c 0,5,6
 -543 1435 -543 1435 -631.5 1429 c 128,-1,7
 -720 1423 -720 1423 -798 1444 c 128,-1,8
 -876 1465 -876 1465 -880.5 1521.5 c 128,-1,9
 -885 1578 -885 1578 -848.5 1614 c 128,-1,10
 -812 1650 -812 1650 -746.5 1718 c 128,-1,11
 -681 1786 -681 1786 -508.5 1794 c 128,-1,12
 -336 1802 -336 1802 -244 1795.5 c 128,-1,13
 -152 1789 -152 1789 -1 1745 c 128,-1,14
 150 1701 150 1701 188 1550 c 0,15,16
 226 1403 226 1403 202 1400 c 2,17,-1
 311 1402 l 1,18,-1
 407 1296 l 1,19,-1
 198 1303 l 1,20,-1
 198 -3 l 1,21,-1
 102 90 l 1,22,-1
 102 1299 l 1,23,-1
 0 1300 l 1,24,-1
 -104 1400 l 1,25,-1
 -7 1399 l 1,3,4
90 1415 m 1,26,27
 92 1422 92 1422 111 1442 c 0,28,29
 135 1466 135 1466 110.5 1498 c 128,-1,30
 86 1530 86 1530 82 1556.5 c 128,-1,31
 78 1583 78 1583 8.5 1604 c 128,-1,32
 -61 1625 -61 1625 -83 1636.5 c 128,-1,33
 -105 1648 -105 1648 -202 1681.5 c 128,-1,34
 -299 1715 -299 1715 -373.5 1704 c 128,-1,35
 -448 1693 -448 1693 -549 1684 c 128,-1,36
 -650 1675 -650 1675 -699.5 1640 c 128,-1,37
 -749 1605 -749 1605 -702.5 1564.5 c 128,-1,38
 -656 1524 -656 1524 -557 1574.5 c 128,-1,39
 -458 1625 -458 1625 -321 1611.5 c 128,-1,40
 -184 1598 -184 1598 -87.5 1543.5 c 128,-1,41
 9 1489 9 1489 50 1455 c 0,42,43
 87 1425 87 1425 90 1415 c 1,26,27
EndSplineSet
EndChar

StartChar: ukaar
Encoding: 2497 2497 153
Width: 10
GlyphClass: 4
Flags: W
AnchorPoint: "Anchor-1" -210 -15 mark 0
LayerCount: 2
Fore
SplineSet
-463 -292 m 1,0,-1
 260 -571 l 1,1,-1
 243 -620 l 1,2,-1
 -504 -405 l 1,3,4
 -591 -510 -591 -510 -744 -510 c 0,5,6
 -860 -510 -860 -510 -942.5 -444.5 c 128,-1,7
 -1025 -379 -1025 -379 -1025 -290 c 0,8,9
 -1025 -199 -1025 -199 -942.5 -134.5 c 128,-1,10
 -860 -70 -860 -70 -744 -70 c 0,11,12
 -611 -70 -611 -70 -528 -152 c 1,13,-1
 -356 12 l 1,14,-1
 -260 10 l 1,15,-1
 -474 -231 l 2,16,17
 -476 -239 -476 -239 -469.5 -262 c 128,-1,18
 -463 -285 -463 -285 -463 -292 c 1,0,-1
-723 -157 m 0,19,20
 -776 -128 -776 -128 -859.5 -173 c 128,-1,21
 -943 -218 -943 -218 -943 -271 c 0,22,23
 -943 -325 -943 -325 -868 -351 c 128,-1,24
 -793 -377 -793 -377 -738 -377 c 0,25,26
 -682 -377 -682 -377 -642.5 -342.5 c 128,-1,27
 -603 -308 -603 -308 -603 -274 c 0,28,29
 -603 -227 -603 -227 -723 -157 c 0,19,20
EndSplineSet
EndChar

StartChar: uukaar
Encoding: 2498 2498 154
Width: 10
GlyphClass: 4
Flags: W
AnchorPoint: "Anchor-1" -465 0 mark 0
LayerCount: 2
Fore
SplineSet
-306 -147 m 1,0,1
 -210 -467 -210 -467 188 -480 c 1,2,-1
 186 -560 l 1,3,4
 -206 -563 -206 -563 -306 -300 c 1,5,6
 -322 -340 -322 -340 -350 -392.5 c 128,-1,7
 -378 -445 -378 -445 -441 -445 c 0,8,9
 -521 -445 -521 -445 -576 -395 c 128,-1,10
 -631 -345 -631 -345 -664 -290 c 0,11,12
 -713 -203 -713 -203 -647.5 -69 c 128,-1,13
 -582 65 -582 65 -580 65 c 2,14,-1
 -493 40 l 1,15,16
 -502 33 -502 33 -523.5 0 c 128,-1,17
 -545 -33 -545 -33 -573.5 -66.5 c 128,-1,18
 -602 -100 -602 -100 -619 -141 c 128,-1,19
 -636 -182 -636 -182 -610 -227 c 0,20,21
 -558 -315 -558 -315 -512 -332.5 c 128,-1,22
 -466 -350 -466 -350 -420 -350 c 0,23,24
 -373 -350 -373 -350 -355 -277.5 c 128,-1,25
 -337 -205 -337 -205 -306 -147 c 1,0,1
EndSplineSet
EndChar

StartChar: rrikaar
Encoding: 2499 2499 155
Width: 2
GlyphClass: 4
Flags: W
AnchorPoint: "Anchor-1" -270 -15 mark 0
LayerCount: 2
Fore
SplineSet
-392 -261 m 1,0,-1
 -401 -263 l 1,1,-1
 -37 -430 l 1,2,-1
 25 -540 l 1,3,-1
 -580 -285 l 1,4,-1
 -201 -12 l 1,5,-1
 -58 -8 l 1,6,-1
 -392 -261 l 1,0,-1
EndSplineSet
EndChar

StartChar: rrikaar
Encoding: 2500 2500 156
Width: 0
GlyphClass: 2
Flags: W
LayerCount: 2
Fore
SplineSet
-402 -212 m 1,0,-1
 -412 -212 l 1,1,-1
 30 -367 l 1,2,-1
 105 -471 l 1,3,-1
 -527 -264 l 1,4,-1
 -656 -341 l 1,5,-1
 -665 -344 l 1,6,-1
 -224 -499 l 1,7,-1
 -149 -600 l 1,8,-1
 -884 -363 l 1,9,-1
 -517 -150 l 1,10,-1
 -496 -158 l 1,11,-1
 -169 21 l 1,12,-1
 4 25 l 1,13,-1
 -402 -212 l 1,0,-1
EndSplineSet
EndChar

StartChar: ekkar
Encoding: 2503 2503 157
Width: 696
GlyphClass: 2
Flags: W
LayerCount: 2
Fore
SplineSet
348 215 m 0,0,1
 348 272 348 272 387.5 315.5 c 128,-1,2
 427 359 427 359 479 359 c 0,3,4
 530 359 530 359 565.5 318.5 c 128,-1,5
 601 278 601 278 601 216 c 0,6,7
 601 155 601 155 563.5 113.5 c 128,-1,8
 526 72 526 72 474 72 c 0,9,10
 423 72 423 72 385.5 114 c 128,-1,11
 348 156 348 156 348 215 c 0,0,1
801 1300 m 1,12,-1
 702 1400 l 1,13,-1
 -104 1400 l 1,14,-1
 -2 1302 l 1,15,-1
 382 1303 l 1,16,-1
 282 1219 l 1,17,18
 181 1102 181 1102 46 860 c 1,19,20
 -39 657 -39 657 20 453 c 0,21,22
 85 218 85 218 269 38 c 1,23,24
 417 -47 417 -47 626 20 c 1,25,26
 717 118 717 118 708 249 c 1,27,28
 714 425 714 425 511 474 c 1,29,30
 308 436 308 436 239 241 c 1,31,-1
 227 274 l 1,32,33
 197 291 197 291 115 463 c 1,34,35
 111 685 111 685 163 873 c 1,36,37
 284 1114 284 1114 517 1305 c 1,38,-1
 801 1300 l 1,12,-1
EndSplineSet
EndChar

StartChar: aikaar
Encoding: 2504 2504 158
Width: 794
GlyphClass: 2
Flags: W
LayerCount: 2
Fore
SplineSet
909 1299 m 1,0,-1
 799 1401 l 1,1,-1
 646 1399 l 1,2,3
 781 1447 781 1447 779 1513.5 c 128,-1,4
 777 1580 777 1580 622 1639.5 c 128,-1,5
 467 1699 467 1699 398 1700 c 128,-1,6
 329 1701 329 1701 276 1715.5 c 128,-1,7
 223 1730 223 1730 188.5 1744.5 c 128,-1,8
 154 1759 154 1759 59 1833 c 1,9,10
 105 1680 105 1680 186.5 1656.5 c 128,-1,11
 268 1633 268 1633 452.5 1604 c 128,-1,12
 637 1575 637 1575 651 1550 c 1,13,14
 716 1466 716 1466 507 1398 c 1,15,-1
 -99 1399 l 1,16,-1
 2 1301 l 1,17,-1
 435 1302 l 1,18,-1
 346 1222 l 1,19,20
 246 1107 246 1107 114 869 c 1,21,22
 30 669 30 669 88 468 c 0,23,24
 152 237 152 237 333 60 c 1,25,26
 479 -23 479 -23 684 43 c 1,27,28
 774 139 774 139 765 268 c 1,29,30
 771 441 771 441 571 489 c 1,31,32
 372 452 372 452 303 260 c 1,33,-1
 292 293 l 1,34,35
 262 309 262 309 181 479 c 1,36,37
 178 697 178 697 229 882 c 1,38,39
 347 1119 347 1119 573 1304 c 1,40,-1
 909 1299 l 1,0,-1
440 240 m 0,41,42
 440 297 440 297 479 339 c 128,-1,43
 518 381 518 381 569 381 c 0,44,45
 619 381 619 381 654 341.5 c 128,-1,46
 689 302 689 302 689 241 c 0,47,48
 689 182 689 182 652.5 140.5 c 128,-1,49
 616 99 616 99 564 99 c 0,50,51
 514 99 514 99 477 140.5 c 128,-1,52
 440 182 440 182 440 240 c 0,41,42
EndSplineSet
EndChar

StartChar: okaar
Encoding: 2507 2507 159
Width: 2537
GlyphClass: 2
Flags: W
LayerCount: 2
Fore
SplineSet
1944 987 m 1,0,1
 2034 707 2034 707 1954 467 c 1,2,-1
 1824 497 l 1,3,4
 1874 717 1874 717 1834 927 c 1,5,-1
 1944 987 l 1,0,1
1718 211 m 1,6,7
 1438 121 1438 121 1198 201 c 1,8,-1
 1228 331 l 1,9,10
 1448 281 1448 281 1658 321 c 1,11,-1
 1718 211 l 1,6,7
1180 1225 m 1,12,13
 1460 1315 1460 1315 1700 1235 c 1,14,-1
 1670 1105 l 1,15,16
 1450 1155 1450 1155 1240 1115 c 1,17,-1
 1180 1225 l 1,12,13
940 427 m 1,18,19
 850 707 850 707 930 947 c 1,20,-1
 1060 917 l 1,21,22
 1010 697 1010 697 1050 487 c 1,23,-1
 940 427 l 1,18,19
439 237 m 0,24,25
 439 294 439 294 478 337 c 128,-1,26
 517 380 517 380 569 380 c 0,27,28
 620 380 620 380 655.5 339.5 c 128,-1,29
 691 299 691 299 691 238 c 128,-1,30
 691 177 691 177 653.5 135.5 c 128,-1,31
 616 94 616 94 564 94 c 0,32,33
 513 94 513 94 476 136 c 128,-1,34
 439 178 439 178 439 237 c 0,24,25
876 1311 m 1,35,-1
 807 1397 l 1,36,-1
 -93 1401 l 1,37,-1
 -25 1309 l 1,38,-1
 446 1301 l 1,39,-1
 348 1233 l 1,40,41
 248 1117 248 1117 114 876 c 1,42,43
 29 674 29 674 87 471 c 0,44,45
 152 237 152 237 335 57 c 1,46,47
 483 -27 483 -27 691 40 c 1,48,49
 782 137 782 137 773 267 c 1,50,51
 779 443 779 443 577 492 c 1,52,53
 375 454 375 454 305 260 c 1,54,-1
 294 293 l 1,55,56
 263 309 263 309 182 481 c 1,57,58
 178 702 178 702 230 889 c 1,59,60
 350 1129 350 1129 587 1304 c 1,61,-1
 876 1311 l 1,35,-1
2329 1308 m 1,62,-1
 2325 1560 l 1,63,-1
 2457 1468 l 1,64,-1
 2455 1391 l 1,65,-1
 2470 1394 l 1,66,-1
 2539 1391 l 1,67,-1
 2620 1308 l 1,68,-1
 2466 1310 l 1,69,-1
 2454 1255 l 1,70,-1
 2453 57 l 1,71,-1
 2329 50 l 1,72,-1
 2329 1197 l 1,73,74
 2324 1155 2324 1155 2258.5 1260 c 128,-1,75
 2193 1365 2193 1365 2007 1394 c 1,76,-1
 2230 1388 l 1,77,-1
 2329 1308 l 1,62,-1
EndSplineSet
EndChar

StartChar: aukaar
Encoding: 2508 2508 160
Width: 2709
GlyphClass: 2
Flags: W
LayerCount: 2
Fore
SplineSet
1874 1037 m 1,0,1
 1964 757 1964 757 1884 517 c 1,2,-1
 1754 547 l 1,3,4
 1804 767 1804 767 1764 977 c 1,5,-1
 1874 1037 l 1,0,1
1648 261 m 1,6,7
 1368 171 1368 171 1128 251 c 1,8,-1
 1158 381 l 1,9,10
 1378 331 1378 331 1588 371 c 1,11,-1
 1648 261 l 1,6,7
1110 1275 m 1,12,13
 1390 1365 1390 1365 1630 1285 c 1,14,-1
 1600 1155 l 1,15,16
 1380 1205 1380 1205 1170 1165 c 1,17,-1
 1110 1275 l 1,12,13
870 477 m 1,18,19
 780 757 780 757 860 997 c 1,20,-1
 990 967 l 1,21,22
 940 747 940 747 980 537 c 1,23,-1
 870 477 l 1,18,19
2088 1299 m 1,24,-1
 2337 1292 l 1,25,26
 2650 1428 2650 1428 2629.5 1490.5 c 128,-1,27
 2609 1553 2609 1553 2387 1529 c 1,28,29
 2286 1474 2286 1474 2198 1458.5 c 128,-1,30
 2110 1443 2110 1443 2058 1490 c 1,31,32
 1943 1568 1943 1568 1924 1650 c 0,33,34
 1905 1729 1905 1729 1980 1839 c 1,35,36
 1955 1798 1955 1798 1968 1740 c 0,37,38
 1984 1673 1984 1673 2024.5 1618.5 c 128,-1,39
 2065 1564 2065 1564 2115.5 1539 c 128,-1,40
 2166 1514 2166 1514 2203 1555 c 1,41,42
 2327 1604 2327 1604 2447 1612 c 128,-1,43
 2567 1620 2567 1620 2615 1569 c 128,-1,44
 2663 1518 2663 1518 2694 1453 c 128,-1,45
 2725 1388 2725 1388 2455 1299 c 1,46,-1
 2591 1301 l 1,47,-1
 2686 1219 l 1,48,-1
 2404 1228 l 1,49,-1
 2406 55 l 1,50,-1
 2319 56 l 1,51,-1
 2321 1225 l 1,52,-1
 2161 1227 l 1,53,-1
 2088 1299 l 1,24,-1
467 220 m 0,54,55
 467 273 467 273 503.5 312.5 c 128,-1,56
 540 352 540 352 588 352 c 0,57,58
 635 352 635 352 668 315 c 128,-1,59
 701 278 701 278 701 221 c 128,-1,60
 701 164 701 164 666.5 125.5 c 128,-1,61
 632 87 632 87 583 87 c 0,62,63
 536 87 536 87 501.5 126 c 128,-1,64
 467 165 467 165 467 220 c 0,54,55
729 1309 m 1,65,-1
 661 1401 l 1,66,-1
 -9 1401 l 1,67,-1
 71 1301 l 1,68,-1
 516 1318 l 1,69,-1
 418 1227 l 1,70,71
 324 1112 324 1112 199 875 c 1,72,73
 120 675 120 675 175 474 c 0,74,75
 235 244 235 244 405 67 c 1,76,77
 543 -16 543 -16 736 50 c 1,78,79
 820 145 820 145 812 274 c 1,80,81
 818 447 818 447 630 496 c 1,82,83
 442 458 442 458 378 266 c 1,84,-1
 367 299 l 1,85,86
 339 315 339 315 263 485 c 1,87,88
 260 703 260 703 308 887 c 1,89,90
 419 1124 419 1124 640 1316 c 1,91,-1
 729 1309 l 1,65,-1
1980 1839 m 1,92,93
 1984 1844 1984 1844 1988 1850 c 1,94,95
 1984 1845 1984 1845 1980 1839 c 1,92,93
EndSplineSet
EndChar

StartChar: hasanta
Encoding: 2509 2509 161
Width: 0
GlyphClass: 4
Flags: W
AnchorPoint: "Anchor-1" -345 -15 mark 0
LayerCount: 2
Fore
SplineSet
110 -304 m 1,0,-1
 -15 -301 l 1,1,-1
 -450 -32 l 1,2,-1
 -249 -32 l 1,3,-1
 110 -304 l 1,0,-1
EndSplineSet
EndChar

StartChar: uni09CE
Encoding: 2510 2510 162
Width: 769
GlyphClass: 2
Flags: W
LayerCount: 2
Fore
SplineSet
657 1139 m 0,0,1
 657 1194 657 1194 585 1235 c 0,2,3
 514 1274 514 1274 446 1274 c 0,4,5
 407 1274 407 1274 377 1258 c 0,6,7
 355 1247 355 1247 354 1201 c 0,8,9
 352 1136 352 1136 390 1095 c 0,10,11
 440 1035 440 1035 518 1035 c 0,12,13
 585 1035 585 1035 621 1064 c 0,14,15
 657 1095 657 1095 657 1139 c 0,0,1
228 750 m 0,16,17
 195 764 195 764 160.5 803.5 c 128,-1,18
 126 843 126 843 114 880 c 0,19,20
 90 948 90 948 90 1035 c 0,21,22
 90 1168 90 1168 198 1273 c 0,23,24
 306 1380 306 1380 438 1380 c 0,25,26
 565 1380 565 1380 654 1319 c 0,27,28
 740 1256 740 1256 740 1153 c 0,29,30
 740 1061 740 1061 668 1000 c 0,31,32
 597 939 597 939 515 939 c 2,33,-1
 486 939 l 2,34,35
 412 939 412 939 346 1023 c 0,36,37
 291 1088 291 1088 291 1188 c 2,38,-1
 291 1225 l 1,39,40
 225 1189 225 1189 184 1131 c 0,41,42
 161 1101 161 1101 159 1071.5 c 128,-1,43
 157 1042 157 1042 157 1018 c 0,44,45
 157 972 157 972 181 916.5 c 128,-1,46
 205 861 205 861 253 848 c 0,47,48
 396 804 396 804 554.5 707 c 128,-1,49
 713 610 713 610 755 477 c 0,50,51
 769 434 769 434 697.5 349.5 c 128,-1,52
 626 265 626 265 546.5 189.5 c 128,-1,53
 467 114 467 114 364 14 c 1,54,-1
 315 96 l 1,55,56
 496 288 496 288 581 356.5 c 128,-1,57
 666 425 666 425 630 519 c 0,58,59
 592 610 592 610 448 662.5 c 128,-1,60
 304 715 304 715 228 750 c 0,16,17
EndSplineSet
EndChar

StartChar: aumatra
Encoding: 2519 2519 163
Width: 450
GlyphClass: 4
Flags: W
LayerCount: 2
Fore
SplineSet
-106 1400 m 1,0,-1
 150 1399 l 1,1,2
 457 1523 457 1523 435 1592.5 c 128,-1,3
 413 1662 413 1662 174 1636 c 1,4,5
 66 1575 66 1575 -28.5 1558 c 128,-1,6
 -123 1541 -123 1541 -179 1593 c 1,7,8
 -303 1679 -303 1679 -326 1841 c 1,9,10
 -259 1794 -259 1794 -215.5 1734 c 128,-1,11
 -172 1674 -172 1674 -117 1658.5 c 128,-1,12
 -62 1643 -62 1643 -23 1664 c 1,13,14
 110 1718 110 1718 239 1727 c 128,-1,15
 368 1736 368 1736 419.5 1679.5 c 128,-1,16
 471 1623 471 1623 505 1551 c 128,-1,17
 539 1479 539 1479 250 1399 c 1,18,-1
 450 1399 l 1,19,-1
 539 1300 l 1,20,-1
 201 1303 l 1,21,-1
 199 2 l 1,22,-1
 100 100 l 1,23,-1
 103 1300 l 1,24,-1
 -3 1302 l 1,25,-1
 -106 1400 l 1,0,-1
EndSplineSet
EndChar

StartChar: rra
Encoding: 2524 2524 164
Width: 1224
GlyphClass: 2
Flags: W
AnchorPoint: "Anchor-1" 720 15 basechar 0
AnchorPoint: "Anchor-0" 420 1365 basechar 0
LayerCount: 2
Fore
SplineSet
605 -209 m 0,0,1
 605 -165 605 -165 636 -132 c 128,-1,2
 667 -99 667 -99 708 -99 c 0,3,4
 747 -99 747 -99 774.5 -129.5 c 128,-1,5
 802 -160 802 -160 802 -208 c 0,6,7
 802 -255 802 -255 773.5 -287 c 128,-1,8
 745 -319 745 -319 704 -319 c 0,9,10
 664 -319 664 -319 634.5 -286.5 c 128,-1,11
 605 -254 605 -254 605 -209 c 0,0,1
662 -214 m 0,12,13
 662 -257 662 -257 709 -257 c 0,14,15
 757 -257 757 -257 757 -214 c 0,16,17
 757 -169 757 -169 709 -169 c 0,18,19
 662 -169 662 -169 662 -214 c 0,12,13
418 1299 m 1,20,-1
 -20 1288 l 1,21,-1
 -142 1390 l 1,22,-1
 1196 1400 l 1,23,-1
 1341 1296 l 1,24,-1
 505 1291 l 1,25,-1
 495 646 l 1,26,27
 520 625 520 625 552 617 c 0,28,29
 592 604 592 604 614 604 c 0,30,31
 680 604 680 604 767 713 c 0,32,33
 809 766 809 766 891 910 c 1,34,35
 981 873 981 873 1034 766 c 0,36,37
 1091 653 1091 653 1091 492 c 0,38,39
 1091 302 1091 302 981 172 c 0,40,41
 870 43 870 43 737 43 c 0,42,43
 513 43 513 43 353 249 c 0,44,45
 320 290 320 290 261 391 c 0,46,47
 204 484 204 484 131 621 c 0,48,49
 59 754 59 754 10 855 c 0,50,51
 -47 973 -47 973 -54 1013 c 1,52,-1
 73 948 l 1,53,-1
 150 795 l 2,54,55
 174 740 174 740 205 666 c 0,56,57
 224 612 224 612 256 545 c 0,58,59
 338 383 338 383 454 282 c 0,60,61
 566 183 566 183 706 183 c 0,62,63
 843 183 843 183 947 284 c 0,64,65
 987 324 987 324 1008 431 c 0,66,67
 1028 536 1028 536 1008 594 c 0,68,69
 1001 614 1001 614 1001 637 c 1,70,71
 995 664 995 664 924 776 c 1,72,-1
 849 599 l 1,73,74
 800 559 800 559 754 545 c 0,75,76
 706 529 706 529 672 512 c 0,77,78
 618 487 618 487 491 544 c 1,79,80
 414 597 414 597 404 657 c 1,81,-1
 418 1299 l 1,20,-1
EndSplineSet
Ligature2: "'nukt' Nukta Forms in Bengali lookup 0 subtable" dda nukta
EndChar

StartChar: rha
Encoding: 2525 2525 165
Width: 1079
GlyphClass: 2
Flags: W
AnchorPoint: "Anchor-1" 480 45 basechar 0
AnchorPoint: "Anchor-0" 525 1395 basechar 0
LayerCount: 2
Fore
SplineSet
466 -176 m 0,0,1
 411 -176 411 -176 411 -222 c 0,2,3
 411 -269 411 -269 466 -269 c 0,4,5
 520 -269 520 -269 520 -222 c 0,6,7
 520 -176 520 -176 466 -176 c 0,0,1
450 -102 m 0,8,9
 562 -102 562 -102 562 -214 c 0,10,11
 562 -328 562 -328 450 -328 c 0,12,13
 337 -328 337 -328 337 -214 c 0,14,15
 337 -102 337 -102 450 -102 c 0,8,9
496 1400 m 1,16,-1
 1049 1396 l 1,17,-1
 1149 1296 l 1,18,-1
 244 1296 l 1,19,-1
 244 353 l 2,20,21
 244 286 244 286 282 224 c 0,22,23
 321 166 321 166 402 147 c 0,24,25
 477 131 477 131 605 178 c 1,26,27
 717 259 717 259 783.5 356 c 128,-1,28
 850 453 850 453 877 577 c 1,29,-1
 882 648 l 1,30,-1
 867 698 l 1,31,32
 805 670 805 670 743 670 c 0,33,34
 679 670 679 670 631 715 c 0,35,36
 584 758 584 758 584 848 c 0,37,38
 584 913 584 913 639 963 c 0,39,40
 690 1014 690 1014 764 1014 c 0,41,42
 856 1014 856 1014 925 931 c 0,43,44
 938 912 938 912 948 893 c 0,45,46
 962 869 962 869 973 832 c 0,47,48
 988 788 988 788 988 726 c 0,49,50
 988 584 988 584 946 469 c 0,51,52
 904 347 904 347 816 242 c 0,53,54
 647 33 647 33 426 33 c 0,55,56
 321 33 321 33 231 143 c 0,57,58
 141 254 141 254 141 353 c 2,59,-1
 141 1296 l 1,60,-1
 -3 1296 l 1,61,-1
 -97 1396 l 1,62,-1
 304 1392 l 1,63,-1
 496 1400 l 1,16,-1
767 939 m 128,-1,65
 722 939 722 939 690.5 905.5 c 128,-1,66
 659 872 659 872 659 835 c 0,67,68
 659 748 659 748 767 748 c 0,69,70
 876 748 876 748 876 835 c 0,71,72
 876 872 876 872 844 905.5 c 128,-1,64
 812 939 812 939 767 939 c 128,-1,65
EndSplineSet
Ligature2: "'nukt' Nukta Forms in Bengali lookup 0 subtable" ddha nukta
EndChar

StartChar: yya
Encoding: 2527 2527 166
Width: 1061
GlyphClass: 2
Flags: W
AnchorPoint: "Anchor-1" 990 30 basechar 0
AnchorPoint: "Anchor-0" 915 1410 basechar 0
LayerCount: 2
Fore
SplineSet
262 277 m 128,-1,1
 262 326 262 326 298 362 c 128,-1,2
 334 398 334 398 381 398 c 0,3,4
 427 398 427 398 458.5 364 c 128,-1,5
 490 330 490 330 490 278 c 0,6,7
 490 227 490 227 457 192 c 128,-1,8
 424 157 424 157 375 157 c 0,9,10
 330 157 330 157 296 192.5 c 128,-1,0
 262 228 262 228 262 277 c 128,-1,1
1158 1305 m 1,11,-1
 964 1305 l 1,12,-1
 961 -19 l 1,13,14
 943 29 943 29 920.5 88 c 128,-1,15
 898 147 898 147 851 206 c 0,16,17
 809 255 809 255 755 328 c 128,-1,18
 701 401 701 401 586 456 c 2,19,-1
 507 494 l 1,20,-1
 403 525 l 1,21,-1
 211 556 l 1,22,-1
 41 589 l 1,23,-1
 451 1018 l 1,24,-1
 417 1055 l 2,25,26
 382 1091 382 1091 151 1303 c 1,27,-1
 1 1304 l 1,28,-1
 3 1305 l 1,29,-1
 -38 1352 l 1,30,-1
 -79 1400 l 1,31,-1
 1064 1400 l 1,32,-1
 1158 1305 l 1,11,-1
319 275 m 128,-1,34
 319 211 319 211 378 211 c 0,35,36
 435 211 435 211 435 275 c 128,-1,37
 435 339 435 339 378 339 c 0,38,33
 319 339 319 339 319 275 c 128,-1,34
846 429 m 1,39,-1
 845 1305 l 1,40,-1
 288 1305 l 1,41,-1
 652 964 l 1,42,-1
 300 670 l 1,43,44
 378 662 378 662 453 635.5 c 128,-1,45
 528 609 528 609 640 548 c 0,46,47
 749 487 749 487 808 452 c 0,48,49
 836 436 836 436 846 429 c 1,39,-1
EndSplineSet
Ligature2: "'nukt' Nukta Forms in Bengali lookup 0 subtable" ya_hsanata nukta
EndChar

StartChar: rrii
Encoding: 2528 2528 167
Width: 1339
GlyphClass: 2
Flags: W
LayerCount: 2
Fore
SplineSet
899 296 m 1,0,1
 792 19 792 19 718 -56 c 1,2,3
 720 -60 720 -60 767.5 -91.5 c 128,-1,4
 815 -123 815 -123 870.5 -161 c 128,-1,5
 926 -199 926 -199 973.5 -229.5 c 128,-1,6
 1021 -260 1021 -260 1026 -260 c 1,7,-1
 1026 -365 l 1,8,-1
 675 -138 l 1,9,-1
 616 -108 l 1,10,-1
 556 -83 l 1,11,-1
 543 -34 l 1,12,-1
 637 30 l 1,13,-1
 800 302 l 2,14,15
 809 320 809 320 155 871 c 1,16,-1
 776 1255 l 1,17,18
 756 1287 756 1287 734 1308 c 0,19,20
 675 1361 675 1361 614 1361 c 1,21,22
 575 1318 575 1318 531 1291 c 0,23,24
 489 1264 489 1264 453 1230 c 0,25,26
 391 1168 391 1168 288 1187 c 0,27,28
 213 1202 213 1202 185 1221 c 0,29,30
 103 1266 103 1266 107 1335 c 0,31,32
 110 1397 110 1397 141 1437 c 0,33,34
 171 1480 171 1480 196 1482 c 0,35,36
 262 1492 262 1492 330 1445 c 0,37,38
 396 1396 396 1396 462 1372 c 1,39,40
 503 1418 503 1418 535 1437 c 0,41,42
 565 1455 565 1455 577 1482 c 1,43,44
 616 1466 616 1466 678 1417 c 0,45,46
 772 1343 772 1343 805 1264 c 1,47,-1
 805 1584 l 1,48,-1
 899 1500 l 1,49,-1
 899 924 l 1,50,51
 919 900 919 900 951 865 c 0,52,53
 965 847 965 847 983.5 832.5 c 128,-1,54
 1002 818 1002 818 1016 800 c 2,55,-1
 1156 669 l 1,56,-1
 1171 1600 l 1,57,-1
 1241 1498 l 1,58,-1
 1250 1402 l 1,59,-1
 1337 1405 l 1,60,-1
 1400 1321 l 1,61,-1
 1240 1325 l 1,62,-1
 1244 297 l 1,63,64
 1155 479 1155 479 1118 513 c 1,65,66
 1041 726 1041 726 899 812 c 1,67,-1
 899 296 l 1,0,1
788 442 m 1,68,-1
 788 1141 l 1,69,-1
 332 848 l 1,70,-1
 788 442 l 1,68,-1
346 1369 m 1,71,-1
 315 1377 l 2,72,73
 164 1417 164 1417 191 1331 c 0,74,75
 220 1239 220 1239 343 1267 c 1,76,-1
 384 1291 l 2,77,78
 424 1314 424 1314 403 1331 c 0,79,80
 371 1356 371 1356 346 1369 c 1,71,-1
EndSplineSet
EndChar

StartChar: llii
Encoding: 2529 2529 168
Width: 1288
GlyphClass: 2
Flags: W
LayerCount: 2
Fore
SplineSet
190 726 m 1,0,1
 233 796 233 796 369.5 756.5 c 128,-1,2
 506 717 506 717 499 617 c 0,3,4
 495 591 495 591 439 540.5 c 128,-1,5
 383 490 383 490 357 482 c 0,6,7
 315 467 315 467 259 467 c 0,8,9
 194 467 194 467 127 529 c 0,10,11
 63 588 63 588 63 668 c 0,12,13
 63 786 63 786 143 865 c 0,14,15
 221 944 221 944 382 944 c 0,16,17
 532 944 532 944 623 848 c 0,18,19
 712 752 712 752 712 616 c 1,20,21
 777 616 777 616 844 671 c 0,22,23
 907 720 907 720 907 794 c 0,24,25
 907 881 907 881 830 945 c 0,26,27
 765 996 765 996 598 1062 c 2,28,-1
 253 1194 l 1,29,-1
 107 1244 l 1,30,-1
 24 1319 l 1,31,-1
 24 1410 l 1,32,-1
 130 1331 l 2,33,34
 152 1313 152 1313 258.5 1270 c 128,-1,35
 365 1227 365 1227 485 1192 c 0,36,37
 712 1126 712 1126 824 1060 c 0,38,39
 982 963 982 963 982 822 c 0,40,41
 982 676 982 676 881 593 c 0,42,43
 825 545 825 545 735 489 c 1,44,45
 749 481 749 481 766 472 c 0,46,47
 826 439 826 439 895 413 c 0,48,49
 1025 363 1025 363 1087 315 c 0,50,51
 1178 241 1178 241 1178 136 c 0,52,53
 1178 27 1178 27 1121 -36 c 0,54,55
 1087 -72 1087 -72 1034.5 -115.5 c 128,-1,56
 982 -159 982 -159 929 -159 c 1,57,-1
 955 -84 l 1,58,-1
 959 -46 l 2,59,60
 964 3 964 3 953.5 43 c 128,-1,61
 943 83 943 83 928 112 c 0,62,63
 890 180 890 180 817 180 c 0,64,65
 777 180 777 180 737 138 c 0,66,67
 703 102 703 102 727 64 c 1,68,69
 752 116 752 116 829.5 86.5 c 128,-1,70
 907 57 907 57 903 -18 c 0,71,72
 901 -37 901 -37 869 -74.5 c 128,-1,73
 837 -112 837 -112 822 -120 c 0,74,75
 798 -129 798 -129 766 -129 c 0,76,77
 729 -129 729 -129 692 -84 c 0,78,79
 655 -40 655 -40 655 20 c 0,80,81
 655 108 655 108 700 168 c 0,82,83
 745 227 745 227 836 227 c 0,84,85
 921 227 921 227 973 156 c 0,86,87
 1025 83 1025 83 1025 -18 c 1,88,89
 1061 -18 1061 -18 1099 23 c 0,90,91
 1135 60 1135 60 1135 115 c 0,92,93
 1135 180 1135 180 1091 229 c 0,94,95
 1054 266 1054 266 959 316 c 2,96,-1
 763 415 l 1,97,-1
 679 453 l 1,98,-1
 676 457 l 1,99,100
 611 429 611 429 545 429 c 1,101,-1
 589 529 l 1,102,-1
 598 579 l 2,103,104
 607 645 607 645 588.5 698.5 c 128,-1,105
 570 752 570 752 543 790 c 0,106,107
 477 882 477 882 349 882 c 0,108,109
 278 882 278 882 209 825 c 0,110,111
 148 777 148 777 190 726 c 1,0,1
EndSplineSet
EndChar

StartChar: llikaar
Encoding: 2530 2530 169
Width: 489
GlyphClass: 2
Flags: W
LayerCount: 2
Fore
SplineSet
-382 -268 m 1,0,1
 -360 -235 -360 -235 -291 -254 c 128,-1,2
 -222 -273 -222 -273 -226 -322 c 0,3,4
 -228 -335 -228 -335 -256 -359.5 c 128,-1,5
 -284 -384 -284 -384 -297 -388 c 0,6,7
 -319 -395 -319 -395 -347 -395 c 0,8,9
 -380 -395 -380 -395 -414 -365 c 0,10,11
 -446 -336 -446 -336 -446 -298 c 0,12,13
 -446 -240 -446 -240 -406 -201 c 0,14,15
 -366 -163 -366 -163 -285 -163 c 0,16,17
 -209 -163 -209 -163 -163 -209 c 0,18,19
 -118 -257 -118 -257 -118 -322 c 1,20,21
 -85 -322 -85 -322 -51 -295 c 0,22,23
 -19 -271 -19 -271 -19 -235 c 0,24,25
 -19 -194 -19 -194 -58 -161 c 0,26,27
 -91 -137 -91 -137 -175 -105 c 2,28,-1
 -350 -40 l 1,29,-1
 -424 -16 l 1,30,-1
 -466 20 l 1,31,-1
 -466 65 l 1,32,-1
 -412 26 l 2,33,34
 -401 17 -401 17 -347.5 -3.5 c 128,-1,35
 -294 -24 -294 -24 -233 -41 c 0,36,37
 -118 -74 -118 -74 -61 -106 c 0,38,39
 19 -153 19 -153 19 -221 c 0,40,41
 19 -293 19 -293 -32 -334 c 0,42,43
 -61 -358 -61 -358 -108 -386 c 128,-1,44
 -155 -414 -155 -414 -202 -414 c 1,45,-1
 -180 -365 l 1,46,-1
 -175 -340 l 2,47,48
 -171 -309 -171 -309 -180.5 -282.5 c 128,-1,49
 -190 -256 -190 -256 -203 -237 c 0,50,51
 -237 -193 -237 -193 -301 -193 c 0,52,53
 -337 -193 -337 -193 -372 -221 c 0,54,55
 -403 -244 -403 -244 -382 -268 c 1,0,1
EndSplineSet
EndChar

StartChar: lliikaar
Encoding: 2531 2531 170
Width: 894
GlyphClass: 2
Flags: W
LayerCount: 2
Fore
SplineSet
-453 130 m 1,0,1
 -432 173 -432 173 -368 148.5 c 128,-1,2
 -304 124 -304 124 -308 61 c 0,3,4
 -309 46 -309 46 -335.5 14.5 c 128,-1,5
 -362 -17 -362 -17 -374 -22 c 0,6,7
 -394 -31 -394 -31 -421 -31 c 0,8,9
 -426 -31 -426 -31 -431 -30 c 1,10,11
 -378 -87 -378 -87 -378 -164 c 0,12,13
 -378 -265 -378 -265 -431 -322 c 0,14,15
 -461 -355 -461 -355 -509 -394.5 c 128,-1,16
 -557 -434 -557 -434 -605 -434 c 1,17,-1
 -582 -365 l 1,18,-1
 -577 -331 l 2,19,20
 -573 -286 -573 -286 -582.5 -249.5 c 128,-1,21
 -592 -213 -592 -213 -606 -186 c 0,22,23
 -641 -124 -641 -124 -707 -124 c 0,24,25
 -744 -124 -744 -124 -780 -163 c 0,26,27
 -812 -196 -812 -196 -790 -230 c 1,28,29
 -767 -182 -767 -182 -696.5 -209.5 c 128,-1,30
 -626 -237 -626 -237 -630 -305 c 0,31,32
 -631 -323 -631 -323 -660 -357.5 c 128,-1,33
 -689 -392 -689 -392 -703 -398 c 0,34,35
 -725 -407 -725 -407 -754 -407 c 0,36,37
 -788 -407 -788 -407 -822 -365 c 0,38,39
 -855 -325 -855 -325 -855 -270 c 0,40,41
 -855 -190 -855 -190 -814 -135 c 0,42,43
 -774 -82 -774 -82 -690 -82 c 0,44,45
 -612 -82 -612 -82 -565 -146 c 0,46,47
 -518 -213 -518 -213 -518 -306 c 1,48,49
 -485 -306 -485 -306 -450 -268 c 0,50,51
 -417 -234 -417 -234 -417 -184 c 0,52,53
 -417 -124 -417 -124 -457 -80 c 0,54,55
 -491 -45 -491 -45 -577 0 c 2,56,-1
 -757 90 l 1,57,-1
 -833 125 l 1,58,-1
 -876 176 l 1,59,-1
 -876 238 l 1,60,-1
 -821 184 l 2,61,62
 -809 172 -809 172 -754 142.5 c 128,-1,63
 -699 113 -699 113 -636 89 c 0,64,65
 -545 54 -545 54 -491 19 c 1,66,67
 -512 52 -512 52 -512 93 c 0,68,69
 -512 166 -512 166 -475 215 c 128,-1,70
 -438 264 -438 264 -363 264 c 0,71,72
 -292 264 -292 264 -250 205 c 0,73,74
 -207 145 -207 145 -207 61 c 1,75,76
 -177 61 -177 61 -145 95 c 0,77,78
 -115 126 -115 126 -115 171 c 0,79,80
 -115 225 -115 225 -152 265 c 0,81,82
 -182 297 -182 297 -261 337 c 2,83,-1
 -423 419 l 1,84,-1
 -492 450 l 1,85,-1
 -531 497 l 1,86,-1
 -531 553 l 1,87,-1
 -481 504 l 2,88,89
 -470 493 -470 493 -420.5 466.5 c 128,-1,90
 -371 440 -371 440 -314 418 c 0,91,92
 -207 377 -207 377 -155 336 c 0,93,94
 -80 276 -80 276 -80 189 c 0,95,96
 -80 98 -80 98 -128 47 c 0,97,98
 -155 17 -155 17 -198.5 -19 c 128,-1,99
 -242 -55 -242 -55 -286 -55 c 1,100,-1
 -265 7 l 1,101,-1
 -261 38 l 2,102,103
 -256 79 -256 79 -265 112 c 128,-1,104
 -274 145 -274 145 -287 169 c 0,105,106
 -318 225 -318 225 -378 225 c 0,107,108
 -411 225 -411 225 -444 191 c 0,109,110
 -473 161 -473 161 -453 130 c 1,0,1
EndSplineSet
EndChar

StartChar: shunya
Encoding: 2534 2534 171
Width: 969
GlyphClass: 2
Flags: W
LayerCount: 2
Fore
SplineSet
525 1272 m 0,0,1
 383 1300 383 1300 315.5 1157.5 c 128,-1,2
 248 1015 248 1015 246 830.5 c 128,-1,3
 244 646 244 646 302.5 485 c 128,-1,4
 361 324 361 324 471 316 c 128,-1,5
 581 308 581 308 656 445.5 c 128,-1,6
 731 583 731 583 748.5 757 c 128,-1,7
 766 931 766 931 715.5 1086.5 c 128,-1,8
 665 1242 665 1242 525 1272 c 0,0,1
478 104 m 0,9,10
 230 104 230 104 127 323 c 128,-1,11
 24 542 24 542 38.5 806 c 128,-1,12
 53 1070 53 1070 174.5 1289.5 c 128,-1,13
 296 1509 296 1509 498 1509 c 0,14,15
 699 1509 699 1509 814 1289.5 c 128,-1,16
 929 1070 929 1070 936.5 806 c 128,-1,17
 944 542 944 542 834.5 323 c 128,-1,18
 725 104 725 104 478 104 c 0,9,10
EndSplineSet
EndChar

StartChar: ek
Encoding: 2535 2535 172
Width: 802
GlyphClass: 2
Flags: W
LayerCount: 2
Fore
SplineSet
706 555 m 1,0,1
 761 671 761 671 557 822 c 2,2,-1
 212 1073 l 2,3,4
 27 1209 27 1209 27 1339 c 0,5,6
 27 1401 27 1401 65 1453 c 0,7,8
 115 1517 115 1517 172 1517 c 0,9,10
 253 1517 253 1517 261 1514 c 128,-1,11
 269 1511 269 1511 252.5 1490.5 c 128,-1,12
 236 1470 236 1470 219 1425 c 128,-1,13
 202 1380 202 1380 235 1295 c 1,14,15
 418 1137 418 1137 527 1039.5 c 128,-1,16
 636 942 636 942 670 908 c 0,17,18
 825 753 825 753 825 541 c 0,19,20
 825 337 825 337 698 185 c 0,21,22
 634 109 634 109 525.5 85.5 c 128,-1,23
 417 62 417 62 325 62 c 0,24,25
 284 62 284 62 246 103 c 128,-1,26
 208 144 208 144 174 164 c 0,27,28
 140 182 140 182 146 269.5 c 128,-1,29
 152 357 152 357 192 398 c 1,30,31
 192 425 192 425 267.5 450.5 c 128,-1,32
 343 476 343 476 436.5 495.5 c 128,-1,33
 530 515 530 515 612 531 c 128,-1,34
 694 547 694 547 706 555 c 1,0,1
698 400 m 1,35,36
 725 442 725 442 644.5 445 c 128,-1,37
 564 448 564 448 469 419 c 128,-1,38
 374 390 374 390 312 334 c 128,-1,39
 250 278 250 278 315 205 c 0,40,41
 319 199 319 199 432 219 c 128,-1,42
 545 239 545 239 567 234 c 1,43,44
 612 234 612 234 653 324 c 1,45,46
 696 346 696 346 698 400 c 1,35,36
EndSplineSet
EndChar

StartChar: dui
Encoding: 2536 2536 173
Width: 736
GlyphClass: 2
Flags: W
LayerCount: 2
Fore
SplineSet
746 69 m 1,0,-1
 554 112 l 1,1,-1
 235 428 l 1,2,-1
 43 563 l 1,3,-1
 302 777 l 1,4,-1
 466 950 l 2,5,6
 485 970 485 970 445 1014 c 128,-1,7
 405 1058 405 1058 341 1112.5 c 128,-1,8
 277 1167 277 1167 210.5 1227 c 128,-1,9
 144 1287 144 1287 110 1338 c 0,10,11
 65 1407 65 1407 96.5 1464 c 128,-1,12
 128 1521 128 1521 153 1497 c 2,13,-1
 687 1012 l 1,14,-1
 478 724 l 1,15,-1
 320 590 l 1,16,-1
 653 220 l 1,17,-1
 746 69 l 1,0,-1
EndSplineSet
EndChar

StartChar: tin
Encoding: 2537 2537 174
Width: 1559
GlyphClass: 2
Flags: W
LayerCount: 2
Fore
SplineSet
1104 1316 m 1,0,-1
 861 1415 l 1,1,2
 607 1328 607 1328 625.5 1240.5 c 128,-1,3
 644 1153 644 1153 761 1115 c 128,-1,4
 878 1077 878 1077 1007.5 1114 c 128,-1,5
 1137 1151 1137 1151 1104 1316 c 1,0,-1
1229 1179 m 1,6,7
 1181 1069 1181 1069 1017.5 998 c 128,-1,8
 854 927 854 927 815 927 c 0,9,10
 679 927 679 927 606 1013 c 0,11,12
 529 1098 529 1098 529 1232 c 0,13,14
 529 1410 529 1410 672 1491 c 0,15,16
 779 1556 779 1556 946 1556 c 0,17,18
 1048 1556 1048 1556 1132.5 1506.5 c 128,-1,19
 1217 1457 1217 1457 1312 1400 c 0,20,21
 1468 1303 1468 1303 1504 1139.5 c 128,-1,22
 1540 976 1540 976 1532 765 c 0,23,24
 1517 389 1517 389 1346 218 c 0,25,26
 1197 69 1197 69 992 69 c 0,27,28
 672 69 672 69 427 380 c 0,29,30
 341 490 341 490 260 643.5 c 128,-1,31
 179 797 179 797 127 995 c 0,32,33
 96 1108 96 1108 49.5 1233.5 c 128,-1,34
 3 1359 3 1359 18 1421 c 1,35,-1
 50 1400 l 1,36,37
 76 1295 76 1295 146 1092 c 0,38,39
 204 927 204 927 318 721 c 0,40,41
 423 533 423 533 613 406 c 0,42,43
 802 279 802 279 972 279 c 0,44,45
 1191 279 1191 279 1321 458 c 0,46,47
 1422 600 1422 600 1422 864 c 0,48,49
 1422 1018 1422 1018 1398.5 1097 c 128,-1,50
 1375 1176 1375 1176 1229 1179 c 1,6,7
EndSplineSet
EndChar

StartChar: car
Encoding: 2538 2538 175
Width: 970
GlyphClass: 2
Flags: W
LayerCount: 2
Fore
SplineSet
860 459 m 0,0,1
 860 528 860 528 831.5 564.5 c 128,-1,2
 803 601 803 601 750 638 c 0,3,4
 632 725 632 725 512 725 c 0,5,6
 441 725 441 725 373 711.5 c 128,-1,7
 305 698 305 698 250 647 c 0,8,9
 140 542 140 542 164 436 c 128,-1,10
 188 330 188 330 283 262.5 c 128,-1,11
 378 195 378 195 516 188 c 128,-1,12
 654 181 654 181 773 279 c 0,13,14
 860 350 860 350 860 459 c 0,0,1
696 1387 m 0,15,16
 584 1451 584 1451 456 1451 c 0,17,18
 331 1451 331 1451 255 1364.5 c 128,-1,19
 179 1278 179 1278 179 1166 c 0,20,21
 179 1104 179 1104 211 1025.5 c 128,-1,22
 243 947 243 947 327 943 c 2,23,-1
 544 932 l 2,24,25
 597 926 597 926 619 939.5 c 128,-1,26
 641 953 641 953 666 969 c 0,27,28
 792 1053 792 1053 823 1173.5 c 128,-1,29
 854 1294 854 1294 696 1387 c 0,15,16
971 483 m 0,30,31
 971 289 971 289 854 183 c 0,32,33
 736 75 736 75 480 75 c 0,34,35
 334 75 334 75 179.5 168 c 128,-1,36
 25 261 25 261 25 428 c 0,37,38
 25 548 25 548 111 656 c 0,39,40
 154 711 154 711 195 750 c 128,-1,41
 236 789 236 789 307 821 c 1,42,43
 249 833 249 833 216.5 862.5 c 128,-1,44
 184 892 184 892 142 926 c 0,45,46
 25 1021 25 1021 25 1152 c 0,47,48
 25 1363 25 1363 168.5 1462.5 c 128,-1,49
 312 1562 312 1562 506 1562 c 0,50,51
 620 1562 620 1562 760 1494 c 0,52,53
 913 1416 913 1416 941.5 1260 c 128,-1,54
 970 1104 970 1104 871 975 c 0,55,56
 832 925 832 925 793.5 888 c 128,-1,57
 755 851 755 851 675 830 c 1,58,-1
 700 818 l 1,59,60
 753 818 753 818 785 786 c 128,-1,61
 817 754 817 754 871 711 c 0,62,63
 932 659 932 659 951.5 606.5 c 128,-1,64
 971 554 971 554 971 483 c 0,30,31
EndSplineSet
EndChar

StartChar: panc
Encoding: 2539 2539 176
Width: 1199
GlyphClass: 2
Flags: W
LayerCount: 2
Fore
SplineSet
870 1071 m 1,0,-1
 622 1300 l 2,1,2
 601 1318 601 1318 611.5 1340.5 c 128,-1,3
 622 1363 622 1363 622 1369 c 1,4,5
 340 1155 340 1155 224 967 c 0,6,7
 125 805 125 805 125 626 c 0,8,9
 125 356 125 356 330 242 c 0,10,11
 470 164 470 164 671 164 c 2,12,-1
 746 164 l 2,13,14
 767 164 767 164 773 170 c 1,15,16
 628 259 628 259 587 319 c 0,17,18
 533 400 533 400 533 525 c 0,19,20
 533 688 533 688 625 829 c 0,21,22
 711 958 711 958 870 1071 c 1,0,-1
1182 1112 m 1,23,-1
 834 854 l 2,24,25
 732 781 732 781 692 676.5 c 128,-1,26
 652 572 652 572 652 466 c 0,27,28
 652 387 652 387 685 319.5 c 128,-1,29
 718 252 718 252 798 222 c 2,30,-1
 850 201 l 1,31,-1
 1024 137 l 1,32,-1
 839 57 l 1,33,-1
 652 63 l 2,34,35
 327 71 327 71 159 219 c 0,36,37
 75 294 75 294 48 407.5 c 128,-1,38
 21 521 21 521 21 661 c 0,39,40
 21 999 21 999 278 1272 c 0,41,42
 386 1386 386 1386 485 1427 c 128,-1,43
 584 1468 584 1468 657 1504 c 2,44,-1
 798 1574 l 2,45,46
 817 1582 817 1582 913.5 1543 c 128,-1,47
 1010 1504 1010 1504 937 1504 c 1,48,-1
 769 1394 l 1,49,-1
 1000 1142 l 1,50,-1
 1182 1112 l 1,23,-1
EndSplineSet
EndChar

StartChar: chai
Encoding: 2540 2540 177
Width: 1529
GlyphClass: 2
Flags: W
LayerCount: 2
Fore
SplineSet
1482 607 m 0,0,1
 1482 372 1482 372 1342 215 c 0,2,3
 1202 57 1202 57 1026 57 c 0,4,5
 741 57 741 57 531 309 c 0,6,7
 495 352 495 352 413.5 483 c 128,-1,8
 332 614 332 614 246 765 c 128,-1,9
 160 916 160 916 90.5 1053.5 c 128,-1,10
 21 1191 21 1191 9 1246 c 1,11,-1
 173 1167 l 1,12,-1
 271 979 l 2,13,14
 310 902 310 902 342.5 819.5 c 128,-1,15
 375 737 375 737 409 672 c 0,16,17
 516 470 516 470 663 349 c 0,18,19
 807 227 807 227 986 227 c 0,20,21
 1169 227 1169 227 1298 352 c 0,22,23
 1350 402 1350 402 1376.5 531.5 c 128,-1,24
 1403 661 1403 661 1377 733 c 0,25,26
 1368 753 1368 753 1365.5 786 c 128,-1,27
 1363 819 1363 819 1332 864 c 1,28,-1
 1170 737 l 2,29,30
 1108 689 1108 689 1048.5 671 c 128,-1,31
 989 653 989 653 943 632 c 0,32,33
 874 600 874 600 711 671 c 128,-1,34
 548 742 548 742 548 810 c 2,35,-1
 548 1562 l 1,36,-1
 748 1471 l 1,37,-1
 746 803 l 2,38,39
 746 773 746 773 789.5 759.5 c 128,-1,40
 833 746 833 746 870 746 c 0,41,42
 955 746 955 746 1065 877 c 0,43,44
 1119 943 1119 943 1224 1121 c 1,45,46
 1341 1077 1341 1077 1411 944 c 0,47,48
 1482 808 1482 808 1482 607 c 0,0,1
EndSplineSet
EndChar

StartChar: saat
Encoding: 2541 2541 178
Width: 920
GlyphClass: 2
Flags: W
LayerCount: 2
Fore
SplineSet
803 1076 m 1,0,-1
 808 1103 l 1,1,-1
 813 1137 l 2,2,3
 826 1235 826 1235 796 1312.5 c 128,-1,4
 766 1390 766 1390 724 1440 c 0,5,6
 651 1527 651 1527 508 1527 c 0,7,8
 354 1527 354 1527 260 1435 c 0,9,10
 166 1341 166 1341 166 1221 c 0,11,12
 166 1176 166 1176 186 1126 c 0,13,14
 223 1028 223 1028 275 988 c 0,15,16
 344 935 344 935 470 935 c 2,17,-1
 555 935 l 2,18,19
 568 935 568 935 636 957 c 0,20,21
 670 968 670 968 694.5 975 c 128,-1,22
 719 982 719 982 731 987 c 0,23,24
 746 991 746 991 761.5 1026.5 c 128,-1,25
 777 1062 777 1062 803 1076 c 1,0,-1
824 65 m 1,26,-1
 813 197 l 1,27,-1
 813 933 l 1,28,29
 758 885 758 885 660 855 c 0,30,31
 558 823 558 823 449 823 c 0,32,33
 301 823 301 823 192 899 c 0,34,35
 105 961 105 961 64 1069 c 0,36,37
 33 1146 33 1146 31 1206 c 0,38,39
 27 1378 27 1378 166 1497 c 0,40,41
 301 1613 301 1613 467 1613 c 0,42,43
 678 1613 678 1613 784 1514 c 0,44,45
 919 1383 919 1383 923 1066 c 2,46,-1
 927 9 l 1,47,-1
 824 65 l 1,26,-1
EndSplineSet
EndChar

StartChar: aatt
Encoding: 2542 2542 179
Width: 1448
GlyphClass: 2
Flags: W
LayerCount: 2
Fore
SplineSet
775 725 m 0,0,1
 775 831 775 831 708 864 c 0,2,3
 639 895 639 895 433 894 c 128,-1,4
 227 893 227 893 227 795 c 2,5,-1
 227 324 l 2,6,7
 227 282 227 282 255 242 c 1,8,-1
 307 211 l 1,9,10
 460 211 460 211 599 331 c 0,11,12
 775 481 775 481 775 725 c 0,0,1
1390 878 m 1,13,-1
 1160 859 l 2,14,15
 1111 855 1111 855 1024.5 862.5 c 128,-1,16
 938 870 938 870 904 821 c 1,17,18
 904 773 904 773 897.5 712 c 128,-1,19
 891 651 891 651 891 605 c 0,20,21
 891 389 891 389 674 217 c 0,22,23
 490 69 490 69 335 69 c 0,24,25
 236 69 236 69 159 165 c 0,26,27
 80 266 80 266 80 318 c 2,28,-1
 80 1604 l 1,29,-1
 202 1504 l 1,30,-1
 204 1241 l 1,31,-1
 216 985 l 1,32,-1
 353 1012 l 2,33,34
 385 1016 385 1016 422.5 1027.5 c 128,-1,35
 460 1039 460 1039 504 1030 c 1,36,-1
 846 1016 l 1,37,-1
 1139 1012 l 1,38,-1
 1538 1021 l 1,39,-1
 1390 878 l 1,13,-1
EndSplineSet
EndChar

StartChar: nai
Encoding: 2543 2543 180
Width: 1119
GlyphClass: 2
Flags: W
LayerCount: 2
Fore
SplineSet
266 351 m 1,0,-1
 288 274 l 2,1,2
 295 254 295 254 356 236 c 128,-1,3
 417 218 417 218 424 254 c 0,4,5
 427 277 427 277 431 324 c 128,-1,6
 435 371 435 371 414 391 c 0,7,8
 378 425 378 425 336.5 409.5 c 128,-1,9
 295 394 295 394 266 351 c 1,0,-1
287 520 m 1,10,11
 330 618 330 618 467.5 562.5 c 128,-1,12
 605 507 605 507 597 367 c 0,13,14
 594 331 594 331 537.5 261 c 128,-1,15
 481 191 481 191 455 179 c 0,16,17
 412 160 412 160 356 160 c 0,18,19
 289 160 289 160 223 246 c 0,20,21
 159 328 159 328 159 438 c 0,22,23
 159 602 159 602 238 713 c 0,24,25
 318 823 318 823 480 823 c 0,26,27
 631 823 631 823 722 690 c 0,28,29
 813 555 813 555 813 366 c 1,30,31
 879 366 879 366 946 443 c 0,32,33
 1010 512 1010 512 1010 615 c 0,34,35
 1010 735 1010 735 932 825 c 0,36,37
 866 899 866 899 699 988 c 2,38,-1
 349 1172 l 1,39,-1
 202 1242 l 2,40,41
 95 1294 95 1294 111 1413 c 2,42,-1
 118 1473 l 2,43,44
 138 1625 138 1625 234 1584.5 c 128,-1,45
 330 1544 330 1544 233 1455 c 0,46,47
 228 1450 228 1450 264.5 1392.5 c 128,-1,48
 301 1335 301 1335 281 1331 c 1,49,50
 353 1264 353 1264 584 1170 c 0,51,52
 820 1071 820 1071 926 985 c 0,53,54
 1086 851 1086 851 1086 654 c 0,55,56
 1086 451 1086 451 984 333 c 0,57,58
 930 268 930 268 834.5 186.5 c 128,-1,59
 739 105 739 105 645 105 c 1,60,-1
 690 246 l 1,61,-1
 699 315 l 2,62,63
 708 407 708 407 689 481.5 c 128,-1,64
 670 556 670 556 643 609 c 0,65,66
 576 736 576 736 447 736 c 0,67,68
 375 736 375 736 305 657 c 0,69,70
 244 590 244 590 287 520 c 1,10,11
EndSplineSet
EndChar

StartChar: assra
Encoding: 2544 2544 181
Width: 1193
GlyphClass: 2
Flags: W
LayerCount: 2
Fore
SplineSet
453 899 m 1,0,-1
 756 600 l 1,1,-1
 755 1078 l 1,2,-1
 453 899 l 1,0,-1
384 858 m 1,3,-1
 223 763 l 1,4,-1
 757 178 l 1,5,-1
 756 507 l 1,6,-1
 384 858 l 1,3,-1
843 514 m 1,7,-1
 854 503 l 1,8,-1
 843 497 l 1,9,-1
 843 -24 l 1,10,-1
 49 773 l 1,11,-1
 759 1203 l 1,12,-1
 764 1289 l 1,13,-1
 -27 1289 l 1,14,-1
 -120 1385 l 1,15,-1
 1187 1385 l 1,16,-1
 1279 1302 l 1,17,-1
 843 1300 l 1,18,-1
 843 1132 l 1,19,-1
 843 514 l 1,7,-1
EndSplineSet
EndChar

StartChar: assba
Encoding: 2545 2545 182
Width: 1193
GlyphClass: 2
Flags: W
LayerCount: 2
Fore
SplineSet
50 471 m 1,0,-1
 115 528 l 1,1,-1
 624 26 l 1,2,-1
 558 -10 l 1,3,-1
 50 471 l 1,0,-1
757 178 m 1,4,-1
 755 1078 l 1,5,-1
 223 763 l 1,6,-1
 757 178 l 1,4,-1
843 1132 m 1,7,-1
 843 -24 l 1,8,-1
 49 773 l 1,9,-1
 759 1203 l 1,10,-1
 764 1289 l 1,11,-1
 -27 1289 l 1,12,-1
 -120 1385 l 1,13,-1
 1187 1385 l 1,14,-1
 1279 1302 l 1,15,-1
 843 1300 l 1,16,-1
 843 1132 l 1,7,-1
EndSplineSet
EndChar

StartChar: uni09F2
Encoding: 2546 2546 183
Width: 554
GlyphClass: 2
Flags: W
LayerCount: 2
Fore
SplineSet
497 24 m 1,0,-1
 504 -25 l 1,1,-1
 13 245 l 1,2,-1
 0 370 l 1,3,-1
 497 24 l 1,0,-1
EndSplineSet
EndChar

StartChar: uni09F3
Encoding: 2547 2547 184
Width: 1170
GlyphClass: 2
Flags: W
LayerCount: 2
Fore
SplineSet
1205 263 m 0,0,1
 1205 153 1205 153 1141 82 c 0,2,3
 1061 -3 1061 -3 905 -3 c 0,4,5
 714 -3 714 -3 628 127 c 1,6,7
 573 218 573 218 573 333 c 2,8,-1
 570 724 l 1,9,-1
 425 726 l 1,10,-1
 425 792 l 1,11,-1
 573 792 l 1,12,-1
 573 1100 l 2,13,14
 573 1160 573 1160 552 1193 c 0,15,16
 518 1253 518 1253 408 1253 c 0,17,18
 296 1253 296 1253 251 1203 c 128,-1,19
 206 1153 206 1153 206 1048 c 1,20,-1
 110 1048 l 1,21,-1
 108 1098 l 1,22,-1
 151 1231 l 1,23,24
 217 1331 217 1331 408 1331 c 0,25,26
 541 1331 541 1331 613 1246 c 1,27,28
 668 1171 668 1171 668 1065 c 2,29,-1
 668 797 l 1,30,-1
 813 792 l 1,31,-1
 813 726 l 1,32,-1
 668 724 l 1,33,-1
 668 313 l 1,34,-1
 685 228 l 1,35,-1
 708 150 l 1,36,37
 763 88 763 88 905 88 c 0,38,39
 1008 88 1008 88 1060.5 140 c 128,-1,40
 1113 192 1113 192 1113 280 c 0,41,42
 1113 333 1113 333 1075 368 c 1,43,-1
 1000 410 l 1,44,-1
 1029 501 l 1,45,46
 1081 479 1081 479 1130 428 c 0,47,48
 1205 351 1205 351 1205 263 c 0,0,1
EndSplineSet
EndChar

StartChar: uni09F4
Encoding: 2548 2548 185
Width: 694
GlyphClass: 2
Flags: W
LayerCount: 2
Fore
SplineSet
117 21 m 1,0,-1
 583 762 l 1,1,-1
 592 986 l 1,2,-1
 75 215 l 1,3,-1
 7 204 l 1,4,-1
 0 -41 l 1,5,6
 14 -9 14 -9 85 15 c 1,7,-1
 117 21 l 1,0,-1
EndSplineSet
EndChar

StartChar: uni09F5
Encoding: 2549 2549 186
Width: 904
GlyphClass: 2
Flags: W
LayerCount: 2
Fore
SplineSet
118 173 m 0,0,1
 52 236 52 236 108 322 c 0,2,3
 112 324 112 324 113 329 c 0,4,5
 191 404 191 404 266 362 c 1,6,-1
 276 354 l 1,7,8
 448 255 448 255 323 133 c 1,9,-1
 297 97 l 1,10,11
 525 134 525 134 629.5 317 c 128,-1,12
 734 500 734 500 656 820 c 1,13,14
 627 889 627 889 512 1003 c 1,15,16
 662 931 662 931 726 721 c 128,-1,17
 790 511 790 511 718 326 c 0,18,19
 647 140 647 140 579 71.5 c 128,-1,20
 511 3 511 3 350 -14 c 1,21,22
 231 -2 231 -2 199 50 c 1,23,24
 206 87 206 87 278 191 c 1,25,26
 281 137 281 137 281 197 c 0,27,28
 281 213 281 213 275 228 c 1,29,30
 263 187 263 187 236 160 c 1,31,32
 178 135 178 135 135 161 c 1,33,-1
 133 162 l 2,34,35
 125 167 125 167 118 173 c 0,0,1
EndSplineSet
EndChar

StartChar: uni09F6
Encoding: 2550 2550 187
Width: 981
GlyphClass: 2
Flags: W
LayerCount: 2
Fore
SplineSet
35 278 m 0,0,1
 -42 325 -42 325 -24 460 c 0,2,3
 -21 464 -21 464 -21 470 c 0,4,5
 20 603 20 603 32 624 c 1,6,-1
 108 674 l 1,7,8
 404 737 404 737 331 269 c 2,9,-1
 322 213 l 1,10,11
 455 245 455 245 571 618 c 1,12,13
 634 746 634 746 820 1341 c 1,14,-1
 729 743 l 1,15,16
 675 581 675 581 632 440 c 0,17,18
 591 301 591 301 527 213 c 1,19,20
 524 226 524 226 410 100 c 1,21,22
 319 50 319 50 254 104 c 1,23,24
 247 154 247 154 273 323 c 1,25,26
 251 587 251 587 150 514 c 1,27,28
 159 408 159 408 150 423 c 1,29,30
 153 364 153 364 139 321 c 1,31,32
 99 260 99 260 52 271 c 1,33,-1
 51 271 l 2,34,35
 43 273 43 273 35 278 c 0,0,1
EndSplineSet
EndChar

StartChar: uni09F7
Encoding: 2551 2551 188
Width: 376
GlyphClass: 2
Flags: W
LayerCount: 2
Fore
SplineSet
160 52 m 1,0,-1
 94 55 l 1,1,-1
 69 57 l 1,2,3
 55 66 55 66 56 241 c 2,4,-1
 59 521 l 2,5,6
 63 944 63 944 33 1027 c 0,7,8
 30 1038 30 1038 28 1051 c 2,9,-1
 28 1052 l 1,10,-1
 85 1055 l 1,11,12
 113 1052 113 1052 118 1047 c 0,13,14
 138 1027 138 1027 140 804 c 2,15,-1
 138 505 l 2,16,17
 135 135 135 135 143 90 c 0,18,19
 145 86 145 86 154 69 c 1,20,-1
 154 68 l 1,21,-1
 160 52 l 1,0,-1
EndSplineSet
EndChar

StartChar: uni09F8
Encoding: 2552 2552 189
Width: 805
GlyphClass: 2
Flags: W
LayerCount: 2
Fore
SplineSet
684 990 m 1,0,-1
 706 948 l 1,1,-1
 708 944 l 1,2,3
 724 942 724 942 727 940 c 0,4,5
 750 924 750 924 752 752 c 2,6,-1
 750 521 l 2,7,8
 747 240 747 240 755 202 c 0,9,10
 758 199 758 199 768 185 c 1,11,-1
 768 184 l 1,12,-1
 775 172 l 1,13,-1
 700 174 l 1,14,-1
 672 176 l 1,15,16
 656 183 656 183 658 318 c 2,17,-1
 660 533 l 2,18,19
 664 770 664 770 647 869 c 1,20,21
 631 857 631 857 611 843 c 2,22,-1
 446 720 l 2,23,24
 247 574 247 574 182 509 c 1,25,-1
 188 499 l 1,26,-1
 173 500 l 1,27,28
 163 488 163 488 157 480 c 0,29,30
 153 473 153 473 145 467 c 1,31,-1
 145 465 l 1,32,-1
 122 499 l 2,33,34
 121 500 121 500 121 502 c 2,35,-1
 113 502 l 1,36,-1
 85 503 l 1,37,38
 69 510 69 510 70 645 c 2,39,-1
 73 861 l 2,40,41
 78 1187 78 1187 44 1251 c 0,42,43
 39 1260 39 1260 38 1269 c 2,44,-1
 38 1271 l 1,45,-1
 103 1273 l 2,46,47
 133 1271 133 1271 139 1267 c 0,48,49
 163 1251 163 1251 164 1079 c 2,50,-1
 163 849 l 2,51,52
 160 655 160 655 163 577 c 1,53,54
 196 605 196 605 248 646 c 2,55,-1
 426 777 l 2,56,57
 569 883 569 883 628 930 c 1,58,59
 626 936 626 936 625 942 c 2,60,-1
 625 943 l 1,61,-1
 645 944 l 1,62,63
 660 956 660 956 666 962 c 0,64,65
 666 963 666 963 675 980 c 1,66,-1
 677 980 l 1,67,-1
 684 990 l 1,0,-1
668 965 m 2,68,69
 669 965 669 965 669 966 c 1,70,71
 668 965 668 965 668 965 c 2,68,69
757 197 m 257,72,73
 757 197 757 197 757 197 c 257,74,75
 757 197 757 197 757 197 c 257,72,73
EndSplineSet
EndChar

StartChar: uni09F9
Encoding: 2553 2553 190
Width: 516
GlyphClass: 2
Flags: W
LayerCount: 2
Fore
SplineSet
236 880 m 0,0,1
 392 877 392 877 451 757 c 0,2,3
 479 703 479 703 480 636 c 0,4,5
 484 548 484 548 425 479 c 0,6,7
 360 401 360 401 244 401 c 0,8,9
 80 399 80 399 25 530 c 0,10,11
 7 572 7 572 4 625 c 0,12,13
 -1 721 -1 721 68 801 c 0,14,15
 138 883 138 883 236 880 c 0,0,1
236 786 m 0,16,17
 122 783 122 783 101 687 c 1,18,-1
 95 648 l 1,19,-1
 109 586 l 1,20,21
 128 531 128 531 215 526 c 1,22,-1
 217 526 l 1,23,-1
 248 524 l 1,24,25
 357 526 357 526 374 581 c 0,26,27
 377 593 377 593 377 636 c 0,28,29
 377 641 377 641 377 646 c 2,30,-1
 377 650 l 2,31,32
 377 710 377 710 323 754 c 0,33,34
 286 785 286 785 236 786 c 0,16,17
EndSplineSet
EndChar

StartChar: uni09FA
Encoding: 2554 2554 191
Width: 1229
GlyphClass: 2
Flags: W
LayerCount: 2
Fore
SplineSet
1034 1148 m 1,0,1
 1034 934 1034 934 957 777 c 1,2,3
 839 552 839 552 584 552 c 0,4,5
 415 552 415 552 281 730 c 0,6,7
 144 909 144 909 144 1148 c 1,8,-1
 167 1206 l 1,9,10
 206 1004 206 1004 246 907 c 1,11,12
 353 691 353 691 584 691 c 0,13,14
 855 691 855 691 953 911 c 1,15,-1
 1009 1206 l 1,16,-1
 1034 1148 l 1,0,1
749 1148 m 1,17,18
 749 1060 749 1060 702 1002 c 1,19,20
 659 965 659 965 584 950 c 1,21,22
 501 950 501 950 464 1008 c 0,23,24
 425 1066 425 1066 413 1141 c 1,25,26
 413 1213 413 1213 461 1271 c 1,27,-1
 513 1319 l 1,28,-1
 584 1340 l 1,29,30
 654 1340 654 1340 702 1291 c 1,31,32
 751 1234 751 1234 751 1148 c 1,33,-1
 749 1148 l 1,17,18
EndSplineSet
EndChar

StartChar: uni09FB
Encoding: 2555 2555 192
Width: 802
GlyphClass: 2
Flags: W
LayerCount: 2
Fore
SplineSet
802 62 m 1,0,1
 619 220 619 220 510 317.5 c 128,-1,2
 401 415 401 415 367 449 c 0,3,4
 212 604 212 604 212 816 c 0,5,6
 212 1020 212 1020 339 1172 c 0,7,8
 403 1248 403 1248 511.5 1271.5 c 128,-1,9
 620 1295 620 1295 712 1295 c 0,10,11
 777 1295 777 1295 791 1254 c 1,12,-1
 783 1089 l 1,13,-1
 683 1133 l 2,14,15
 679 1139 679 1139 585.5 1128.5 c 128,-1,16
 492 1118 492 1118 470 1123 c 1,17,18
 425 1123 425 1123 384 1033 c 1,19,20
 334 1008 334 1008 331 802 c 1,21,22
 275 684 275 684 480 535 c 2,23,-1
 825 284 l 1,24,-1
 802 62 l 1,0,1
EndSplineSet
EndChar

StartChar: uni09FC
Encoding: 2556 2556 193
Width: 0
GlyphClass: 4
Flags: W
AnchorPoint: "Anchor-0" -390 1410 mark 0
LayerCount: 2
Fore
SplineSet
-120 1751 m 1,0,1
 -120 1629 -120 1629 -164 1540 c 0,2,3
 -231 1412 -231 1412 -376 1412 c 0,4,5
 -472 1412 -472 1412 -548 1513 c 0,6,7
 -626 1615 -626 1615 -626 1751 c 1,8,-1
 -613 1784 l 1,9,10
 -591 1669 -591 1669 -568 1614 c 0,11,12
 -507 1491 -507 1491 -376 1491 c 0,13,14
 -222 1491 -222 1491 -166 1616 c 1,15,-1
 -134 1784 l 1,16,-1
 -120 1751 l 1,0,1
-282 1751 m 1,17,18
 -282 1701 -282 1701 -309 1668 c 1,19,20
 -333 1647 -333 1647 -376 1638 c 1,21,22
 -423 1638 -423 1638 -444 1671 c 0,23,24
 -466 1704 -466 1704 -473 1747 c 1,25,26
 -473 1788 -473 1788 -446 1821 c 1,27,-1
 -416 1848 l 1,28,-1
 -376 1860 l 1,29,30
 -336 1860 -336 1860 -309 1832 c 0,31,32
 -281 1800 -281 1800 -281 1751 c 1,33,-1
 -282 1751 l 1,17,18
110 982 m 1,34,-1
 -15 985 l 1,35,-1
 -450 1254 l 1,36,-1
 -249 1254 l 1,37,-1
 110 982 l 1,34,-1
EndSplineSet
EndChar

StartChar: uni09FD
Encoding: 2557 2557 194
Width: 802
GlyphClass: 2
Flags: W
LayerCount: 2
Fore
SplineSet
509 648 m 1,0,-1
 508 689 l 2,1,2
 505 743 505 743 474 778 c 0,3,4
 442 813 442 813 404 822 c 1,5,6
 366 824 366 824 313 785 c 0,7,8
 252 739 252 739 241 668 c 2,9,-1
 236 627 l 1,10,11
 237 571 237 571 273 531 c 0,12,13
 307 491 307 491 345 490 c 0,14,15
 391 486 391 486 440 526 c 0,16,17
 496 568 496 568 509 648 c 1,0,-1
600 644 m 1,18,19
 586 542 586 542 509 478 c 128,-1,20
 432 414 432 414 329 419 c 0,21,22
 260 422 260 422 201 483 c 0,23,24
 145 546 145 546 143 633 c 1,25,-1
 144 666 l 1,26,27
 156 765 156 765 239 833 c 0,28,29
 319 898 319 898 425 894 c 0,30,31
 493 890 493 890 543 828 c 0,32,33
 567 800 567 800 583 763 c 0,34,35
 596 728 596 728 599 687 c 2,36,-1
 600 644 l 1,18,19
EndSplineSet
EndChar

StartChar: uni09FE
Encoding: 2558 2558 195
Width: 0
GlyphClass: 4
Flags: W
AnchorPoint: "Anchor-1" -16 1175 basechar 0
AnchorPoint: "Anchor-0" 15 1154 mark 0
LayerCount: 2
Fore
SplineSet
-152 1446 m 1,0,1
 -137 1409 -137 1409 -147.5 1384.5 c 128,-1,2
 -158 1360 -158 1360 -178 1374 c 0,3,4
 -234 1411 -234 1411 -208 1443 c 0,5,6
 -193 1463 -193 1463 -152 1446 c 1,0,1
-254 1436 m 0,7,8
 -258 1429 -258 1429 -211 1375 c 0,9,10
 -205 1368 -205 1368 -198 1359 c 1,11,12
 -169 1349 -169 1349 -153.5 1351 c 128,-1,13
 -138 1353 -138 1353 -129 1361.5 c 128,-1,14
 -120 1370 -120 1370 -117 1390.5 c 128,-1,15
 -114 1411 -114 1411 -138 1443 c 1,16,17
 -85 1436 -85 1436 -60.5 1406 c 128,-1,18
 -36 1376 -36 1376 -35 1355 c 0,19,20
 -31 1331 -31 1331 -42.5 1314 c 128,-1,21
 -54 1297 -54 1297 -79 1282 c 0,22,23
 -121 1262 -121 1262 -162 1269 c 0,24,25
 -171 1269 -171 1269 -181 1270 c 128,-1,26
 -191 1271 -191 1271 -201 1275 c 1,27,-1
 -227 1267 l 1,28,-1
 -198 1224 l 1,29,-1
 -142 1213 l 1,30,-1
 -98 1200 l 1,31,-1
 -60 1184 l 2,32,33
 -32 1173 -32 1173 -12 1150 c 0,34,35
 7 1128 7 1128 28 1106 c 1,36,-1
 36 1122 l 1,37,38
 -1 1167 -1 1167 -43 1198 c 0,39,40
 -48 1202 -48 1202 -53 1205 c 0,41,42
 -61 1211 -61 1211 -61 1211 c 2,43,44
 -65 1212 -65 1212 -70 1216 c 0,45,46
 -74 1219 -74 1219 -79 1221 c 0,47,48
 -88 1226 -88 1226 -97 1230 c 0,49,50
 -109 1236 -109 1236 -115 1238 c 2,51,-1
 -163 1237 l 1,52,53
 -194 1252 -194 1252 -117 1243 c 0,54,55
 -113 1243 -113 1243 -101 1246 c 0,56,57
 -85 1250 -85 1250 -65 1261 c 0,58,59
 -13 1292 -13 1292 -13 1335 c 0,60,61
 -13 1362 -13 1362 -21.5 1377 c 128,-1,62
 -30 1392 -30 1392 -49 1418 c 2,63,-1
 -61 1432 l 1,64,65
 -54 1465 -54 1465 -185 1507 c 0,66,67
 -190 1509 -190 1509 -192 1510 c 128,-1,68
 -194 1511 -194 1511 -201.5 1519 c 128,-1,69
 -209 1527 -209 1527 -216 1529 c 0,70,71
 -223 1532 -223 1532 -226.5 1533.5 c 128,-1,72
 -230 1535 -230 1535 -235 1535 c 0,73,74
 -243 1537 -243 1537 -244 1528 c 0,75,76
 -245 1525 -245 1525 -245 1524.5 c 128,-1,77
 -245 1524 -245 1524 -244 1522 c 0,78,79
 -244 1520 -244 1520 -243 1519 c 0,80,81
 -242 1517 -242 1517 -242 1517 c 2,82,83
 -241 1516 -241 1516 -240 1515 c 0,84,85
 -240 1514 -240 1514 -238 1513 c 256,86,87
 -236 1512 -236 1512 -236 1512 c 2,88,89
 -235 1511 -235 1511 -234 1510 c 0,90,91
 -229 1508 -229 1508 -230 1508 c 2,92,93
 -230 1508 -230 1508 -215 1500 c 0,94,95
 -193 1489 -193 1489 -194 1486 c 0,96,97
 -196 1478 -196 1478 -198 1477 c 0,98,99
 -223 1471 -223 1471 -254 1436 c 0,7,8
EndSplineSet
EndChar

StartChar: uni200C
Encoding: 8204 8204 196
Width: 0
GlyphClass: 2
Flags: W
LayerCount: 2
Fore
SplineSet
-25 1400 m 1,0,-1
 -26 24 l 1,1,-1
 25 24 l 1,2,-1
 27 1399 l 1,3,-1
 -25 1400 l 1,0,-1
EndSplineSet
EndChar

StartChar: uni200D
Encoding: 8205 8205 197
Width: 0
GlyphClass: 2
Flags: W
LayerCount: 2
Fore
SplineSet
-30 20 m 1,0,-1
 50 30 l 1,1,-1
 50 1230 l 1,2,-1
 250 1100 l 1,3,-1
 270 1140 l 1,4,-1
 50 1280 l 1,5,-1
 260 1430 l 1,6,-1
 200 1480 l 1,7,-1
 10 1320 l 1,8,-1
 -250 1480 l 1,9,-1
 -290 1410 l 1,10,-1
 -60 1290 l 1,11,-1
 -260 1110 l 1,12,-1
 -200 1090 l 1,13,-1
 -30 1240 l 1,14,-1
 -30 20 l 1,0,-1
EndSplineSet
EndChar

StartChar: Euro
Encoding: 8364 8364 198
Width: 1064
GlyphClass: 2
Flags: W
LayerCount: 2
Fore
SplineSet
8 790 m 1,0,-1
 386 790 l 1,1,-1
 395 807 l 1,2,3
 360 728 360 728 360 675 c 1,4,5
 367 658 367 658 374 641 c 1,6,-1
 12 643 l 1,7,-1
 11 589 l 1,8,-1
 397 587 l 1,9,10
 441 489 441 489 490 405 c 0,11,12
 560 285 560 285 735 150 c 128,-1,13
 910 15 910 15 950 25 c 1,14,-1
 960 125 l 1,15,16
 670 335 670 335 600 460 c 0,17,18
 561 530 561 530 534 589 c 1,19,-1
 1011 587 l 1,20,-1
 1011 639 l 1,21,-1
 514 640 l 1,22,-1
 533 592 l 2,23,24
 513 637 513 637 500 675 c 1,25,-1
 510 765 l 1,26,27
 517 778 517 778 525 791 c 1,28,-1
 1009 789 l 1,29,-1
 1009 840 l 1,30,-1
 553 839 l 1,31,32
 669 1027 669 1027 770 1090 c 0,33,34
 890 1165 890 1165 1010 1175 c 1,35,-1
 980 1285 l 1,36,37
 820 1275 820 1275 690 1185 c 128,-1,38
 560 1095 560 1095 460 930 c 0,39,40
 430 881 430 881 410 839 c 1,41,-1
 12 837 l 1,42,-1
 8 790 l 1,0,-1
EndSplineSet
EndChar

StartChar: uni25CC
Encoding: 9676 9676 199
Width: 1590
GlyphClass: 2
Flags: W
LayerCount: 2
Fore
SplineSet
1364 977 m 1,0,1
 1454 697 1454 697 1374 457 c 1,2,-1
 1244 487 l 1,3,4
 1294 707 1294 707 1254 917 c 1,5,-1
 1364 977 l 1,0,1
1138 201 m 1,6,7
 858 111 858 111 618 191 c 1,8,-1
 648 321 l 1,9,10
 868 271 868 271 1078 311 c 1,11,-1
 1138 201 l 1,6,7
600 1215 m 1,12,13
 880 1305 880 1305 1120 1225 c 1,14,-1
 1090 1095 l 1,15,16
 870 1145 870 1145 660 1105 c 1,17,-1
 600 1215 l 1,12,13
360 417 m 1,18,19
 270 697 270 697 350 937 c 1,20,-1
 480 907 l 1,21,22
 430 687 430 687 470 477 c 1,23,-1
 360 417 l 1,18,19
EndSplineSet
EndChar

StartChar: cbindusmall
Encoding: 65538 -1 200
Width: 10
GlyphClass: 2
Flags: W
LayerCount: 2
Fore
SplineSet
50 1712 m 1,0,1
 50 1626 50 1626 19 1562 c 0,2,3
 -29 1471 -29 1471 -132 1471 c 0,4,5
 -200 1471 -200 1471 -255 1543 c 0,6,7
 -310 1616 -310 1616 -310 1712 c 1,8,-1
 -301 1736 l 1,9,10
 -285 1654 -285 1654 -269 1615 c 0,11,12
 -225 1527 -225 1527 -132 1527 c 0,13,14
 -23 1527 -23 1527 17 1616 c 1,15,-1
 40 1736 l 1,16,-1
 50 1712 l 1,0,1
-65 1712 m 128,-1,18
 -65 1677 -65 1677 -84 1653 c 1,19,20
 -102 1638 -102 1638 -132 1632 c 1,21,22
 -166 1632 -166 1632 -181 1655 c 0,23,24
 -196 1679 -196 1679 -201 1710 c 1,25,26
 -201 1739 -201 1739 -182 1762 c 1,27,-1
 -161 1781 l 1,28,-1
 -132 1790 l 1,29,30
 -104 1790 -104 1790 -84 1770 c 0,31,17
 -65 1747 -65 1747 -65 1712 c 128,-1,18
EndSplineSet
EndChar

StartChar: janya
Encoding: 65539 -1 201
Width: 1789
GlyphClass: 2
Flags: W
AnchorPoint: "Anchor-1" 900 0 basechar 0
AnchorPoint: "Anchor-0" 615 1335 basechar 0
LayerCount: 2
Fore
SplineSet
580 1094 m 1,0,1
 664 1105 664 1105 723.5 1090 c 128,-1,2
 783 1075 783 1075 863 1075 c 0,3,4
 947 1075 947 1075 1051 1004 c 1,5,-1
 1087 902 l 1,6,7
 1436 1186 1436 1186 1469 1226 c 128,-1,8
 1502 1266 1502 1266 1553.5 1196.5 c 128,-1,9
 1605 1127 1605 1127 1590.5 1054 c 128,-1,10
 1576 981 1576 981 1503 772 c 1,11,-1
 1504 658 l 1,12,13
 1736 517 1736 517 1706.5 323 c 128,-1,14
 1677 129 1677 129 1580 92 c 128,-1,15
 1483 55 1483 55 1420 105 c 0,16,17
 1373 143 1373 143 1200 544 c 1,18,19
 1201 522 1201 522 1200 499 c 0,20,21
 1220 287 1220 287 1088 146 c 0,22,23
 971 16 971 16 827 16 c 0,24,25
 593 16 593 16 420 224 c 1,26,27
 289 351 289 351 266 402 c 1,28,29
 221 466 221 466 161 600 c 1,30,31
 103 741 103 741 56 837 c 0,32,33
 -4 960 -4 960 -11 997 c 1,34,-1
 124 931 l 1,35,-1
 205 775 l 2,36,37
 228 728 228 728 263 646 c 0,38,39
 276 610 276 610 290.5 579.5 c 128,-1,40
 305 549 305 549 318 523 c 0,41,42
 404 359 404 359 529 257 c 0,43,44
 649 156 649 156 795 156 c 0,45,46
 944 156 944 156 1053 260 c 0,47,48
 1097 305 1097 305 1115 408 c 1,49,50
 1131 458 1131 458 1115 574 c 1,51,52
 1108 705 1108 705 1108 617 c 1,53,54
 1104 645 1104 645 1080 681 c 1,55,-1
 947 578 l 2,56,57
 892 535 892 535 846 523 c 0,58,59
 782 504 782 504 759 490 c 0,60,61
 694 449 694 449 567 521 c 0,62,63
 504 557 504 557 427.5 667.5 c 128,-1,64
 351 778 351 778 356 806 c 2,65,-1
 437 1272 l 1,66,-1
 -1 1277 l 1,67,-1
 -96 1375 l 1,68,-1
 1793 1379 l 1,69,-1
 1906 1275 l 1,70,-1
 639 1273 l 1,71,-1
 580 1094 l 1,0,1
1166 717 m 1,72,-1
 1223 650 l 1,73,74
 1352 484 1352 484 1378.5 350 c 128,-1,75
 1405 216 1405 216 1493 218.5 c 128,-1,76
 1581 221 1581 221 1568 379.5 c 128,-1,77
 1555 538 1555 538 1399 666 c 1,78,-1
 1402 776 l 1,79,80
 1470 883 1470 883 1487 942 c 128,-1,81
 1504 1001 1504 1001 1498.5 1068 c 128,-1,82
 1493 1135 1493 1135 1444 1087 c 128,-1,83
 1395 1039 1395 1039 1166 717 c 1,72,-1
985 883 m 1,84,85
 880 964 880 964 793 964 c 0,86,87
 670 965 670 965 556 1010 c 1,88,-1
 528 786 l 2,89,90
 524 777 524 777 556.5 704 c 128,-1,91
 589 631 589 631 632 596 c 0,92,93
 647 583 647 583 699 583 c 0,94,95
 768 583 768 583 860 692 c 0,96,97
 904 746 904 746 985 883 c 1,84,85
1079 809 m 1,98,-1
 1094 795 l 1,99,100
 1088 809 1088 809 1082 824 c 1,101,-1
 1079 809 l 1,98,-1
EndSplineSet
Ligature2: "'akhn' Akhand in Bengali lookup 1 subtable" ja hasanta nya
EndChar

StartChar: kassa
Encoding: 65540 -1 202
Width: 1263
GlyphClass: 2
Flags: W
AnchorPoint: "Anchor-1" 915 60 basechar 0
AnchorPoint: "Anchor-0" 870 1380 basechar 0
LayerCount: 2
Fore
SplineSet
1065 676 m 0,0,1
 1018 676 1018 676 1018 625 c 0,2,3
 1018 572 1018 572 1065 572 c 0,4,5
 1114 572 1114 572 1114 625 c 0,6,7
 1114 676 1114 676 1065 676 c 0,0,1
465 629 m 0,8,9
 401 629 401 629 401 541 c 0,10,11
 401 454 401 454 465 454 c 0,12,13
 528 454 528 454 528 541 c 0,14,15
 528 629 528 629 465 629 c 0,8,9
224 1010 m 128,-1,17
 156 1010 156 1010 156 935 c 0,18,19
 156 858 156 858 224 858 c 128,-1,20
 292 858 292 858 292 935 c 0,21,16
 292 1010 292 1010 224 1010 c 128,-1,17
810 395 m 1,22,-1
 805 919 l 1,23,24
 541 1009 541 1009 586 1125.5 c 128,-1,25
 631 1242 631 1242 664 1296 c 1,26,-1
 233 1296 l 1,27,28
 270 1240 270 1240 288 1185 c 2,29,-1
 306 1125 l 1,30,-1
 366 1117 l 2,31,32
 557 1092 557 1092 598 922 c 128,-1,33
 639 752 639 752 623 660 c 1,34,35
 668 623 668 623 724 543 c 0,36,37
 749 508 749 508 772 476.5 c 128,-1,38
 795 445 795 445 810 395 c 1,22,-1
810 1079 m 2,39,-1
 810 1296 l 1,40,-1
 771 1277 l 1,41,42
 654 1248 654 1248 657 1122.5 c 128,-1,43
 660 997 660 997 793 1026 c 1,44,45
 808 1063 808 1063 810 1079 c 2,39,-1
1326 1296 m 1,46,-1
 885 1296 l 1,47,-1
 885 1066 l 1,48,-1
 900 1076 l 1,49,-1
 940 1089 l 2,50,51
 993 1107 993 1107 1043 1074 c 128,-1,52
 1093 1041 1093 1041 1131 995 c 0,53,54
 1207 898 1207 898 1207 755 c 0,55,56
 1207 646 1207 646 1166 570 c 0,57,58
 1127 497 1127 497 1050 497 c 0,59,60
 989 497 989 497 972 543 c 2,61,-1
 958 578 l 2,62,63
 946 608 946 608 946 645 c 0,64,65
 946 712 946 712 978 747 c 0,66,67
 1014 789 1014 789 1038 792 c 0,68,69
 1079 794 1079 794 1108 763 c 0,70,71
 1140 728 1140 728 1140 690 c 2,72,-1
 1140 675 l 1,73,-1
 1140 662 l 1,74,75
 1149 670 1149 670 1162 699 c 0,76,77
 1173 727 1173 727 1173 782 c 0,78,79
 1173 851 1173 851 1130 911 c 0,80,81
 1077 989 1077 989 996 989 c 2,82,-1
 974 989 l 1,83,-1
 940 979 l 1,84,-1
 890 952 l 1,85,-1
 878 0 l 1,86,87
 866 0 866 0 861 12 c 2,88,-1
 853 29 l 1,89,90
 853 153 853 153 792 314 c 0,91,92
 712 520 712 520 609 520 c 1,93,94
 604 475 604 475 588 442 c 0,95,96
 551 361 551 361 467 361 c 0,97,98
 417 361 417 361 376 423 c 0,99,100
 335 490 335 490 335 535 c 0,101,102
 335 608 335 608 372 668 c 0,103,104
 406 727 406 727 476 727 c 2,105,-1
 520 727 l 1,106,107
 531 732 531 732 534 747.5 c 128,-1,108
 537 763 537 763 549 779 c 0,109,110
 573 811 573 811 501.5 935 c 128,-1,111
 430 1059 430 1059 369 1066 c 0,112,113
 343 1067 343 1067 329 1053 c 1,114,-1
 322 1037 l 1,115,116
 349 1014 349 1014 349 948 c 128,-1,117
 349 882 349 882 317 825 c 0,118,119
 280 759 280 759 216 765 c 2,120,-1
 189 769 l 2,121,122
 137 773 137 773 111 826 c 0,123,124
 88 880 88 880 88 946 c 0,125,126
 88 1048 88 1048 173 1108 c 2,127,-1
 247 1158 l 1,128,129
 215 1244 215 1244 168 1283 c 0,130,131
 152 1296 152 1296 80 1296 c 2,132,-1
 30 1296 l 1,133,-1
 -31 1390 l 1,134,-1
 1254 1390 l 1,135,-1
 1326 1296 l 1,46,-1
EndSplineSet
Ligature2: "'akhn' Akhand in Bengali lookup 1 subtable" ka hasanta ssa
EndChar

StartChar: hama
Encoding: 65541 -1 203
Width: 1345
GlyphClass: 2
Flags: W
AnchorPoint: "Anchor-1" 930 30 basechar 0
AnchorPoint: "Anchor-0" 915 1410 basechar 0
LayerCount: 2
Fore
SplineSet
494 625 m 128,-1,1
 423 625 423 625 423 536 c 0,2,3
 423 448 423 448 494 448 c 128,-1,4
 565 448 565 448 565 536 c 0,5,0
 565 625 565 625 494 625 c 128,-1,1
227 1013 m 128,-1,7
 152 1013 152 1013 152 937 c 0,8,9
 152 859 152 859 227 859 c 128,-1,10
 302 859 302 859 302 937 c 0,11,6
 302 1013 302 1013 227 1013 c 128,-1,7
876 388 m 1,12,-1
 871 921 l 1,13,14
 579 1012 579 1012 628 1131 c 128,-1,15
 677 1250 677 1250 716 1304 c 1,16,-1
 236 1304 l 1,17,18
 279 1247 279 1247 298 1191 c 2,19,-1
 317 1130 l 1,20,-1
 386 1122 l 2,21,22
 598 1097 598 1097 642 924.5 c 128,-1,23
 686 752 686 752 669 658 c 1,24,25
 719 619 719 619 782 539 c 0,26,27
 808 503 808 503 834 471 c 128,-1,28
 860 439 860 439 876 388 c 1,12,-1
876 1084 m 1,29,-1
 876 1194 l 1,30,-1
 876 1304 l 1,31,-1
 854 1295 l 1,32,-1
 833 1285 l 1,33,34
 704 1255 704 1255 707 1127.5 c 128,-1,35
 710 1000 710 1000 875 1051 c 1,36,-1
 875 1059 l 2,37,38
 875 1068 875 1068 876 1075 c 2,39,-1
 876 1084 l 1,29,-1
1448 1304 m 1,40,-1
 960 1304 l 1,41,-1
 960 1071 l 1,42,-1
 977 1081 l 1,43,-1
 1020 1094 l 2,44,45
 1080 1112 1080 1112 1172.5 1103.5 c 128,-1,46
 1265 1095 1265 1095 1317 1025 c 1,47,-1
 1325 387 l 1,48,-1
 1195 404 l 1,49,50
 1289 1037 1289 1037 1151 987 c 1,51,-1
 1070 991 l 1,52,-1
 1059 991 l 1,53,-1
 1020 982 l 1,54,-1
 966 954 l 1,55,-1
 973 -7 l 1,56,57
 938 -14 938 -14 933 -3 c 2,58,-1
 924 16 l 1,59,60
 924 142 924 142 857 305 c 0,61,62
 767 515 767 515 653 515 c 1,63,64
 648 470 648 470 631 437 c 0,65,66
 589 353 589 353 498 353 c 0,67,68
 441 353 441 353 395 417 c 0,69,70
 349 484 349 484 349 531 c 0,71,72
 349 605 349 605 391 666 c 0,73,74
 429 725 429 725 507 725 c 2,75,-1
 554 725 l 1,76,77
 567 731 567 731 570.5 747 c 128,-1,78
 574 763 574 763 587 778 c 0,79,80
 614 811 614 811 535 937 c 128,-1,81
 456 1063 456 1063 389 1071 c 0,82,83
 360 1072 360 1072 345 1057 c 1,84,-1
 335 1041 l 1,85,86
 365 1018 365 1018 365 951 c 128,-1,87
 365 884 365 884 330 825 c 0,88,89
 290 758 290 758 219 765 c 2,90,-1
 189 768 l 2,91,92
 132 772 132 772 104 827 c 0,93,94
 76 881 76 881 76 949 c 0,95,96
 76 1053 76 1053 170 1113 c 1,97,-1
 225 1113 l 1,98,99
 217 1252 217 1252 166 1291 c 0,100,101
 148 1304 148 1304 68 1304 c 2,102,-1
 13 1304 l 1,103,-1
 -55 1400 l 1,104,-1
 1369 1400 l 1,105,-1
 1448 1304 l 1,40,-1
EndSplineSet
Ligature2: "'akhn' Akhand in Bengali lookup 1 subtable" ha hasanta ma
EndChar

StartChar: tata
Encoding: 65542 -1 204
Width: 1443
GlyphClass: 2
Flags: W
AnchorPoint: "Anchor-1" 855 45 basechar 0
AnchorPoint: "Anchor-0" 795 1410 basechar 0
LayerCount: 2
Fore
SplineSet
1452 1395 m 1,0,-1
 -99 1400 l 1,1,-1
 -3 1301 l 1,2,-1
 727 1301 l 1,3,4
 776 1309 776 1309 830 1309 c 0,5,6
 881 1309 881 1309 928 1302 c 1,7,-1
 1559 1302 l 1,8,-1
 1452 1395 l 1,0,-1
470 1004 m 1,9,10
 411 967 411 967 391 926 c 128,-1,11
 371 885 371 885 391 847.5 c 128,-1,12
 411 810 411 810 457 785 c 1,13,14
 549 787 549 787 573 809 c 128,-1,15
 597 831 597 831 604.5 883 c 128,-1,16
 612 935 612 935 572.5 978 c 128,-1,17
 533 1021 533 1021 470 1004 c 1,9,10
843 811 m 1,18,19
 774 748 774 748 890 723 c 128,-1,20
 1006 698 1006 698 1053 735 c 0,21,22
 1089 763 1089 763 1023.5 794.5 c 128,-1,23
 958 826 958 826 843 811 c 1,18,19
1135 799 m 2,24,25
 1109 749 1109 749 1173 692 c 128,-1,26
 1237 635 1237 635 1244 590 c 0,27,28
 1249 549 1249 549 1263 489.5 c 128,-1,29
 1277 430 1277 430 1277 373 c 0,30,31
 1277 282 1277 282 1219 212.5 c 128,-1,32
 1161 143 1161 143 1100 96 c 0,33,34
 991 14 991 14 830 14 c 0,35,36
 564 14 564 14 330 262 c 0,37,38
 157 443 157 443 11 759 c 0,39,40
 -74 946 -74 946 -124 1131 c 1,41,-1
 -108 1115 l 1,42,-1
 23 861 l 2,43,44
 60 789 60 789 108.5 711 c 128,-1,45
 157 633 157 633 210 565 c 0,46,47
 330 403 330 403 442 314 c 0,48,49
 617 168 617 168 810 168 c 0,50,51
 946 168 946 168 1059 242 c 0,52,53
 1168 315 1168 315 1168 434 c 0,54,55
 1168 502 1168 502 1134 573 c 0,56,57
 1100 640 1100 640 1055 643 c 1,58,59
 1035 614 1035 614 1000 593 c 0,60,61
 968 577 968 577 919 577 c 0,62,63
 842 577 842 577 799 631 c 0,64,65
 758 680 758 680 758 740 c 0,66,67
 758 837 758 837 796 881 c 0,68,69
 815 900 815 900 843 917 c 1,70,71
 870 927 870 927 908 927 c 0,72,73
 977 927 977 927 1051 861 c 1,74,75
 1071 870 1071 870 1077 884 c 0,76,77
 1117 964 1117 964 1117 1032 c 0,78,79
 1117 1081 1117 1081 1086.5 1127.5 c 128,-1,80
 1056 1174 1056 1174 1030 1197 c 0,81,82
 1002 1220 1002 1220 928 1227 c 128,-1,83
 854 1234 854 1234 806 1234 c 0,84,85
 721 1234 721 1234 653.5 1191 c 128,-1,86
 586 1148 586 1148 523 1100 c 1,87,-1
 576 1096 l 2,88,89
 630 1092 630 1092 659 1055 c 0,90,91
 689 1017 689 1017 688 889 c 128,-1,92
 687 761 687 761 605 709.5 c 128,-1,93
 523 658 523 658 441.5 672 c 128,-1,94
 360 686 360 686 327 730 c 0,95,96
 297 768 297 768 297 859 c 0,97,98
 297 1026 297 1026 432 1158 c 0,99,100
 554 1275 554 1275 727 1301 c 1,101,-1
 928 1302 l 1,102,103
 952 1298 952 1298 975 1292 c 0,104,105
 1035 1274 1035 1274 1089 1228 c 0,106,107
 1139 1181 1139 1181 1173.5 1113.5 c 128,-1,108
 1208 1046 1208 1046 1196 965 c 2,109,-1
 1187 914 l 1,110,-1
 1135 799 l 2,24,25
EndSplineSet
Ligature2: "'pres' Pre Base Substitutions in Bengali lookup 5 subtable" ta_hasanta.zz05 ta
EndChar

